%TF.GenerationSoftware,KiCad,Pcbnew,7.0.10*%
%TF.CreationDate,2024-03-17T17:48:13-04:00*%
%TF.ProjectId,back panel,6261636b-2070-4616-9e65-6c2e6b696361,rev?*%
%TF.SameCoordinates,Original*%
%TF.FileFunction,Legend,Top*%
%TF.FilePolarity,Positive*%
%FSLAX46Y46*%
G04 Gerber Fmt 4.6, Leading zero omitted, Abs format (unit mm)*
G04 Created by KiCad (PCBNEW 7.0.10) date 2024-03-17 17:48:13*
%MOMM*%
%LPD*%
G01*
G04 APERTURE LIST*
G04 APERTURE END LIST*
%TO.C,G\u002A\u002A\u002A*%
G36*
X89073539Y-110725161D02*
G01*
X89119581Y-110782838D01*
X89191360Y-110963824D01*
X89233771Y-111230820D01*
X89238667Y-111352849D01*
X89245669Y-111589062D01*
X89263503Y-111735980D01*
X89276161Y-111760000D01*
X89366005Y-111721017D01*
X89543422Y-111623969D01*
X89603209Y-111589159D01*
X89793301Y-111497040D01*
X89927404Y-111495627D01*
X90018788Y-111603480D01*
X90080725Y-111839159D01*
X90126483Y-112221225D01*
X90136376Y-112334889D01*
X90161381Y-112685941D01*
X90159969Y-112920520D01*
X90124221Y-113090473D01*
X90046219Y-113247645D01*
X89981527Y-113348805D01*
X89493122Y-113958916D01*
X88902691Y-114486315D01*
X88244629Y-114907464D01*
X87553333Y-115198819D01*
X87125465Y-115303547D01*
X86721578Y-115403353D01*
X86453093Y-115535585D01*
X86405798Y-115576962D01*
X86233000Y-115755483D01*
X86614000Y-115695063D01*
X86913101Y-115627475D01*
X87186131Y-115534029D01*
X87243627Y-115507314D01*
X87418306Y-115448167D01*
X87689051Y-115407048D01*
X88079832Y-115381588D01*
X88614622Y-115369415D01*
X88640627Y-115369159D01*
X89789000Y-115358333D01*
X90317622Y-115641796D01*
X90810633Y-115959404D01*
X91173029Y-116325840D01*
X91443253Y-116780303D01*
X91451232Y-116797667D01*
X91564925Y-117071452D01*
X91589631Y-117246576D01*
X91515857Y-117373891D01*
X91334107Y-117504249D01*
X91317371Y-117514632D01*
X91062668Y-117722122D01*
X90967940Y-117944446D01*
X91024194Y-118207498D01*
X91054638Y-118270897D01*
X91144693Y-118466231D01*
X91185753Y-118597108D01*
X91186000Y-118602348D01*
X91108766Y-118666042D01*
X90904461Y-118740549D01*
X90614181Y-118816847D01*
X90279022Y-118885912D01*
X89940082Y-118938720D01*
X89638456Y-118966249D01*
X89521187Y-118967886D01*
X89132559Y-118935543D01*
X88801263Y-118842882D01*
X88457681Y-118665991D01*
X88247512Y-118530394D01*
X88031717Y-118389620D01*
X87878234Y-118298522D01*
X87833882Y-118279333D01*
X87736410Y-118217039D01*
X87559817Y-118048875D01*
X87328575Y-117802922D01*
X87067157Y-117507257D01*
X86800036Y-117189961D01*
X86551685Y-116879111D01*
X86346575Y-116602788D01*
X86258770Y-116472094D01*
X86176338Y-116415575D01*
X86152297Y-116426814D01*
X86167408Y-116517620D01*
X86262058Y-116688811D01*
X86312955Y-116763029D01*
X86677246Y-117278160D01*
X86954093Y-117700573D01*
X87162703Y-118069076D01*
X87322286Y-118422475D01*
X87452049Y-118799578D01*
X87571202Y-119239193D01*
X87603024Y-119369394D01*
X87697495Y-119849352D01*
X87716410Y-120212673D01*
X87660086Y-120494100D01*
X87614240Y-120595920D01*
X87453180Y-120861580D01*
X87254286Y-121137938D01*
X87048215Y-121388232D01*
X86865624Y-121575703D01*
X86737172Y-121663591D01*
X86721796Y-121666000D01*
X86572958Y-121610794D01*
X86381356Y-121474020D01*
X86336233Y-121433167D01*
X86091534Y-121200333D01*
X85803693Y-121539000D01*
X85515853Y-121877667D01*
X85523260Y-117390333D01*
X85526235Y-116400086D01*
X85531609Y-115528697D01*
X85539239Y-114783429D01*
X85548983Y-114171546D01*
X85560699Y-113700313D01*
X85574245Y-113376992D01*
X85589477Y-113208847D01*
X85605350Y-113199333D01*
X85633373Y-113418151D01*
X85643943Y-113747318D01*
X85635870Y-114128635D01*
X85627417Y-114278833D01*
X85608022Y-114702238D01*
X85617962Y-114961878D01*
X85657382Y-115060787D01*
X85664340Y-115062000D01*
X85747888Y-114982290D01*
X85813923Y-114762395D01*
X85854968Y-114431164D01*
X85861840Y-114300000D01*
X85897877Y-114054258D01*
X85982997Y-113700535D01*
X86101954Y-113287486D01*
X86239498Y-112863766D01*
X86380380Y-112478031D01*
X86509351Y-112178934D01*
X86551747Y-112098667D01*
X86915153Y-111630580D01*
X87419149Y-111230022D01*
X88043900Y-110910320D01*
X88590415Y-110728789D01*
X88839726Y-110669734D01*
X88982417Y-110666650D01*
X89073539Y-110725161D01*
G37*
G36*
X155879589Y-115736031D02*
G01*
X156301700Y-115893231D01*
X156633743Y-116094785D01*
X156854148Y-116285343D01*
X157107625Y-116565881D01*
X157207910Y-116775762D01*
X157155102Y-116916274D01*
X156949296Y-116988704D01*
X156907807Y-116993531D01*
X156720779Y-117022677D01*
X156634073Y-117058005D01*
X156633334Y-117061092D01*
X156690936Y-117137970D01*
X156832230Y-117272925D01*
X156858567Y-117295860D01*
X157010049Y-117462107D01*
X157013798Y-117579229D01*
X156864463Y-117651700D01*
X156556689Y-117683995D01*
X156391025Y-117686667D01*
X156074274Y-117675288D01*
X155807283Y-117629907D01*
X155525593Y-117533657D01*
X155164746Y-117369672D01*
X155147188Y-117361192D01*
X154827718Y-117196996D01*
X154558835Y-117041176D01*
X154384397Y-116919790D01*
X154352998Y-116889337D01*
X154188047Y-116748710D01*
X153944105Y-116599339D01*
X153688458Y-116477107D01*
X153488386Y-116417896D01*
X153466703Y-116416667D01*
X153317363Y-116371144D01*
X153305618Y-116261327D01*
X153435758Y-116127339D01*
X153435770Y-116127332D01*
X153599537Y-116051346D01*
X153881467Y-115950839D01*
X154235250Y-115841554D01*
X154461176Y-115778736D01*
X155292083Y-115557582D01*
X155879589Y-115736031D01*
G37*
G36*
X132841325Y-102852688D02*
G01*
X132989830Y-103009606D01*
X133085481Y-103188368D01*
X133096000Y-103251968D01*
X133154241Y-103359937D01*
X133288629Y-103362122D01*
X133411964Y-103282170D01*
X133524330Y-103240553D01*
X133705671Y-103304053D01*
X133788730Y-103349939D01*
X133987466Y-103505601D01*
X134116070Y-103725997D01*
X134181978Y-103932603D01*
X134275447Y-104311073D01*
X134314031Y-104588373D01*
X134295936Y-104824128D01*
X134219369Y-105077963D01*
X134141748Y-105270568D01*
X133991572Y-105573171D01*
X133780999Y-105927973D01*
X133537005Y-106296529D01*
X133286567Y-106640394D01*
X133056661Y-106921123D01*
X132874264Y-107100271D01*
X132841861Y-107123069D01*
X132709886Y-107231548D01*
X132672667Y-107298030D01*
X132727219Y-107326434D01*
X132770409Y-107306918D01*
X132908991Y-107251675D01*
X133131955Y-107214349D01*
X133466049Y-107192299D01*
X133938023Y-107182884D01*
X134031451Y-107182359D01*
X134488533Y-107195749D01*
X134836737Y-107246046D01*
X135134152Y-107341933D01*
X135153319Y-107350040D01*
X135403978Y-107490146D01*
X135691853Y-107700374D01*
X135984022Y-107949876D01*
X136247560Y-108207808D01*
X136449544Y-108443324D01*
X136557048Y-108625576D01*
X136566285Y-108673821D01*
X136495128Y-108828875D01*
X136311980Y-109001076D01*
X136260194Y-109036675D01*
X136070915Y-109180447D01*
X136022678Y-109282911D01*
X136049575Y-109328775D01*
X136141933Y-109526567D01*
X136122847Y-109766738D01*
X136003699Y-109975098D01*
X135942722Y-110025312D01*
X135612116Y-110188020D01*
X135193548Y-110317770D01*
X134918683Y-110370622D01*
X134488586Y-110353610D01*
X134003026Y-110198896D01*
X133483641Y-109919540D01*
X132952067Y-109528604D01*
X132429944Y-109039146D01*
X132103359Y-108671303D01*
X131939696Y-108492995D01*
X131817725Y-108396220D01*
X131779616Y-108391495D01*
X131777020Y-108500249D01*
X131857320Y-108685202D01*
X131992024Y-108895010D01*
X132152642Y-109078329D01*
X132169001Y-109093200D01*
X132289463Y-109244497D01*
X132449531Y-109505569D01*
X132622073Y-109830566D01*
X132694950Y-109982000D01*
X132877896Y-110405565D01*
X132990076Y-110757210D01*
X133051248Y-111108119D01*
X133070970Y-111336667D01*
X133086673Y-111659545D01*
X133074200Y-111896034D01*
X133019308Y-112109517D01*
X132907755Y-112363375D01*
X132786521Y-112602541D01*
X132579415Y-112983669D01*
X132415307Y-113221318D01*
X132272320Y-113328422D01*
X132128578Y-113317916D01*
X131962205Y-113202736D01*
X131888047Y-113133774D01*
X131662077Y-112937282D01*
X131514619Y-112875896D01*
X131423218Y-112948783D01*
X131373034Y-113114667D01*
X131302772Y-113297333D01*
X131179929Y-113357222D01*
X130990638Y-113291048D01*
X130721036Y-113095525D01*
X130509939Y-112910165D01*
X130009378Y-112451663D01*
X129988521Y-111565526D01*
X130007382Y-110863759D01*
X130108146Y-110273960D01*
X130302581Y-109753969D01*
X130602460Y-109261627D01*
X130649570Y-109197764D01*
X130811227Y-108952764D01*
X130926250Y-108722780D01*
X130986747Y-108537306D01*
X130984825Y-108425833D01*
X130912593Y-108417857D01*
X130846145Y-108463136D01*
X130726443Y-108605318D01*
X130585628Y-108829609D01*
X130538434Y-108918002D01*
X130372248Y-109196090D01*
X130140015Y-109523911D01*
X129883212Y-109848155D01*
X129643315Y-110115510D01*
X129513027Y-110236000D01*
X129334437Y-110384349D01*
X129137901Y-110554076D01*
X128788197Y-110768740D01*
X128336150Y-110913509D01*
X127836618Y-110981429D01*
X127344459Y-110965547D01*
X126914530Y-110858908D01*
X126873000Y-110841162D01*
X126678115Y-110745424D01*
X126577464Y-110647863D01*
X126539915Y-110492254D01*
X126534334Y-110229549D01*
X126527289Y-109960831D01*
X126489108Y-109807422D01*
X126394217Y-109715390D01*
X126259167Y-109649220D01*
X126055002Y-109533572D01*
X125999796Y-109406740D01*
X126084997Y-109227199D01*
X126153334Y-109135333D01*
X126270603Y-108958150D01*
X126320776Y-108828418D01*
X126320784Y-108828042D01*
X126380975Y-108709582D01*
X126532498Y-108523855D01*
X126735990Y-108311265D01*
X126952091Y-108112216D01*
X127141438Y-107967114D01*
X127184289Y-107941661D01*
X127447518Y-107839573D01*
X127818981Y-107744120D01*
X128237667Y-107667466D01*
X128642568Y-107621779D01*
X128825950Y-107614307D01*
X129260732Y-107637184D01*
X129799437Y-107705866D01*
X130385260Y-107812864D01*
X130471334Y-107831243D01*
X130610433Y-107844655D01*
X130598119Y-107790676D01*
X130477652Y-107736951D01*
X130237672Y-107674834D01*
X129926735Y-107616573D01*
X129878452Y-107609145D01*
X129549887Y-107526667D01*
X131995334Y-107526667D01*
X132045951Y-107606289D01*
X132188428Y-107556095D01*
X132296651Y-107477421D01*
X132404385Y-107383385D01*
X132380408Y-107370884D01*
X132305909Y-107392755D01*
X132136213Y-107434780D01*
X132073075Y-107442000D01*
X131997546Y-107506634D01*
X131995334Y-107526667D01*
X129549887Y-107526667D01*
X129079177Y-107408507D01*
X128267117Y-107042858D01*
X127690581Y-106688996D01*
X127364175Y-106434860D01*
X127150447Y-106172116D01*
X127027395Y-105855567D01*
X126973019Y-105440018D01*
X126964938Y-105198333D01*
X126957667Y-104690333D01*
X127296334Y-104648000D01*
X127509622Y-104612338D01*
X127606929Y-104541310D01*
X127633775Y-104381431D01*
X127635000Y-104250088D01*
X127661127Y-103968818D01*
X127755642Y-103796289D01*
X127942748Y-103719713D01*
X128246649Y-103726306D01*
X128538313Y-103772892D01*
X129123411Y-103935830D01*
X129611281Y-104178293D01*
X129972044Y-104484588D01*
X130029148Y-104555942D01*
X130222048Y-104854550D01*
X130434443Y-105244592D01*
X130650266Y-105688837D01*
X130853445Y-106150053D01*
X131027912Y-106591010D01*
X131157597Y-106974476D01*
X131226432Y-107263219D01*
X131233334Y-107345916D01*
X131257405Y-107427902D01*
X131333810Y-107375390D01*
X131375837Y-107280251D01*
X131361792Y-107109629D01*
X131287155Y-106830053D01*
X131240320Y-106683261D01*
X131143936Y-106363639D01*
X131074489Y-106084472D01*
X131046387Y-105904003D01*
X131046325Y-105898971D01*
X131063369Y-105507563D01*
X131109042Y-105080749D01*
X131175000Y-104671617D01*
X131252901Y-104333256D01*
X131322753Y-104140000D01*
X131444944Y-103958465D01*
X131645161Y-103720758D01*
X131891612Y-103458199D01*
X132152506Y-103202110D01*
X132396051Y-102983812D01*
X132590455Y-102834627D01*
X132697760Y-102785333D01*
X132841325Y-102852688D01*
G37*
G36*
X206382703Y-107324349D02*
G01*
X206675704Y-107495714D01*
X207082321Y-107774778D01*
X207372899Y-107986310D01*
X207667706Y-108214582D01*
X207862347Y-108404664D01*
X207999240Y-108609707D01*
X208120804Y-108882863D01*
X208151385Y-108961773D01*
X208279431Y-109381936D01*
X208349079Y-109796158D01*
X208360356Y-110169623D01*
X208313289Y-110467517D01*
X208207903Y-110655025D01*
X208150061Y-110691079D01*
X208009515Y-110673761D01*
X207829343Y-110571342D01*
X207827549Y-110569936D01*
X207647981Y-110440020D01*
X207564266Y-110433291D01*
X207544224Y-110562118D01*
X207547850Y-110677433D01*
X207520822Y-110900155D01*
X207418871Y-110976755D01*
X207251438Y-110907933D01*
X207027962Y-110694387D01*
X206978073Y-110635228D01*
X206724668Y-110272712D01*
X206538832Y-109871166D01*
X206409494Y-109394663D01*
X206325586Y-108807272D01*
X206294262Y-108415667D01*
X206260950Y-108094563D01*
X206209552Y-107806944D01*
X206170276Y-107669321D01*
X206097105Y-107433167D01*
X206102233Y-107295403D01*
X206194489Y-107258354D01*
X206382703Y-107324349D01*
G37*
G36*
X177393372Y-105678384D02*
G01*
X177605713Y-105709135D01*
X177793136Y-105771754D01*
X177909419Y-105824822D01*
X178381111Y-106110275D01*
X178789687Y-106466213D01*
X179088857Y-106850457D01*
X179142198Y-106948152D01*
X179250394Y-107231966D01*
X179232889Y-107405760D01*
X179084081Y-107478884D01*
X178831924Y-107466145D01*
X178519667Y-107417971D01*
X178710167Y-107625943D01*
X178875193Y-107855830D01*
X178892624Y-108014706D01*
X178770771Y-108097646D01*
X178517945Y-108099721D01*
X178142458Y-108016006D01*
X178082765Y-107997845D01*
X177807720Y-107893463D01*
X177542366Y-107747023D01*
X177257519Y-107536857D01*
X176923992Y-107241295D01*
X176512599Y-106838667D01*
X176487667Y-106813524D01*
X176199860Y-106529480D01*
X175940448Y-106285275D01*
X175740906Y-106109848D01*
X175643031Y-106037053D01*
X175530965Y-105963536D01*
X175556847Y-105905347D01*
X175670069Y-105840432D01*
X175836758Y-105791046D01*
X176124689Y-105743910D01*
X176485839Y-105705962D01*
X176702392Y-105691297D01*
X177108227Y-105674204D01*
X177393372Y-105678384D01*
G37*
G36*
X100284528Y-95909352D02*
G01*
X100508612Y-95968230D01*
X100648168Y-96048846D01*
X100668667Y-96094054D01*
X100740511Y-96163029D01*
X100887549Y-96217912D01*
X101122661Y-96319203D01*
X101266066Y-96421570D01*
X101384604Y-96580347D01*
X101536436Y-96848044D01*
X101697646Y-97174203D01*
X101844316Y-97508369D01*
X101952532Y-97800084D01*
X101993237Y-97955675D01*
X102033175Y-98152338D01*
X102099037Y-98442900D01*
X102160751Y-98699753D01*
X102224762Y-99031724D01*
X102255759Y-99345279D01*
X102251380Y-99524430D01*
X102243599Y-99705131D01*
X102274839Y-99777462D01*
X102286750Y-99773847D01*
X102354982Y-99657674D01*
X102362000Y-99599642D01*
X102421757Y-99434048D01*
X102582912Y-99187837D01*
X102818292Y-98890592D01*
X103100725Y-98571891D01*
X103403037Y-98261317D01*
X103698056Y-97988448D01*
X103958608Y-97782865D01*
X104116045Y-97690187D01*
X104407483Y-97590763D01*
X104780423Y-97506293D01*
X105186894Y-97442663D01*
X105578924Y-97405760D01*
X105908543Y-97401472D01*
X106127779Y-97435684D01*
X106142051Y-97441571D01*
X106263511Y-97521865D01*
X106322960Y-97652994D01*
X106340915Y-97888075D01*
X106341334Y-97957518D01*
X106350300Y-98212336D01*
X106388062Y-98339667D01*
X106470913Y-98380897D01*
X106508715Y-98382667D01*
X106703173Y-98457985D01*
X106843978Y-98650659D01*
X106903778Y-98910765D01*
X106889547Y-99077726D01*
X106685193Y-99675703D01*
X106355970Y-100188060D01*
X105922143Y-100593705D01*
X105403977Y-100871547D01*
X105075962Y-100965190D01*
X104929912Y-100997136D01*
X104674904Y-101055203D01*
X104374001Y-101124987D01*
X103604676Y-101223331D01*
X103167501Y-101213498D01*
X102823387Y-101199767D01*
X102604127Y-101213996D01*
X102531334Y-101252323D01*
X102579736Y-101358225D01*
X102740305Y-101419299D01*
X103036080Y-101442239D01*
X103185654Y-101442386D01*
X103436307Y-101460477D01*
X103771303Y-101513202D01*
X104153639Y-101591213D01*
X104546314Y-101685162D01*
X104912324Y-101785701D01*
X105214667Y-101883481D01*
X105416341Y-101969154D01*
X105480133Y-102022064D01*
X105577608Y-102100615D01*
X105628478Y-102108000D01*
X105824584Y-102182048D01*
X106056937Y-102382076D01*
X106303961Y-102674909D01*
X106544081Y-103027369D01*
X106755721Y-103406282D01*
X106917308Y-103778473D01*
X107007265Y-104110765D01*
X107018667Y-104245659D01*
X106993486Y-104459040D01*
X106895540Y-104581990D01*
X106691224Y-104637248D01*
X106424072Y-104648000D01*
X106166055Y-104668175D01*
X106060312Y-104743014D01*
X106093071Y-104893987D01*
X106176263Y-105034282D01*
X106286305Y-105216702D01*
X106339810Y-105335778D01*
X106340776Y-105343521D01*
X106259331Y-105447932D01*
X106020494Y-105534912D01*
X105635614Y-105601214D01*
X105340615Y-105629621D01*
X104978805Y-105649813D01*
X104735522Y-105640884D01*
X104561595Y-105597161D01*
X104424611Y-105523951D01*
X103759889Y-105019534D01*
X103198157Y-104438984D01*
X102758360Y-103807169D01*
X102459438Y-103148959D01*
X102370849Y-102827667D01*
X102264300Y-102433427D01*
X102140732Y-102138308D01*
X102013069Y-101968906D01*
X101938832Y-101938667D01*
X101895366Y-102009234D01*
X101909191Y-102191399D01*
X101971513Y-102440854D01*
X102073536Y-102713289D01*
X102106891Y-102785333D01*
X102207932Y-103076475D01*
X102297053Y-103483062D01*
X102366897Y-103951270D01*
X102410106Y-104427273D01*
X102419321Y-104857244D01*
X102411236Y-105011735D01*
X102333187Y-105433594D01*
X102180574Y-105885805D01*
X101980044Y-106303670D01*
X101758243Y-106622491D01*
X101739534Y-106642666D01*
X101560759Y-106799124D01*
X101313446Y-106978666D01*
X101045149Y-107151152D01*
X100803422Y-107286441D01*
X100635822Y-107354393D01*
X100611932Y-107357333D01*
X100503310Y-107288945D01*
X100382421Y-107122051D01*
X100370435Y-107099662D01*
X100169248Y-106828203D01*
X99928650Y-106720970D01*
X99643767Y-106776416D01*
X99533034Y-106833768D01*
X99337817Y-106927288D01*
X99208423Y-106949379D01*
X99188854Y-106936999D01*
X99114531Y-106764799D01*
X99022760Y-106481130D01*
X98928258Y-106140772D01*
X98845740Y-105798508D01*
X98789924Y-105509119D01*
X98776757Y-105402951D01*
X98781372Y-105074596D01*
X98832683Y-104744228D01*
X98847309Y-104690333D01*
X99031033Y-104254477D01*
X99322896Y-103766276D01*
X99690430Y-103267747D01*
X100101172Y-102800909D01*
X100522656Y-102407780D01*
X100735957Y-102245974D01*
X100964518Y-102077366D01*
X101143968Y-101925875D01*
X101195926Y-101872279D01*
X101240404Y-101793349D01*
X101171824Y-101808931D01*
X101008975Y-101907284D01*
X100770649Y-102076666D01*
X100475635Y-102305337D01*
X100383762Y-102379755D01*
X99865249Y-102754636D01*
X99303344Y-103055965D01*
X98647343Y-103308891D01*
X98287084Y-103419643D01*
X97835368Y-103530563D01*
X97479862Y-103559332D01*
X97164554Y-103497974D01*
X96833431Y-103338511D01*
X96580454Y-103176623D01*
X96243771Y-102938022D01*
X96040892Y-102758058D01*
X95958725Y-102611138D01*
X95984176Y-102471666D01*
X96104154Y-102314048D01*
X96126894Y-102289969D01*
X96273883Y-102118352D01*
X96310853Y-101997948D01*
X96255797Y-101869129D01*
X96254509Y-101867063D01*
X96101024Y-101718723D01*
X95973522Y-101667007D01*
X95805911Y-101582663D01*
X95756169Y-101414193D01*
X95815010Y-101189298D01*
X95973148Y-100935677D01*
X96221297Y-100681034D01*
X96333769Y-100592321D01*
X96877192Y-100249741D01*
X97393892Y-100033289D01*
X97859007Y-99952717D01*
X97959334Y-99954628D01*
X98473202Y-100019958D01*
X99074010Y-100148597D01*
X99700829Y-100323193D01*
X100292730Y-100526400D01*
X100788783Y-100740866D01*
X100871777Y-100783932D01*
X101128804Y-100920983D01*
X101270666Y-100986274D01*
X101331578Y-100987793D01*
X101345753Y-100933526D01*
X101346000Y-100894640D01*
X101331321Y-100830202D01*
X101270377Y-100765017D01*
X101137805Y-100684578D01*
X100908245Y-100574377D01*
X100714573Y-100489364D01*
X101938667Y-100489364D01*
X101961561Y-100554050D01*
X102043418Y-100477361D01*
X102062974Y-100452015D01*
X102161288Y-100272525D01*
X102187281Y-100160667D01*
X102164387Y-100095981D01*
X102082530Y-100172670D01*
X102062974Y-100198015D01*
X101964661Y-100377506D01*
X101938667Y-100489364D01*
X100714573Y-100489364D01*
X100556336Y-100419905D01*
X100395856Y-100351109D01*
X100001505Y-100154100D01*
X99724744Y-99940834D01*
X99582437Y-99774456D01*
X99370789Y-99514050D01*
X99139831Y-99269971D01*
X99075487Y-99210548D01*
X98827153Y-98948086D01*
X98658462Y-98647740D01*
X98551900Y-98266279D01*
X98490429Y-97766566D01*
X98453873Y-97244790D01*
X98442443Y-96868116D01*
X98461150Y-96613509D01*
X98515002Y-96457937D01*
X98609008Y-96378366D01*
X98748177Y-96351763D01*
X98798346Y-96350667D01*
X98994864Y-96376500D01*
X99102334Y-96435333D01*
X99217772Y-96520258D01*
X99340714Y-96455856D01*
X99441859Y-96258085D01*
X99444658Y-96248899D01*
X99554000Y-96034207D01*
X99753939Y-95921085D01*
X99807869Y-95905988D01*
X100032190Y-95884507D01*
X100284528Y-95909352D01*
G37*
G36*
X161154791Y-96364863D02*
G01*
X161318199Y-96425117D01*
X161498000Y-96557927D01*
X161740304Y-96789793D01*
X161759625Y-96809235D01*
X161984016Y-97043005D01*
X162134342Y-97235197D01*
X162231501Y-97433763D01*
X162296394Y-97686656D01*
X162349921Y-98041829D01*
X162371597Y-98213333D01*
X162390504Y-98547209D01*
X162382249Y-98966533D01*
X162351391Y-99419606D01*
X162302490Y-99854728D01*
X162240105Y-100220198D01*
X162174217Y-100451693D01*
X162155763Y-100533011D01*
X162218953Y-100521497D01*
X162385883Y-100410488D01*
X162439022Y-100371832D01*
X162690237Y-100180747D01*
X162921388Y-99993972D01*
X162983334Y-99940713D01*
X163372694Y-99672155D01*
X163853549Y-99450045D01*
X164348698Y-99306188D01*
X164608074Y-99271376D01*
X164990191Y-99278456D01*
X165432408Y-99331992D01*
X165868015Y-99420037D01*
X166230305Y-99530642D01*
X166348834Y-99583138D01*
X166497044Y-99736926D01*
X166538763Y-99944830D01*
X166464183Y-100122566D01*
X166378987Y-100265982D01*
X166335967Y-100379355D01*
X166336788Y-100532822D01*
X166474389Y-100642654D01*
X166495784Y-100652707D01*
X166671248Y-100810784D01*
X166712992Y-101049821D01*
X166622619Y-101348987D01*
X166417661Y-101667644D01*
X166074577Y-102050979D01*
X165728604Y-102320580D01*
X165344017Y-102489991D01*
X164885087Y-102572754D01*
X164316088Y-102582414D01*
X164041667Y-102568322D01*
X163524105Y-102516897D01*
X163097393Y-102439359D01*
X162831538Y-102355948D01*
X162529870Y-102240698D01*
X162254302Y-102161141D01*
X162039966Y-102123986D01*
X161921997Y-102135940D01*
X161918130Y-102181550D01*
X162061590Y-102310039D01*
X162304263Y-102441162D01*
X162579864Y-102541718D01*
X162686258Y-102566269D01*
X162877893Y-102637964D01*
X163163007Y-102788224D01*
X163501626Y-102991390D01*
X163853773Y-103221802D01*
X164179470Y-103453800D01*
X164438743Y-103661725D01*
X164535300Y-103753123D01*
X164909286Y-104264565D01*
X165149196Y-104875748D01*
X165247510Y-105498433D01*
X165257353Y-105944403D01*
X165220335Y-106247644D01*
X165187130Y-106336730D01*
X165118657Y-106437971D01*
X165025134Y-106486402D01*
X164868445Y-106483927D01*
X164610475Y-106432449D01*
X164383390Y-106376868D01*
X164155025Y-106319552D01*
X164213793Y-106711443D01*
X164272560Y-107103333D01*
X163903114Y-107102328D01*
X163443319Y-107060660D01*
X163002831Y-106949536D01*
X162636234Y-106786097D01*
X162448637Y-106645606D01*
X162301091Y-106481092D01*
X162224398Y-106362445D01*
X162221334Y-106347852D01*
X162163783Y-106239561D01*
X162103849Y-106179897D01*
X161972405Y-106011514D01*
X161817739Y-105724931D01*
X161659330Y-105365808D01*
X161516659Y-104979805D01*
X161409206Y-104612583D01*
X161381547Y-104486878D01*
X161327273Y-104056097D01*
X161319735Y-103621971D01*
X161331403Y-103470685D01*
X161344118Y-103184970D01*
X161322957Y-102912537D01*
X161276170Y-102692885D01*
X161212008Y-102565515D01*
X161142437Y-102566007D01*
X161115173Y-102671824D01*
X161092297Y-102904398D01*
X161077443Y-103221155D01*
X161074574Y-103360916D01*
X161049367Y-104052543D01*
X160989654Y-104616097D01*
X160888918Y-105090511D01*
X160740648Y-105514716D01*
X160697932Y-105611920D01*
X160343342Y-106214590D01*
X159893914Y-106680258D01*
X159355062Y-107004595D01*
X158733885Y-107183005D01*
X158482031Y-107216128D01*
X158345165Y-107202753D01*
X158272029Y-107128572D01*
X158235489Y-107043873D01*
X158174921Y-106840364D01*
X158157334Y-106718773D01*
X158083313Y-106554007D01*
X157901603Y-106437051D01*
X157672727Y-106396289D01*
X157528250Y-106423750D01*
X157342377Y-106486122D01*
X157226621Y-106484338D01*
X157165680Y-106392865D01*
X157144256Y-106186167D01*
X157147047Y-105838708D01*
X157148208Y-105789470D01*
X157180131Y-105237479D01*
X157259121Y-104804685D01*
X157405295Y-104443111D01*
X157638767Y-104104778D01*
X157979650Y-103741711D01*
X158025260Y-103697538D01*
X158300353Y-103443677D01*
X158547481Y-103234865D01*
X158730895Y-103100415D01*
X158792334Y-103068567D01*
X158969657Y-102989939D01*
X159205052Y-102859748D01*
X159277484Y-102815297D01*
X159497637Y-102692328D01*
X159672154Y-102622225D01*
X159711222Y-102616000D01*
X159847938Y-102586304D01*
X160053388Y-102512149D01*
X160277387Y-102415932D01*
X160469749Y-102320051D01*
X160580290Y-102246903D01*
X160588175Y-102224619D01*
X160492493Y-102226966D01*
X160299559Y-102279373D01*
X160221305Y-102306632D01*
X159689015Y-102501799D01*
X159282397Y-102646826D01*
X158967853Y-102749069D01*
X158711781Y-102815882D01*
X158480581Y-102854619D01*
X158240651Y-102872635D01*
X157958393Y-102877286D01*
X157619994Y-102876020D01*
X157099859Y-102863587D01*
X156711843Y-102822427D01*
X156419323Y-102737945D01*
X156185675Y-102595544D01*
X155974277Y-102380628D01*
X155799177Y-102150333D01*
X155578979Y-101834883D01*
X155454828Y-101622738D01*
X155421561Y-101481444D01*
X155474013Y-101378549D01*
X155607019Y-101281602D01*
X155656241Y-101252136D01*
X155880187Y-101067188D01*
X155950100Y-100878715D01*
X155861806Y-100706016D01*
X155786667Y-100649018D01*
X155645965Y-100475135D01*
X155634463Y-100247830D01*
X155753718Y-100024953D01*
X155769412Y-100008588D01*
X155924276Y-99905884D01*
X156185558Y-99781507D01*
X156497351Y-99662001D01*
X156504527Y-99659569D01*
X157163131Y-99506855D01*
X157769104Y-99513244D01*
X158329104Y-99679227D01*
X158577290Y-99811877D01*
X158817018Y-99953183D01*
X158998901Y-100049028D01*
X159071051Y-100076000D01*
X159181231Y-100127226D01*
X159386215Y-100264046D01*
X159652826Y-100461167D01*
X159947887Y-100693300D01*
X160238224Y-100935153D01*
X160472397Y-101144274D01*
X160718530Y-101358440D01*
X160880727Y-101465942D01*
X160947930Y-101462232D01*
X160909079Y-101342761D01*
X160895594Y-101318370D01*
X160802280Y-101207235D01*
X160784916Y-101189789D01*
X161628667Y-101189789D01*
X161660555Y-101256719D01*
X161767111Y-101192069D01*
X161834286Y-101128286D01*
X161945447Y-100982770D01*
X161959374Y-100894959D01*
X161884022Y-100900657D01*
X161798000Y-100965000D01*
X161671906Y-101103033D01*
X161628667Y-101189789D01*
X160784916Y-101189789D01*
X160615400Y-101019477D01*
X160369468Y-100789245D01*
X160274000Y-100703322D01*
X160026386Y-100478085D01*
X159835663Y-100295575D01*
X159731165Y-100184257D01*
X159720056Y-100165802D01*
X159673545Y-99975625D01*
X159572626Y-99706508D01*
X159446044Y-99427024D01*
X159322544Y-99205744D01*
X159309748Y-99187000D01*
X159201772Y-98985189D01*
X159147927Y-98735886D01*
X159135164Y-98382667D01*
X159146217Y-98058844D01*
X159170708Y-97775330D01*
X159197235Y-97620667D01*
X159259471Y-97373625D01*
X159309102Y-97155000D01*
X159391150Y-96883362D01*
X159485990Y-96660525D01*
X159597404Y-96495601D01*
X159731598Y-96457595D01*
X159835626Y-96476622D01*
X160066189Y-96569954D01*
X160211019Y-96667188D01*
X160324318Y-96757182D01*
X160398886Y-96743790D01*
X160485412Y-96606306D01*
X160519511Y-96541167D01*
X160629567Y-96410327D01*
X160814108Y-96356602D01*
X160961665Y-96350667D01*
X161154791Y-96364863D01*
G37*
G36*
X95914247Y-68939211D02*
G01*
X96010225Y-68989345D01*
X96012000Y-69000013D01*
X95986504Y-69111782D01*
X95916995Y-69349524D01*
X95813943Y-69678883D01*
X95687818Y-70065504D01*
X95681460Y-70084624D01*
X95394166Y-70952323D01*
X95124014Y-71777126D01*
X94875493Y-72544726D01*
X94653091Y-73240812D01*
X94461295Y-73851077D01*
X94304591Y-74361211D01*
X94187469Y-74756906D01*
X94114416Y-75023853D01*
X94089919Y-75147743D01*
X94091465Y-75154354D01*
X94192170Y-75163074D01*
X94404470Y-75138491D01*
X94591138Y-75104287D01*
X94911143Y-75057275D01*
X95220999Y-75064031D01*
X95602259Y-75126851D01*
X95635019Y-75133679D01*
X95951217Y-75203747D01*
X96215641Y-75268621D01*
X96371333Y-75314322D01*
X96371834Y-75314514D01*
X96495224Y-75439749D01*
X96501132Y-75653756D01*
X96390567Y-75924340D01*
X96350667Y-75988333D01*
X96220134Y-76205504D01*
X96198702Y-76320968D01*
X96289168Y-76364826D01*
X96386075Y-76369333D01*
X96653247Y-76392578D01*
X96804223Y-76474951D01*
X96842938Y-76635409D01*
X96773324Y-76892911D01*
X96599316Y-77266414D01*
X96579986Y-77303831D01*
X96396515Y-77620979D01*
X96204577Y-77849289D01*
X95960967Y-78022509D01*
X95622475Y-78174384D01*
X95334667Y-78276446D01*
X95014618Y-78352030D01*
X94596197Y-78407785D01*
X94139608Y-78440100D01*
X93705057Y-78445364D01*
X93352749Y-78419968D01*
X93252144Y-78401333D01*
X93109085Y-78400688D01*
X93066569Y-78443667D01*
X93096367Y-78516877D01*
X93214292Y-78608375D01*
X93443498Y-78732525D01*
X93807137Y-78903691D01*
X93810667Y-78905296D01*
X94407492Y-79252070D01*
X94895379Y-79690192D01*
X95261081Y-80198587D01*
X95491352Y-80756182D01*
X95572944Y-81341906D01*
X95549245Y-81671098D01*
X95493625Y-82042000D01*
X95130935Y-82042000D01*
X94791489Y-82096712D01*
X94579132Y-82262564D01*
X94491002Y-82542128D01*
X94488000Y-82620167D01*
X94478214Y-82804826D01*
X94454461Y-82888261D01*
X94452505Y-82888666D01*
X94263692Y-82859094D01*
X93974227Y-82782412D01*
X93639749Y-82676678D01*
X93315898Y-82559946D01*
X93058314Y-82450273D01*
X92988036Y-82413430D01*
X92733486Y-82233035D01*
X92492824Y-82006997D01*
X92304659Y-81777861D01*
X92207596Y-81588176D01*
X92202000Y-81547175D01*
X92147201Y-81454640D01*
X92120919Y-81449333D01*
X92058588Y-81524237D01*
X91970880Y-81721322D01*
X91876025Y-81999148D01*
X91869503Y-82020833D01*
X91788205Y-82290440D01*
X91668677Y-82682701D01*
X91522885Y-83158549D01*
X91362795Y-83678915D01*
X91227727Y-84116333D01*
X91076352Y-84608654D01*
X90940724Y-85055383D01*
X90829567Y-85427328D01*
X90751609Y-85695297D01*
X90715887Y-85828622D01*
X90653714Y-86052038D01*
X90583889Y-86251955D01*
X90505375Y-86474999D01*
X90411563Y-86770373D01*
X90370008Y-86910333D01*
X90254622Y-87313406D01*
X90183159Y-87584421D01*
X90152340Y-87753942D01*
X90158882Y-87852532D01*
X90199505Y-87910756D01*
X90258263Y-87951264D01*
X90384533Y-88088918D01*
X90533815Y-88332943D01*
X90678943Y-88627980D01*
X90792753Y-88918672D01*
X90848079Y-89149660D01*
X90848462Y-89154000D01*
X90855597Y-89398554D01*
X90801611Y-89527614D01*
X90653180Y-89592720D01*
X90551000Y-89614080D01*
X90340328Y-89682750D01*
X90263189Y-89805249D01*
X90307216Y-90014777D01*
X90357455Y-90133629D01*
X90414081Y-90309236D01*
X90359598Y-90432537D01*
X90263409Y-90518613D01*
X90002351Y-90641797D01*
X89716120Y-90679296D01*
X89474307Y-90694233D01*
X89303015Y-90729848D01*
X89276929Y-90742796D01*
X89210316Y-90851307D01*
X89122067Y-91074965D01*
X89034238Y-91355333D01*
X88934189Y-91697687D01*
X88831581Y-92024808D01*
X88763829Y-92223167D01*
X88700129Y-92421449D01*
X88682061Y-92532247D01*
X88688333Y-92540667D01*
X88688714Y-92610811D01*
X88639951Y-92786124D01*
X88615113Y-92858167D01*
X88456946Y-93315725D01*
X88336690Y-93699792D01*
X88267016Y-93969772D01*
X88265000Y-93980000D01*
X88213797Y-94186605D01*
X88140440Y-94428162D01*
X88066272Y-94662043D01*
X87961014Y-95009669D01*
X87831869Y-95445787D01*
X87686041Y-95945143D01*
X87530737Y-96482487D01*
X87373160Y-97032566D01*
X87220515Y-97570127D01*
X87080006Y-98069918D01*
X86958838Y-98506687D01*
X86864215Y-98855180D01*
X86803343Y-99090147D01*
X86783334Y-99184888D01*
X86804179Y-99255994D01*
X86893370Y-99252513D01*
X87090888Y-99172295D01*
X87100834Y-99167809D01*
X87336445Y-99050960D01*
X87519044Y-98942723D01*
X87545334Y-98923422D01*
X87764824Y-98807799D01*
X88096473Y-98699709D01*
X88483228Y-98613052D01*
X88868034Y-98561725D01*
X89063534Y-98553601D01*
X89376901Y-98577695D01*
X89705251Y-98657682D01*
X90103886Y-98808426D01*
X90254667Y-98873744D01*
X90645453Y-99060907D01*
X90888963Y-99223205D01*
X90999923Y-99385063D01*
X90993057Y-99570911D01*
X90883090Y-99805174D01*
X90849594Y-99860675D01*
X90739868Y-100048390D01*
X90718461Y-100146889D01*
X90783029Y-100209974D01*
X90833167Y-100237752D01*
X91010288Y-100409035D01*
X91043895Y-100642863D01*
X90939776Y-100921887D01*
X90703718Y-101228758D01*
X90415791Y-101488975D01*
X89890531Y-101807370D01*
X89325596Y-101961277D01*
X88717187Y-101951651D01*
X88629668Y-101937547D01*
X87902177Y-101782483D01*
X87294071Y-101592553D01*
X86756469Y-101351871D01*
X86648197Y-101293527D01*
X86374013Y-101149854D01*
X86149193Y-101047122D01*
X86021946Y-101007339D01*
X86021241Y-101007333D01*
X85967243Y-101046315D01*
X86029642Y-101145810D01*
X86179376Y-101279646D01*
X86387383Y-101421648D01*
X86613564Y-101540757D01*
X86864109Y-101692856D01*
X87193749Y-101953535D01*
X87574729Y-102300005D01*
X87758634Y-102480965D01*
X88094248Y-102826718D01*
X88329099Y-103092281D01*
X88487811Y-103311270D01*
X88595007Y-103517301D01*
X88669238Y-103724108D01*
X88762974Y-104137308D01*
X88806844Y-104578118D01*
X88803996Y-105011423D01*
X88757578Y-105402109D01*
X88670735Y-105715060D01*
X88546618Y-105915162D01*
X88468561Y-105962906D01*
X88303877Y-105955759D01*
X88069927Y-105880716D01*
X87976855Y-105837510D01*
X87762783Y-105733032D01*
X87618187Y-105671210D01*
X87591040Y-105664000D01*
X87563772Y-105739735D01*
X87547423Y-105931338D01*
X87545334Y-106045000D01*
X87529757Y-106278961D01*
X87459799Y-106397998D01*
X87300623Y-106422560D01*
X87017389Y-106373101D01*
X86995000Y-106368071D01*
X86823245Y-106315620D01*
X86564215Y-106222092D01*
X86379733Y-106150052D01*
X86066170Y-105994438D01*
X85852130Y-105801295D01*
X85722904Y-105610452D01*
X85512009Y-105250584D01*
X85533837Y-100144459D01*
X85555667Y-95038333D01*
X85754779Y-95010149D01*
X86051258Y-95012859D01*
X86304806Y-95128647D01*
X86553571Y-95378588D01*
X86647917Y-95503536D01*
X86869301Y-95783288D01*
X87022356Y-95911837D01*
X87105753Y-95888390D01*
X87122000Y-95786491D01*
X87145310Y-95672195D01*
X87211254Y-95417080D01*
X87313850Y-95042531D01*
X87447119Y-94569933D01*
X87605078Y-94020674D01*
X87781748Y-93416137D01*
X87841667Y-93213120D01*
X88022743Y-92598046D01*
X88187115Y-92033910D01*
X88328837Y-91541579D01*
X88441965Y-91141921D01*
X88520553Y-90855803D01*
X88558656Y-90704094D01*
X88561334Y-90686962D01*
X88493482Y-90602560D01*
X88441959Y-90593333D01*
X88328728Y-90533415D01*
X88132588Y-90371735D01*
X87880471Y-90135405D01*
X87599310Y-89851537D01*
X87316039Y-89547243D01*
X87057590Y-89249634D01*
X86867033Y-89007956D01*
X86665229Y-88709740D01*
X86479052Y-88395849D01*
X86401366Y-88244805D01*
X86271829Y-88005964D01*
X86171224Y-87891433D01*
X86113922Y-87914030D01*
X86106000Y-87981361D01*
X86145982Y-88097317D01*
X86251719Y-88315160D01*
X86401895Y-88591543D01*
X86431513Y-88643317D01*
X86658164Y-89115952D01*
X86804259Y-89626364D01*
X86879922Y-90219823D01*
X86896464Y-90722394D01*
X86878320Y-91000149D01*
X86804573Y-91240198D01*
X86650249Y-91514144D01*
X86586783Y-91610264D01*
X86426908Y-91860828D01*
X86314546Y-92062067D01*
X86275334Y-92164944D01*
X86218643Y-92282001D01*
X86081334Y-92439318D01*
X86072645Y-92447566D01*
X85916016Y-92571034D01*
X85793395Y-92579206D01*
X85691645Y-92526624D01*
X85654462Y-92501161D01*
X85622845Y-92466221D01*
X85596342Y-92408824D01*
X85574503Y-92315990D01*
X85556875Y-92174738D01*
X85543008Y-91972086D01*
X85532450Y-91695054D01*
X85524751Y-91330662D01*
X85519458Y-90865928D01*
X85516122Y-90287872D01*
X85514290Y-89583512D01*
X85513512Y-88739869D01*
X85513336Y-87743961D01*
X85513334Y-87396734D01*
X85513334Y-87343091D01*
X86722202Y-87343091D01*
X86823169Y-87363816D01*
X87056320Y-87379772D01*
X87384530Y-87389133D01*
X87688814Y-87390654D01*
X88125601Y-87399530D01*
X88534417Y-87427111D01*
X88860014Y-87468881D01*
X88984667Y-87496573D01*
X89226561Y-87559637D01*
X89400112Y-87592473D01*
X89439806Y-87593630D01*
X89502198Y-87512149D01*
X89588973Y-87313841D01*
X89664437Y-87094185D01*
X89814928Y-86607796D01*
X89632631Y-86663687D01*
X89441584Y-86735612D01*
X89188398Y-86846532D01*
X89111667Y-86882763D01*
X88903080Y-86961775D01*
X88600065Y-87051397D01*
X88251750Y-87140108D01*
X87907268Y-87216387D01*
X87615748Y-87268709D01*
X87426321Y-87285554D01*
X87403404Y-87283386D01*
X87238232Y-87272522D01*
X87031148Y-87279624D01*
X86841722Y-87299469D01*
X86729525Y-87326838D01*
X86722202Y-87343091D01*
X85513334Y-87343091D01*
X85513334Y-82378201D01*
X85827534Y-82577054D01*
X86060705Y-82762774D01*
X86245711Y-82974483D01*
X86275304Y-83022787D01*
X86479678Y-83543968D01*
X86595680Y-84154948D01*
X86620072Y-84799148D01*
X86549618Y-85419990D01*
X86435815Y-85827617D01*
X86304860Y-86219552D01*
X86225686Y-86540912D01*
X86202909Y-86765015D01*
X86241146Y-86865181D01*
X86255799Y-86868000D01*
X86345979Y-86790475D01*
X86446235Y-86582343D01*
X86540288Y-86280264D01*
X86566956Y-86167277D01*
X86676466Y-85835033D01*
X86862982Y-85430221D01*
X87095027Y-85010293D01*
X87341121Y-84632699D01*
X87547484Y-84377716D01*
X88053017Y-83953173D01*
X88605715Y-83685920D01*
X89194493Y-83580095D01*
X89620232Y-83603992D01*
X89853677Y-83647293D01*
X89964556Y-83712475D01*
X89998397Y-83841871D01*
X90000667Y-83957754D01*
X90036362Y-84260674D01*
X90131107Y-84481547D01*
X90266390Y-84580219D01*
X90288476Y-84582000D01*
X90378310Y-84508267D01*
X90490712Y-84318592D01*
X90603191Y-84060262D01*
X90693258Y-83780565D01*
X90715988Y-83683143D01*
X90755076Y-83537779D01*
X90834180Y-83274266D01*
X90940282Y-82935268D01*
X91017715Y-82694178D01*
X91132146Y-82337024D01*
X91226068Y-82035560D01*
X91287405Y-81829032D01*
X91304337Y-81762844D01*
X91338758Y-81636149D01*
X91412719Y-81399212D01*
X91510624Y-81101900D01*
X91516698Y-81083885D01*
X91631605Y-80686518D01*
X91671741Y-80372377D01*
X91655250Y-80131385D01*
X91598473Y-79889528D01*
X91533170Y-79771580D01*
X91481575Y-79786657D01*
X91465922Y-79943872D01*
X91475826Y-80057834D01*
X91474676Y-80355222D01*
X91422856Y-80758989D01*
X91332361Y-81218202D01*
X91215186Y-81681927D01*
X91083325Y-82099232D01*
X90948773Y-82419183D01*
X90899707Y-82504225D01*
X90746659Y-82649007D01*
X90484589Y-82818473D01*
X90165969Y-82986377D01*
X89843270Y-83126477D01*
X89568965Y-83212528D01*
X89453944Y-83227333D01*
X89306305Y-83196585D01*
X89225227Y-83073160D01*
X89189479Y-82924240D01*
X89102347Y-82669830D01*
X88960055Y-82573685D01*
X88752616Y-82630874D01*
X88681739Y-82673535D01*
X88513021Y-82764973D01*
X88382795Y-82753051D01*
X88260403Y-82681773D01*
X88119818Y-82558552D01*
X88029278Y-82387830D01*
X87982136Y-82138134D01*
X87971741Y-81777986D01*
X87985783Y-81381891D01*
X88014253Y-80987718D01*
X88059679Y-80712848D01*
X88133819Y-80507328D01*
X88229023Y-80348667D01*
X88504662Y-80003542D01*
X88865752Y-79625535D01*
X89278455Y-79243226D01*
X89708932Y-78885199D01*
X89823680Y-78800702D01*
X91386518Y-78800702D01*
X91392026Y-78955517D01*
X91418774Y-79311544D01*
X91445211Y-79505339D01*
X91470681Y-79534782D01*
X91494530Y-79397755D01*
X91502204Y-79312219D01*
X91504803Y-79040968D01*
X91474487Y-78823609D01*
X91452720Y-78765736D01*
X91403134Y-78711687D01*
X91386518Y-78800702D01*
X89823680Y-78800702D01*
X90123346Y-78580036D01*
X90487860Y-78356320D01*
X90699167Y-78262142D01*
X90760646Y-78222217D01*
X91939910Y-78222217D01*
X92077885Y-78311528D01*
X92133503Y-78329394D01*
X92291982Y-78374933D01*
X92350167Y-78392894D01*
X92367147Y-78328852D01*
X92371334Y-78226376D01*
X92338072Y-78101452D01*
X92206929Y-78072378D01*
X92138500Y-78078209D01*
X91960320Y-78134141D01*
X91939910Y-78222217D01*
X90760646Y-78222217D01*
X90824270Y-78180899D01*
X90847334Y-78128280D01*
X90783290Y-78079412D01*
X90626365Y-78100794D01*
X90429368Y-78176376D01*
X90245109Y-78290107D01*
X90206877Y-78322943D01*
X90055932Y-78442415D01*
X89960868Y-78486000D01*
X89852490Y-78532575D01*
X89673873Y-78647904D01*
X89627659Y-78681614D01*
X89316642Y-78836920D01*
X89027000Y-78894216D01*
X88727360Y-78926806D01*
X88386946Y-78987815D01*
X88283200Y-79011701D01*
X87899042Y-79054296D01*
X87495490Y-79014771D01*
X87139367Y-78904254D01*
X86953760Y-78790332D01*
X86803690Y-78691071D01*
X86567358Y-78562106D01*
X86434689Y-78496906D01*
X86089190Y-78312045D01*
X85891971Y-78144666D01*
X85826444Y-77973629D01*
X85873905Y-77782309D01*
X85980061Y-77619747D01*
X86079837Y-77555327D01*
X86214771Y-77497313D01*
X86231395Y-77358260D01*
X86146570Y-77214051D01*
X86047119Y-77029027D01*
X86047848Y-77000485D01*
X90508667Y-77000485D01*
X90554378Y-77121720D01*
X90655344Y-77271380D01*
X90757318Y-77374189D01*
X90786012Y-77385333D01*
X90805508Y-77324141D01*
X90765190Y-77220715D01*
X90666059Y-77077684D01*
X90565991Y-76986693D01*
X90510439Y-76986761D01*
X90508667Y-77000485D01*
X86047848Y-77000485D01*
X86053616Y-76774663D01*
X86056789Y-76757220D01*
X86132638Y-76540042D01*
X86288617Y-76352411D01*
X86552516Y-76169834D01*
X86952123Y-75967818D01*
X86952667Y-75967567D01*
X87182059Y-75874066D01*
X87385792Y-75833423D01*
X87631706Y-75839005D01*
X87913652Y-75873597D01*
X88301554Y-75948679D01*
X88739669Y-76065571D01*
X89183677Y-76208895D01*
X89589261Y-76363276D01*
X89912104Y-76513338D01*
X90092520Y-76629566D01*
X90254192Y-76748203D01*
X90311769Y-76733352D01*
X90265278Y-76584964D01*
X90193404Y-76442795D01*
X89968187Y-75935748D01*
X89806012Y-75384489D01*
X89711898Y-74829185D01*
X89690865Y-74310006D01*
X89747931Y-73867120D01*
X89840391Y-73617667D01*
X90065317Y-73203368D01*
X90231405Y-72914635D01*
X90356020Y-72725813D01*
X90456524Y-72611249D01*
X90550282Y-72545290D01*
X90574118Y-72533655D01*
X90740757Y-72494430D01*
X90912731Y-72559256D01*
X91015190Y-72629520D01*
X91231365Y-72771135D01*
X91373542Y-72801302D01*
X91490269Y-72725435D01*
X91524667Y-72686333D01*
X91714746Y-72570196D01*
X91955510Y-72612675D01*
X92145561Y-72732697D01*
X92297910Y-72872869D01*
X92436509Y-73055718D01*
X92587437Y-73320999D01*
X92753908Y-73660000D01*
X92841218Y-74003121D01*
X92845092Y-74447065D01*
X92774681Y-74950877D01*
X92639136Y-75473601D01*
X92447610Y-75974280D01*
X92209253Y-76411961D01*
X92107036Y-76554868D01*
X91962351Y-76752569D01*
X91875022Y-76895342D01*
X91863333Y-76929202D01*
X91812476Y-77033983D01*
X91730818Y-77137428D01*
X91654040Y-77275141D01*
X91683397Y-77336447D01*
X91779493Y-77306681D01*
X91926726Y-77171419D01*
X92006413Y-77074637D01*
X92182286Y-76856325D01*
X92425365Y-76572285D01*
X92686488Y-76279810D01*
X92716317Y-76247285D01*
X93157225Y-75666233D01*
X93440206Y-75056981D01*
X93510700Y-74793143D01*
X93552812Y-74640030D01*
X93647534Y-74330491D01*
X93793551Y-73868615D01*
X93989548Y-73258493D01*
X94234211Y-72504218D01*
X94526226Y-71609880D01*
X94864279Y-70579569D01*
X94867534Y-70569667D01*
X95396426Y-68961000D01*
X95704213Y-68934722D01*
X95914247Y-68939211D01*
G37*
G36*
X123206490Y-94202508D02*
G01*
X123293512Y-94388272D01*
X123312533Y-94458010D01*
X123388789Y-94616072D01*
X123521784Y-94634536D01*
X123528571Y-94632826D01*
X123752272Y-94642243D01*
X123909410Y-94805731D01*
X124000784Y-95124324D01*
X124016741Y-95264869D01*
X124020752Y-95621309D01*
X123952389Y-95910946D01*
X123877709Y-96076329D01*
X123705655Y-96322345D01*
X123436055Y-96611159D01*
X123117117Y-96899374D01*
X122797047Y-97143596D01*
X122524053Y-97300427D01*
X122512667Y-97305131D01*
X122287955Y-97399215D01*
X122026008Y-97513316D01*
X122004667Y-97522826D01*
X121831310Y-97616048D01*
X121798376Y-97670043D01*
X121881291Y-97683658D01*
X122055481Y-97655743D01*
X122296373Y-97585147D01*
X122412915Y-97541946D01*
X122719044Y-97449337D01*
X123111527Y-97368342D01*
X123507469Y-97315941D01*
X123522361Y-97314667D01*
X123877048Y-97290826D01*
X124126600Y-97297011D01*
X124333958Y-97342639D01*
X124562060Y-97437131D01*
X124661969Y-97485213D01*
X124974885Y-97670554D01*
X125263594Y-97897428D01*
X125492413Y-98131706D01*
X125625660Y-98339258D01*
X125645334Y-98425772D01*
X125576714Y-98544360D01*
X125409676Y-98669198D01*
X125391334Y-98679000D01*
X125193703Y-98805552D01*
X125154750Y-98916478D01*
X125269801Y-99040775D01*
X125326671Y-99080394D01*
X125438254Y-99189184D01*
X125429944Y-99304026D01*
X125289984Y-99441498D01*
X125006618Y-99618179D01*
X124905960Y-99673692D01*
X124647158Y-99801090D01*
X124443303Y-99850623D01*
X124207108Y-99836316D01*
X124054488Y-99810500D01*
X123494422Y-99667882D01*
X123021319Y-99447577D01*
X122579587Y-99118985D01*
X122288152Y-98838225D01*
X122042433Y-98597132D01*
X121833507Y-98416343D01*
X121692604Y-98321804D01*
X121658028Y-98314768D01*
X121655245Y-98386563D01*
X121752239Y-98535087D01*
X121844164Y-98639566D01*
X122106108Y-98948204D01*
X122375606Y-99321869D01*
X122616321Y-99705132D01*
X122791919Y-100042566D01*
X122835731Y-100152134D01*
X122923688Y-100607434D01*
X122899251Y-101090130D01*
X122773336Y-101548024D01*
X122556856Y-101928920D01*
X122437399Y-102057160D01*
X122320484Y-102143496D01*
X122207198Y-102143365D01*
X122026069Y-102055090D01*
X122011892Y-102047183D01*
X121828022Y-101954129D01*
X121713465Y-101957539D01*
X121589875Y-102070988D01*
X121538751Y-102129167D01*
X121399815Y-102280552D01*
X121316471Y-102356914D01*
X121310228Y-102359223D01*
X121246368Y-102298866D01*
X121106836Y-102145360D01*
X120964647Y-101981734D01*
X120664321Y-101584996D01*
X120489054Y-101220449D01*
X120419913Y-100831170D01*
X120435023Y-100389265D01*
X120490992Y-100017388D01*
X120577595Y-99646880D01*
X120655074Y-99413418D01*
X120741966Y-99195282D01*
X120762203Y-99116816D01*
X120717061Y-99162578D01*
X120670482Y-99227064D01*
X120547828Y-99376355D01*
X120338538Y-99606686D01*
X120077078Y-99880745D01*
X119913244Y-100046896D01*
X119577734Y-100366124D01*
X119307222Y-100570205D01*
X119060150Y-100675597D01*
X118794960Y-100698756D01*
X118470092Y-100656138D01*
X118406334Y-100643616D01*
X118083153Y-100548366D01*
X117920510Y-100421789D01*
X117911300Y-100256420D01*
X117954417Y-100168810D01*
X118023461Y-100020914D01*
X117979166Y-99932401D01*
X117940667Y-99905380D01*
X117750646Y-99836838D01*
X117633042Y-99823296D01*
X117461288Y-99749970D01*
X117407732Y-99651126D01*
X117423505Y-99470781D01*
X117518303Y-99206717D01*
X117613441Y-99017667D01*
X120812270Y-99017667D01*
X120939801Y-98806000D01*
X121033598Y-98626464D01*
X121070333Y-98513900D01*
X121045985Y-98468103D01*
X120983267Y-98536713D01*
X120910725Y-98678588D01*
X120867651Y-98806000D01*
X120812270Y-99017667D01*
X117613441Y-99017667D01*
X117667908Y-98909434D01*
X117848103Y-98629433D01*
X117967918Y-98483031D01*
X118310350Y-98227507D01*
X118799674Y-98034298D01*
X119424068Y-97906694D01*
X120171711Y-97847985D01*
X120257023Y-97845949D01*
X120637948Y-97828294D01*
X120858314Y-97798046D01*
X120916574Y-97762963D01*
X120811180Y-97730804D01*
X120540586Y-97709328D01*
X120285170Y-97704775D01*
X119904261Y-97690025D01*
X119638100Y-97639737D01*
X119433991Y-97543605D01*
X119422334Y-97536000D01*
X119196836Y-97420521D01*
X118992658Y-97367575D01*
X118980656Y-97367224D01*
X118772934Y-97292695D01*
X118658813Y-97197333D01*
X121171369Y-97197333D01*
X121184674Y-97317529D01*
X121214073Y-97303167D01*
X121225256Y-97129824D01*
X121214073Y-97091500D01*
X121183171Y-97080864D01*
X121171369Y-97197333D01*
X118658813Y-97197333D01*
X118528988Y-97088848D01*
X118275240Y-96783685D01*
X118038114Y-96405206D01*
X117994550Y-96322273D01*
X117847062Y-95987985D01*
X117809729Y-95761760D01*
X117885880Y-95620279D01*
X118078841Y-95540223D01*
X118107008Y-95534232D01*
X118282874Y-95477017D01*
X118328722Y-95376870D01*
X118314890Y-95295475D01*
X118337307Y-95094519D01*
X118501332Y-94945833D01*
X118784125Y-94861311D01*
X119162844Y-94852849D01*
X119164566Y-94852988D01*
X119516558Y-94912650D01*
X119804022Y-95050574D01*
X119965410Y-95169682D01*
X120218410Y-95404179D01*
X120493208Y-95707410D01*
X120752016Y-96032286D01*
X120957043Y-96331721D01*
X121063334Y-96537760D01*
X121107553Y-96619969D01*
X121149323Y-96585284D01*
X121201088Y-96413923D01*
X121236449Y-96262630D01*
X121370363Y-95764927D01*
X121531400Y-95321099D01*
X121703463Y-94969847D01*
X121862712Y-94756934D01*
X122035257Y-94626549D01*
X122297909Y-94461336D01*
X122544814Y-94323424D01*
X122861807Y-94175285D01*
X123072477Y-94133246D01*
X123206490Y-94202508D01*
G37*
G36*
X191056727Y-99941446D02*
G01*
X191759757Y-100128892D01*
X192532000Y-100447173D01*
X192825891Y-100567552D01*
X193096153Y-100647752D01*
X193236708Y-100667839D01*
X193428126Y-100698280D01*
X193466578Y-100783959D01*
X193357103Y-100919212D01*
X193104738Y-101098373D01*
X192714518Y-101315778D01*
X192616667Y-101365196D01*
X192189258Y-101572689D01*
X191869004Y-101709229D01*
X191614210Y-101784595D01*
X191383182Y-101808564D01*
X191134226Y-101790917D01*
X190933041Y-101760071D01*
X190544591Y-101659703D01*
X190161051Y-101502413D01*
X189832561Y-101313583D01*
X189609258Y-101118594D01*
X189576735Y-101073457D01*
X189509781Y-100924127D01*
X189565579Y-100821346D01*
X189617128Y-100780716D01*
X189809859Y-100688440D01*
X189923516Y-100668667D01*
X190058811Y-100637128D01*
X190052954Y-100560694D01*
X189917975Y-100466643D01*
X189816054Y-100425048D01*
X189624353Y-100308468D01*
X189589453Y-100169108D01*
X189707893Y-100038859D01*
X189865000Y-99974320D01*
X190428547Y-99890526D01*
X191056727Y-99941446D01*
G37*
G36*
X132258607Y-74916872D02*
G01*
X132381639Y-75109593D01*
X132497299Y-75296488D01*
X132594612Y-75331084D01*
X132706232Y-75211600D01*
X132780865Y-75087816D01*
X132886285Y-74917448D01*
X132964610Y-74877235D01*
X133071132Y-74949391D01*
X133108220Y-74982518D01*
X133261304Y-75147085D01*
X133448398Y-75383420D01*
X133536177Y-75505746D01*
X133666382Y-75706798D01*
X133736313Y-75873481D01*
X133758075Y-76065999D01*
X133743774Y-76344553D01*
X133731954Y-76479412D01*
X133581472Y-77218834D01*
X133273969Y-77905089D01*
X132818502Y-78518053D01*
X132810682Y-78526488D01*
X132574402Y-78803558D01*
X132441135Y-79011233D01*
X132419134Y-79133603D01*
X132482167Y-79159748D01*
X132570026Y-79096835D01*
X132711129Y-78944409D01*
X132757334Y-78887510D01*
X133031026Y-78576243D01*
X133364938Y-78249012D01*
X133712257Y-77947596D01*
X134026170Y-77713775D01*
X134166823Y-77629539D01*
X134681969Y-77437075D01*
X135221470Y-77367441D01*
X135743033Y-77419135D01*
X136204367Y-77590658D01*
X136383122Y-77708146D01*
X136503492Y-77812113D01*
X136535515Y-77907465D01*
X136485114Y-78057948D01*
X136427109Y-78181642D01*
X136341977Y-78372451D01*
X136329438Y-78496503D01*
X136410846Y-78600385D01*
X136607550Y-78730685D01*
X136706015Y-78790204D01*
X136777386Y-78849920D01*
X136780137Y-78929493D01*
X136700436Y-79062525D01*
X136524453Y-79282622D01*
X136482831Y-79332471D01*
X136206180Y-79618294D01*
X135915544Y-79847070D01*
X135754078Y-79938003D01*
X135426773Y-80032270D01*
X135000110Y-80087125D01*
X134540027Y-80099899D01*
X134112463Y-80067923D01*
X133858559Y-80014726D01*
X133590294Y-79945861D01*
X133448979Y-79934172D01*
X133445927Y-79974649D01*
X133592452Y-80062285D01*
X133669976Y-80098227D01*
X134213297Y-80403638D01*
X134797528Y-80857486D01*
X134981759Y-81023096D01*
X135279602Y-81403121D01*
X135422215Y-81850009D01*
X135431403Y-82190167D01*
X135407576Y-82506292D01*
X135377629Y-82689820D01*
X135318849Y-82776672D01*
X135208529Y-82802769D01*
X135043334Y-82804000D01*
X134811077Y-82822072D01*
X134707815Y-82904534D01*
X134694645Y-83093749D01*
X134702214Y-83175493D01*
X134650871Y-83359008D01*
X134461345Y-83462087D01*
X134293438Y-83480037D01*
X134058386Y-83433786D01*
X133745290Y-83311866D01*
X133409442Y-83142989D01*
X133106136Y-82955865D01*
X132890664Y-82779205D01*
X132849948Y-82730495D01*
X132655289Y-82384130D01*
X132467221Y-81920054D01*
X132301994Y-81389614D01*
X132175860Y-80844156D01*
X132110152Y-80393005D01*
X132080118Y-80143487D01*
X132048090Y-79973728D01*
X132032617Y-79934394D01*
X131962999Y-79923957D01*
X131938197Y-80076391D01*
X131958237Y-80391262D01*
X131989299Y-80640138D01*
X132031774Y-81005934D01*
X132035593Y-81262001D01*
X131998610Y-81463958D01*
X131952645Y-81590243D01*
X131868635Y-81834018D01*
X131826986Y-82038602D01*
X131826000Y-82061979D01*
X131753208Y-82343404D01*
X131551233Y-82662591D01*
X131244679Y-82986424D01*
X130982999Y-83196732D01*
X130631466Y-83437250D01*
X130383532Y-83573474D01*
X130215591Y-83612874D01*
X130104032Y-83562920D01*
X130053157Y-83490968D01*
X129979380Y-83295798D01*
X129963334Y-83190244D01*
X129911395Y-83095917D01*
X129735485Y-83076413D01*
X129700247Y-83078844D01*
X129427708Y-83029816D01*
X129235669Y-82833531D01*
X129125966Y-82492688D01*
X129099748Y-82197373D01*
X129109367Y-81877883D01*
X129175801Y-81626743D01*
X129325089Y-81352321D01*
X129351819Y-81310347D01*
X129603289Y-80973231D01*
X129931219Y-80606372D01*
X130282163Y-80265033D01*
X130602676Y-80004477D01*
X130638339Y-79980073D01*
X130847678Y-79840667D01*
X130532506Y-79825850D01*
X130150042Y-79805042D01*
X129875890Y-79779661D01*
X129649082Y-79740828D01*
X129609775Y-79730829D01*
X131201531Y-79730829D01*
X131318000Y-79742631D01*
X131438196Y-79729326D01*
X131427471Y-79707371D01*
X132705684Y-79707371D01*
X132715000Y-79741790D01*
X132864906Y-79830177D01*
X132969000Y-79864960D01*
X133182309Y-79910020D01*
X133256464Y-79904632D01*
X133218767Y-79851598D01*
X133104609Y-79786459D01*
X132944539Y-79732752D01*
X132793312Y-79702411D01*
X132705684Y-79707371D01*
X131427471Y-79707371D01*
X131423834Y-79699927D01*
X131250491Y-79688744D01*
X131212167Y-79699927D01*
X131201531Y-79730829D01*
X129609775Y-79730829D01*
X129408650Y-79679666D01*
X129286000Y-79644321D01*
X128916555Y-79518276D01*
X128642445Y-79368411D01*
X128410735Y-79154633D01*
X128168491Y-78836852D01*
X128113402Y-78756225D01*
X127907245Y-78425706D01*
X127812291Y-78194608D01*
X127825796Y-78037089D01*
X127945016Y-77927309D01*
X128021541Y-77891038D01*
X128182605Y-77792561D01*
X128241483Y-77637684D01*
X128244488Y-77499912D01*
X128260090Y-77293485D01*
X128342924Y-77155584D01*
X128525786Y-77058575D01*
X128841468Y-76974820D01*
X128876658Y-76967172D01*
X129365240Y-76946218D01*
X129864091Y-77082031D01*
X130356549Y-77364203D01*
X130825956Y-77782324D01*
X131255651Y-78325982D01*
X131389646Y-78537415D01*
X131550723Y-78789882D01*
X131681611Y-78964811D01*
X131757879Y-79030192D01*
X131763936Y-79027841D01*
X131779127Y-78898932D01*
X131685711Y-78675226D01*
X131566761Y-78484921D01*
X131430724Y-78221828D01*
X131293906Y-77848363D01*
X131172391Y-77422646D01*
X131082264Y-77002799D01*
X131039608Y-76646940D01*
X131038243Y-76575072D01*
X131125321Y-76018898D01*
X131364220Y-75484809D01*
X131674970Y-75076664D01*
X131911440Y-74868663D01*
X132098510Y-74815050D01*
X132258607Y-74916872D01*
G37*
G36*
X102111839Y-80140454D02*
G01*
X102500927Y-80150477D01*
X102758430Y-80169154D01*
X102903172Y-80197944D01*
X102953978Y-80238307D01*
X102954667Y-80244819D01*
X102898928Y-80345394D01*
X102747444Y-80537798D01*
X102523812Y-80793733D01*
X102270740Y-81065033D01*
X101971986Y-81372344D01*
X101751309Y-81581177D01*
X101571056Y-81716665D01*
X101393569Y-81803940D01*
X101181195Y-81868136D01*
X101005193Y-81909713D01*
X100668142Y-81983121D01*
X100440798Y-82019677D01*
X100268615Y-82023694D01*
X100097046Y-81999487D01*
X100033667Y-81986549D01*
X99803733Y-81937863D01*
X99679754Y-81911576D01*
X99466550Y-81818586D01*
X99357123Y-81734361D01*
X99278988Y-81634151D01*
X99294412Y-81537647D01*
X99417033Y-81389929D01*
X99451710Y-81353488D01*
X99684348Y-81110667D01*
X99478007Y-81109370D01*
X99262237Y-81075900D01*
X99144667Y-81027114D01*
X99067345Y-80909010D01*
X99152182Y-80755475D01*
X99400168Y-80565373D01*
X99693550Y-80398257D01*
X99881777Y-80301923D01*
X100042562Y-80232904D01*
X100208842Y-80186631D01*
X100413554Y-80158536D01*
X100689636Y-80144047D01*
X101070025Y-80138598D01*
X101572340Y-80137624D01*
X102111839Y-80140454D01*
G37*
G36*
X146651063Y-71346036D02*
G01*
X146822721Y-71437500D01*
X147034447Y-71580316D01*
X147193972Y-71674590D01*
X147356862Y-71834399D01*
X147526408Y-72123704D01*
X147690436Y-72503716D01*
X147836774Y-72935647D01*
X147953248Y-73380710D01*
X148027686Y-73800116D01*
X148047913Y-74155077D01*
X148027095Y-74329216D01*
X148012391Y-74434006D01*
X148052353Y-74435547D01*
X148165533Y-74322884D01*
X148300138Y-74168000D01*
X148703500Y-73709421D01*
X149040599Y-73371151D01*
X149343090Y-73135344D01*
X149642626Y-72984156D01*
X149970862Y-72899742D01*
X150359451Y-72864257D01*
X150622000Y-72859076D01*
X151426334Y-72855667D01*
X151433132Y-73221696D01*
X151456950Y-73473059D01*
X151534385Y-73617322D01*
X151644798Y-73691851D01*
X151798167Y-73854216D01*
X151844084Y-74105062D01*
X151792507Y-74410848D01*
X151653395Y-74738035D01*
X151436705Y-75053085D01*
X151163063Y-75314410D01*
X150706541Y-75563868D01*
X150110738Y-75725884D01*
X149382246Y-75799010D01*
X148949834Y-75801349D01*
X148609322Y-75800808D01*
X148343625Y-75813964D01*
X148189961Y-75838266D01*
X148166667Y-75854974D01*
X148243787Y-75933517D01*
X148445101Y-75995023D01*
X148725540Y-76027339D01*
X148813915Y-76029510D01*
X149100635Y-76065343D01*
X149480828Y-76158673D01*
X149896583Y-76291122D01*
X150289991Y-76444313D01*
X150593758Y-76594342D01*
X150868821Y-76793005D01*
X151120953Y-77034873D01*
X151177190Y-77102893D01*
X151383721Y-77431902D01*
X151560631Y-77817713D01*
X151682093Y-78195228D01*
X151722667Y-78477850D01*
X151686693Y-78669846D01*
X151558587Y-78778057D01*
X151308077Y-78821324D01*
X151165409Y-78824667D01*
X150949442Y-78844847D01*
X150886746Y-78921101D01*
X150964408Y-79076993D01*
X151000307Y-79125984D01*
X151097484Y-79273203D01*
X151127307Y-79344775D01*
X151053360Y-79424571D01*
X150820076Y-79490036D01*
X150423249Y-79542215D01*
X150284245Y-79554427D01*
X149725248Y-79599598D01*
X149111666Y-79031515D01*
X148573289Y-78444412D01*
X148199720Y-77830851D01*
X147987720Y-77185212D01*
X147962242Y-77036932D01*
X147903027Y-76772882D01*
X147816535Y-76544964D01*
X147722989Y-76394124D01*
X147642609Y-76361303D01*
X147632579Y-76369466D01*
X147633725Y-76465743D01*
X147673861Y-76680361D01*
X147744531Y-76969111D01*
X147754032Y-77004333D01*
X147835655Y-77391386D01*
X147898699Y-77852759D01*
X147930415Y-78293541D01*
X147931175Y-78323124D01*
X147932408Y-78706131D01*
X147908704Y-78983048D01*
X147848702Y-79216574D01*
X147741043Y-79469409D01*
X147712972Y-79527444D01*
X147454811Y-79939610D01*
X147122464Y-80304192D01*
X146760956Y-80576835D01*
X146543226Y-80679797D01*
X146364889Y-80723918D01*
X146253956Y-80671669D01*
X146150446Y-80513107D01*
X145948691Y-80281925D01*
X145702262Y-80198423D01*
X145470786Y-80256801D01*
X145305154Y-80329975D01*
X145226364Y-80348667D01*
X145167472Y-80271858D01*
X145099629Y-80070879D01*
X145032210Y-79789897D01*
X144974587Y-79473079D01*
X144936136Y-79164594D01*
X144925649Y-78931740D01*
X145005159Y-78528159D01*
X145219542Y-78077600D01*
X145550211Y-77604667D01*
X145978579Y-77133964D01*
X146486060Y-76690097D01*
X146783698Y-76472114D01*
X146960934Y-76341169D01*
X147059073Y-76250347D01*
X147066000Y-76236302D01*
X147007078Y-76233472D01*
X146863782Y-76304391D01*
X146686318Y-76420038D01*
X146531230Y-76545435D01*
X146291824Y-76717418D01*
X145937773Y-76910065D01*
X145518321Y-77101451D01*
X145082713Y-77269654D01*
X144680193Y-77392749D01*
X144571212Y-77418033D01*
X144163755Y-77481744D01*
X143839709Y-77466631D01*
X143540856Y-77357972D01*
X143208975Y-77141047D01*
X143079199Y-77040752D01*
X142845855Y-76822377D01*
X142761728Y-76636508D01*
X142819987Y-76449908D01*
X142929760Y-76313772D01*
X143047078Y-76160492D01*
X143043697Y-76047799D01*
X143004060Y-75990815D01*
X142857000Y-75881708D01*
X142774602Y-75861333D01*
X142689036Y-75802195D01*
X142677493Y-75610248D01*
X142679136Y-75592495D01*
X142729807Y-75404677D01*
X142863461Y-75234166D01*
X143115127Y-75036345D01*
X143116595Y-75035315D01*
X143600550Y-74746516D01*
X144049491Y-74577596D01*
X144435639Y-74538651D01*
X144472065Y-74542600D01*
X144961071Y-74638230D01*
X145514784Y-74795265D01*
X146069545Y-74991904D01*
X146561699Y-75206349D01*
X146821577Y-75347213D01*
X147062752Y-75481224D01*
X147193128Y-75516211D01*
X147235121Y-75457691D01*
X147235334Y-75449021D01*
X147165176Y-75379129D01*
X146978392Y-75257394D01*
X146773236Y-75141667D01*
X147747323Y-75141667D01*
X147789337Y-75150371D01*
X147872151Y-75063181D01*
X147950042Y-74922065D01*
X147949522Y-74853966D01*
X147878147Y-74872258D01*
X147795496Y-74982959D01*
X147748406Y-75119426D01*
X147747323Y-75141667D01*
X146773236Y-75141667D01*
X146710510Y-75106284D01*
X146610109Y-75053667D01*
X146291660Y-74871467D01*
X146029271Y-74687498D01*
X145868399Y-74534248D01*
X145854352Y-74513479D01*
X145718309Y-74320386D01*
X145522654Y-74080622D01*
X145423557Y-73969384D01*
X145249358Y-73755959D01*
X145134081Y-73537752D01*
X145068372Y-73275150D01*
X145042877Y-72928541D01*
X145048239Y-72458312D01*
X145050572Y-72390000D01*
X145065943Y-72040282D01*
X145088383Y-71825063D01*
X145128409Y-71709540D01*
X145196536Y-71658914D01*
X145276599Y-71641998D01*
X145469841Y-71655122D01*
X145568699Y-71705498D01*
X145725499Y-71793235D01*
X145845672Y-71748985D01*
X145880667Y-71630979D01*
X145952374Y-71448674D01*
X146136086Y-71333964D01*
X146384688Y-71296526D01*
X146651063Y-71346036D01*
G37*
G36*
X87062587Y-68924830D02*
G01*
X87395736Y-68946867D01*
X87582345Y-68990099D01*
X87633646Y-69059846D01*
X87560871Y-69161428D01*
X87376000Y-69299667D01*
X87177795Y-69464809D01*
X87141897Y-69597763D01*
X87268307Y-69714609D01*
X87376000Y-69765333D01*
X87551192Y-69867974D01*
X87629693Y-69973413D01*
X87630000Y-69978879D01*
X87570588Y-70082465D01*
X87412693Y-70261978D01*
X87186829Y-70483648D01*
X87113475Y-70550545D01*
X86852539Y-70779427D01*
X86663407Y-70917698D01*
X86493052Y-70989161D01*
X86288444Y-71017620D01*
X86055142Y-71025623D01*
X85513334Y-71037372D01*
X85513334Y-69978019D01*
X85513334Y-68918667D01*
X86571667Y-68918667D01*
X87062587Y-68924830D01*
G37*
G36*
X112856848Y-69363167D02*
G01*
X112833453Y-69675783D01*
X112778505Y-69960931D01*
X112744748Y-70061667D01*
X112663451Y-70214834D01*
X112553458Y-70289809D01*
X112358039Y-70314021D01*
X112219400Y-70315667D01*
X111967729Y-70323485D01*
X111832137Y-70366515D01*
X111759470Y-70474124D01*
X111721325Y-70590833D01*
X111648753Y-70792091D01*
X111563651Y-70850610D01*
X111420688Y-70778158D01*
X111313564Y-70696667D01*
X111138914Y-70578566D01*
X111014661Y-70527392D01*
X111012308Y-70527333D01*
X110819774Y-70453387D01*
X110600262Y-70256405D01*
X110381295Y-69973674D01*
X110190398Y-69642481D01*
X110055096Y-69300113D01*
X110027939Y-69193833D01*
X109968546Y-68918667D01*
X111414606Y-68918667D01*
X112860667Y-68918667D01*
X112856848Y-69363167D01*
G37*
G36*
X109149248Y-69318878D02*
G01*
X108897875Y-69661963D01*
X108597567Y-69886623D01*
X108204050Y-70019928D01*
X107929870Y-70064352D01*
X107637054Y-70089599D01*
X107474185Y-70073221D01*
X107406159Y-70011436D01*
X107404855Y-70007793D01*
X107364223Y-69835343D01*
X107340318Y-69680667D01*
X107297049Y-69536039D01*
X107178980Y-69477626D01*
X107018667Y-69469000D01*
X106723471Y-69438614D01*
X106562767Y-69335880D01*
X106510887Y-69143435D01*
X106510667Y-69125336D01*
X106510667Y-68918667D01*
X107947527Y-68918667D01*
X109384386Y-68918667D01*
X109149248Y-69318878D01*
G37*
%TD*%
%LPC*%
%LPD*%
M02*
