%TF.GenerationSoftware,KiCad,Pcbnew,7.0.10*%
%TF.CreationDate,2024-03-17T18:39:59-04:00*%
%TF.ProjectId,front panel,66726f6e-7420-4706-916e-656c2e6b6963,rev?*%
%TF.SameCoordinates,Original*%
%TF.FileFunction,Legend,Top*%
%TF.FilePolarity,Positive*%
%FSLAX46Y46*%
G04 Gerber Fmt 4.6, Leading zero omitted, Abs format (unit mm)*
G04 Created by KiCad (PCBNEW 7.0.10) date 2024-03-17 18:39:59*
%MOMM*%
%LPD*%
G01*
G04 APERTURE LIST*
G04 APERTURE END LIST*
%TO.C,G\u002A\u002A\u002A*%
G36*
X38762049Y-135901593D02*
G01*
X38968605Y-136006316D01*
X39213183Y-136178830D01*
X39457368Y-136390818D01*
X39662747Y-136613959D01*
X39724263Y-136698243D01*
X39986338Y-137133413D01*
X40189549Y-137579063D01*
X40368002Y-138111041D01*
X40383727Y-138164756D01*
X40490263Y-138478178D01*
X40611633Y-138757576D01*
X40691894Y-138897493D01*
X40802784Y-139067102D01*
X40852996Y-139171313D01*
X40853253Y-139174531D01*
X40780765Y-139225618D01*
X40580681Y-139211256D01*
X40279067Y-139137136D01*
X39901995Y-139008947D01*
X39667920Y-138915803D01*
X39238152Y-138725162D01*
X38926249Y-138551036D01*
X38688468Y-138359376D01*
X38481068Y-138116131D01*
X38301749Y-137852366D01*
X38129629Y-137533343D01*
X38033789Y-137202097D01*
X37994461Y-136882708D01*
X37972984Y-136584554D01*
X37976124Y-136420346D01*
X38014519Y-136355273D01*
X38098803Y-136354526D01*
X38152509Y-136365465D01*
X38381396Y-136427816D01*
X38509718Y-136473754D01*
X38608062Y-136497604D01*
X38635063Y-136428424D01*
X38607948Y-136240337D01*
X38591071Y-136030790D01*
X38622040Y-135901899D01*
X38631931Y-135892981D01*
X38762049Y-135901593D01*
G37*
G36*
X233207312Y-129518272D02*
G01*
X233368532Y-129772247D01*
X233420042Y-129876609D01*
X233542923Y-130168517D01*
X233612709Y-130440589D01*
X233642906Y-130762657D01*
X233647720Y-131053912D01*
X233635022Y-131443550D01*
X233601537Y-131824360D01*
X233554180Y-132120542D01*
X233548106Y-132145956D01*
X233494729Y-132482556D01*
X233484496Y-132833548D01*
X233491139Y-132919927D01*
X233495660Y-133171911D01*
X233433245Y-133287724D01*
X233297991Y-133265895D01*
X233083996Y-133104955D01*
X232785356Y-132803433D01*
X232715549Y-132726794D01*
X232458370Y-132423571D01*
X232226972Y-132119230D01*
X232061110Y-131867006D01*
X232029247Y-131807785D01*
X231910687Y-131463984D01*
X231853556Y-131068509D01*
X231852586Y-130655374D01*
X231902511Y-130258591D01*
X231998062Y-129912175D01*
X232133972Y-129650137D01*
X232304974Y-129506493D01*
X232388246Y-129489590D01*
X232463405Y-129556326D01*
X232570255Y-129722570D01*
X232592128Y-129763461D01*
X232734684Y-130038627D01*
X232834631Y-129742294D01*
X232945855Y-129504556D01*
X233068251Y-129429462D01*
X233207312Y-129518272D01*
G37*
G36*
X124846024Y-129197881D02*
G01*
X125229582Y-129223975D01*
X125537957Y-129269766D01*
X125668087Y-129308066D01*
X125878387Y-129450176D01*
X125938774Y-129615691D01*
X125845476Y-129772888D01*
X125731587Y-129842366D01*
X125558956Y-129951048D01*
X125537035Y-130037557D01*
X125667692Y-130080706D01*
X125710420Y-130082257D01*
X125948554Y-130125403D01*
X126082673Y-130234090D01*
X126088720Y-130359701D01*
X125990298Y-130461630D01*
X125784855Y-130596389D01*
X125575889Y-130705841D01*
X125158998Y-130848375D01*
X124647845Y-130943331D01*
X124110867Y-130984141D01*
X123616497Y-130964238D01*
X123360920Y-130918403D01*
X123056557Y-130873009D01*
X122713107Y-130867630D01*
X122620087Y-130875080D01*
X122373901Y-130893073D01*
X122253477Y-130869000D01*
X122218338Y-130793028D01*
X122217920Y-130777364D01*
X122278689Y-130655505D01*
X122440759Y-130456079D01*
X122673776Y-130208013D01*
X122947386Y-129940230D01*
X123231232Y-129681656D01*
X123494961Y-129461216D01*
X123708217Y-129307835D01*
X123816191Y-129254370D01*
X124082136Y-129211421D01*
X124444478Y-129193144D01*
X124846024Y-129197881D01*
G37*
G36*
X217272495Y-119707327D02*
G01*
X217515424Y-119793970D01*
X217829745Y-119952355D01*
X218171347Y-120160599D01*
X218335379Y-120280592D01*
X218465104Y-120414384D01*
X218570758Y-120588053D01*
X218662576Y-120827676D01*
X218750795Y-121159333D01*
X218845651Y-121609102D01*
X218943637Y-122128178D01*
X218948417Y-122366250D01*
X218908104Y-122711565D01*
X218832756Y-123111264D01*
X218732433Y-123512491D01*
X218617194Y-123862387D01*
X218610255Y-123880018D01*
X218468545Y-124279491D01*
X218405519Y-124563371D01*
X218423068Y-124719558D01*
X218474727Y-124746961D01*
X218545832Y-124675827D01*
X218641675Y-124501159D01*
X218736507Y-124281052D01*
X218804580Y-124073605D01*
X218822587Y-123962080D01*
X218867537Y-123788843D01*
X218987272Y-123517108D01*
X219159114Y-123186853D01*
X219360389Y-122838056D01*
X219568419Y-122510695D01*
X219760529Y-122244747D01*
X219864256Y-122125632D01*
X220355588Y-121728143D01*
X220905685Y-121455257D01*
X221481210Y-121317393D01*
X222048827Y-121324970D01*
X222272753Y-121372879D01*
X222444305Y-121435109D01*
X222524147Y-121531668D01*
X222546975Y-121719389D01*
X222547920Y-121823580D01*
X222608021Y-122157600D01*
X222783290Y-122372372D01*
X223066170Y-122459438D01*
X223117092Y-122460961D01*
X223274053Y-122509933D01*
X223309920Y-122625297D01*
X223275662Y-122784219D01*
X223234851Y-122836029D01*
X223170490Y-122943375D01*
X223110785Y-123145999D01*
X223103765Y-123181023D01*
X222923525Y-123700203D01*
X222596360Y-124149008D01*
X222131530Y-124522479D01*
X221538299Y-124815657D01*
X220825927Y-125023583D01*
X220003677Y-125141299D01*
X219394087Y-125167242D01*
X219132511Y-125180599D01*
X218955794Y-125212051D01*
X218907253Y-125244609D01*
X218985799Y-125272856D01*
X219197524Y-125289500D01*
X219506558Y-125292750D01*
X219748502Y-125286607D01*
X220223397Y-125279988D01*
X220632468Y-125306969D01*
X221031966Y-125377124D01*
X221478142Y-125500025D01*
X221968146Y-125664367D01*
X222339994Y-125802003D01*
X222589260Y-125917676D01*
X222755884Y-126036964D01*
X222879806Y-126185450D01*
X222944882Y-126289940D01*
X223061535Y-126530915D01*
X223172585Y-126828830D01*
X223263979Y-127134667D01*
X223321665Y-127399414D01*
X223331589Y-127574054D01*
X223321657Y-127604085D01*
X223208149Y-127678803D01*
X223005163Y-127745812D01*
X222986699Y-127749974D01*
X222741840Y-127846669D01*
X222655656Y-128000161D01*
X222725027Y-128217295D01*
X222752980Y-128262427D01*
X222837158Y-128413893D01*
X222823228Y-128524201D01*
X222698567Y-128667963D01*
X222681471Y-128685106D01*
X222538344Y-128803529D01*
X222373081Y-128867476D01*
X222129194Y-128892630D01*
X221923228Y-128895627D01*
X221343320Y-128869136D01*
X220889307Y-128781764D01*
X220525006Y-128621666D01*
X220214233Y-128376998D01*
X220155309Y-128316864D01*
X219916067Y-128066136D01*
X219683923Y-127826789D01*
X219563420Y-127704949D01*
X219413968Y-127541875D01*
X219334523Y-127427502D01*
X219330587Y-127412501D01*
X219285493Y-127315272D01*
X219169113Y-127127689D01*
X219054856Y-126959637D01*
X218849337Y-126646702D01*
X218646890Y-126306778D01*
X218572647Y-126170354D01*
X218446770Y-125956240D01*
X218343600Y-125829561D01*
X218301741Y-125813233D01*
X218268306Y-125874013D01*
X218294295Y-125997741D01*
X218389127Y-126207758D01*
X218562221Y-126527406D01*
X218657264Y-126694294D01*
X218795752Y-126944801D01*
X218889595Y-127154581D01*
X218950456Y-127370957D01*
X218989999Y-127641255D01*
X219019885Y-128012801D01*
X219032844Y-128218294D01*
X219056876Y-128638773D01*
X219064987Y-128928867D01*
X219052407Y-129127154D01*
X219014365Y-129272215D01*
X218946093Y-129402629D01*
X218872737Y-129513220D01*
X218742034Y-129711327D01*
X218663472Y-129843520D01*
X218653253Y-129868809D01*
X218609841Y-129952059D01*
X218498012Y-130130227D01*
X218393010Y-130288745D01*
X218171638Y-130585933D01*
X217993454Y-130741379D01*
X217833273Y-130768253D01*
X217665906Y-130679728D01*
X217657774Y-130673219D01*
X217519767Y-130533977D01*
X217467920Y-130432219D01*
X217413553Y-130309918D01*
X217277986Y-130307265D01*
X217120936Y-130409204D01*
X216957383Y-130521921D01*
X216789439Y-130511030D01*
X216717674Y-130483874D01*
X216488755Y-130342747D01*
X216281203Y-130140742D01*
X216143222Y-129931146D01*
X216113674Y-129816161D01*
X216052644Y-129651639D01*
X215975860Y-129564335D01*
X215900700Y-129406626D01*
X215876171Y-129129691D01*
X215898779Y-128774751D01*
X215965028Y-128383029D01*
X216071424Y-127995750D01*
X216120176Y-127862064D01*
X216340363Y-127326938D01*
X216535626Y-126899121D01*
X216697697Y-126595209D01*
X216818311Y-126431801D01*
X216840890Y-126414920D01*
X216946092Y-126318644D01*
X216959920Y-126278934D01*
X216886418Y-126273910D01*
X216689843Y-126318333D01*
X216406094Y-126403320D01*
X216261420Y-126451779D01*
X215515710Y-126654249D01*
X214853180Y-126715868D01*
X214263396Y-126636888D01*
X213910587Y-126508642D01*
X213526255Y-126308944D01*
X213186463Y-126094259D01*
X213093787Y-126021891D01*
X217213920Y-126021891D01*
X217273369Y-126040610D01*
X217417532Y-125972015D01*
X217428229Y-125965110D01*
X217566990Y-125856376D01*
X217605713Y-125787981D01*
X217604814Y-125786965D01*
X217507521Y-125789437D01*
X217361765Y-125863276D01*
X217242210Y-125963608D01*
X217213920Y-126021891D01*
X213093787Y-126021891D01*
X212921256Y-125887166D01*
X212760681Y-125710243D01*
X212726587Y-125618896D01*
X212782027Y-125467482D01*
X212918788Y-125276894D01*
X212952696Y-125239886D01*
X213093636Y-125079868D01*
X213125172Y-124977478D01*
X213060153Y-124873177D01*
X213037362Y-124847586D01*
X212910311Y-124601878D01*
X212932044Y-124344321D01*
X213001753Y-124225746D01*
X213242651Y-124006387D01*
X213581536Y-123789612D01*
X213950577Y-123612330D01*
X214281943Y-123511453D01*
X214326403Y-123504931D01*
X214807084Y-123516945D01*
X215362102Y-123645775D01*
X215957198Y-123878313D01*
X216558113Y-124201448D01*
X217070510Y-124554958D01*
X217313838Y-124732872D01*
X217503517Y-124852575D01*
X217603207Y-124891475D01*
X217607997Y-124889106D01*
X217598536Y-124792145D01*
X217490419Y-124631071D01*
X217317725Y-124446909D01*
X217114536Y-124280687D01*
X217087318Y-124262311D01*
X216884713Y-124086350D01*
X216631033Y-123805298D01*
X216358261Y-123461631D01*
X216098381Y-123097822D01*
X215883375Y-122756345D01*
X215745516Y-122480414D01*
X215649284Y-122103226D01*
X215614924Y-121664468D01*
X215636809Y-121205480D01*
X215709314Y-120767597D01*
X215826811Y-120392158D01*
X215983676Y-120120500D01*
X216078423Y-120034311D01*
X216206739Y-119973202D01*
X216335810Y-119991961D01*
X216526189Y-120102567D01*
X216569016Y-120131373D01*
X216816758Y-120285788D01*
X216960887Y-120327535D01*
X217027973Y-120252232D01*
X217044585Y-120055499D01*
X217044587Y-120052957D01*
X217068190Y-119841202D01*
X217125790Y-119712530D01*
X217133509Y-119706663D01*
X217272495Y-119707327D01*
G37*
G36*
X84365262Y-125104960D02*
G01*
X84386257Y-125312665D01*
X84322021Y-125592020D01*
X84284977Y-125732305D01*
X84321752Y-125752608D01*
X84464995Y-125665972D01*
X84480951Y-125655520D01*
X84738176Y-125520921D01*
X84893485Y-125520429D01*
X84945980Y-125653800D01*
X84931882Y-125778318D01*
X84760315Y-126240242D01*
X84442240Y-126699481D01*
X83999250Y-127132954D01*
X83452937Y-127517584D01*
X83149265Y-127683631D01*
X82850824Y-127854655D01*
X82571948Y-128049971D01*
X82461353Y-128144026D01*
X82290185Y-128282812D01*
X82167785Y-128339234D01*
X82143853Y-128332672D01*
X82101868Y-128203128D01*
X82087680Y-127967743D01*
X82100055Y-127687501D01*
X82137759Y-127423389D01*
X82164328Y-127320761D01*
X82224500Y-127081939D01*
X82281062Y-126778473D01*
X82296310Y-126674499D01*
X82417775Y-126305919D01*
X82665584Y-125925017D01*
X83004902Y-125571383D01*
X83400895Y-125284606D01*
X83614516Y-125176389D01*
X83987167Y-125041389D01*
X84234825Y-125016057D01*
X84365262Y-125104960D01*
G37*
G36*
X163487939Y-124121765D02*
G01*
X163577171Y-124191654D01*
X163596679Y-124336758D01*
X163573777Y-124515507D01*
X163516531Y-124854342D01*
X163714065Y-124715985D01*
X163915835Y-124612853D01*
X164096291Y-124580231D01*
X164202610Y-124623905D01*
X164212587Y-124661386D01*
X164184372Y-124781999D01*
X164111753Y-125003534D01*
X164044916Y-125186417D01*
X163852050Y-125546971D01*
X163553437Y-125938175D01*
X163193568Y-126312555D01*
X162816931Y-126622638D01*
X162544971Y-126786998D01*
X162274517Y-126952665D01*
X161984574Y-127181431D01*
X161851800Y-127307116D01*
X161513911Y-127655238D01*
X161455859Y-127423939D01*
X161432086Y-127180579D01*
X161441976Y-126827293D01*
X161479052Y-126418126D01*
X161536837Y-126007126D01*
X161608855Y-125648341D01*
X161688629Y-125395816D01*
X161702250Y-125367806D01*
X161901748Y-125079228D01*
X162179967Y-124790219D01*
X162502777Y-124524599D01*
X162836045Y-124306182D01*
X163145639Y-124158788D01*
X163397427Y-124106232D01*
X163487939Y-124121765D01*
G37*
G36*
X82564378Y-111804353D02*
G01*
X82663337Y-111937070D01*
X82678587Y-112066551D01*
X82744519Y-112225056D01*
X82906491Y-112285822D01*
X83110767Y-112230110D01*
X83124275Y-112221981D01*
X83313863Y-112174426D01*
X83470008Y-112270462D01*
X83585153Y-112486339D01*
X83651741Y-112798304D01*
X83662215Y-113182606D01*
X83609017Y-113615495D01*
X83592682Y-113694092D01*
X83523055Y-113931665D01*
X83411689Y-114139927D01*
X83227539Y-114365261D01*
X82969322Y-114625425D01*
X82596077Y-114976783D01*
X82295424Y-115235200D01*
X82025480Y-115432513D01*
X81744365Y-115600562D01*
X81559078Y-115697478D01*
X81334497Y-115821623D01*
X81188379Y-115923070D01*
X81156912Y-115962794D01*
X81213484Y-116025097D01*
X81361127Y-115997766D01*
X81554570Y-115891590D01*
X81601023Y-115856961D01*
X81766445Y-115739683D01*
X81871977Y-115687768D01*
X81874538Y-115687627D01*
X81977911Y-115643557D01*
X82148359Y-115536859D01*
X82157516Y-115530489D01*
X82353383Y-115418878D01*
X82509078Y-115370956D01*
X82509253Y-115370953D01*
X82651085Y-115361939D01*
X82909716Y-115340307D01*
X83233462Y-115310427D01*
X83289593Y-115305003D01*
X83942932Y-115241450D01*
X84528869Y-115595478D01*
X84824557Y-115782521D01*
X85075764Y-115956500D01*
X85235963Y-116084862D01*
X85252766Y-116101951D01*
X85333843Y-116214242D01*
X85315627Y-116312997D01*
X85185106Y-116459999D01*
X85175290Y-116469833D01*
X85035794Y-116635692D01*
X85011730Y-116772180D01*
X85051926Y-116887348D01*
X85095561Y-117166789D01*
X84993191Y-117433803D01*
X84765074Y-117643880D01*
X84689958Y-117682652D01*
X84458802Y-117797014D01*
X84276676Y-117903876D01*
X84270449Y-117908205D01*
X84074303Y-117961428D01*
X83763762Y-117949348D01*
X83376110Y-117881940D01*
X82948631Y-117769181D01*
X82518612Y-117621046D01*
X82123335Y-117447510D01*
X81800087Y-117258550D01*
X81774985Y-117240530D01*
X81506384Y-117043692D01*
X81709775Y-117562683D01*
X81921226Y-118198347D01*
X82014012Y-118745114D01*
X81987958Y-119235058D01*
X81842888Y-119700255D01*
X81696495Y-119984520D01*
X81520787Y-120250073D01*
X81332679Y-120480762D01*
X81167204Y-120637357D01*
X81072770Y-120682961D01*
X80984212Y-120629166D01*
X80839143Y-120499201D01*
X80833780Y-120493857D01*
X80681937Y-120370156D01*
X80557980Y-120366825D01*
X80477447Y-120409191D01*
X80202129Y-120507185D01*
X79959846Y-120447966D01*
X79863551Y-120365461D01*
X79679971Y-120101680D01*
X79502872Y-119755755D01*
X79372369Y-119411503D01*
X79336964Y-119265249D01*
X79342384Y-118975844D01*
X79425914Y-118590375D01*
X79571471Y-118153495D01*
X79762976Y-117709858D01*
X79984344Y-117304118D01*
X80111024Y-117115972D01*
X80315217Y-116834545D01*
X80429165Y-116661705D01*
X80465453Y-116571502D01*
X80457397Y-116562124D01*
X81183200Y-116562124D01*
X81185761Y-116659388D01*
X81239253Y-116788294D01*
X81327657Y-116911954D01*
X81379973Y-116929797D01*
X81377412Y-116832533D01*
X81323920Y-116703627D01*
X81235516Y-116579967D01*
X81183200Y-116562124D01*
X80457397Y-116562124D01*
X80436664Y-116537987D01*
X80393118Y-116534294D01*
X80298308Y-116597479D01*
X80151535Y-116758232D01*
X80066411Y-116869153D01*
X79840041Y-117132885D01*
X79524721Y-117439226D01*
X79171092Y-117744283D01*
X78829794Y-118004166D01*
X78571138Y-118165159D01*
X78130173Y-118315747D01*
X77631697Y-118368447D01*
X77169233Y-118315675D01*
X76746475Y-118194505D01*
X76477809Y-118078623D01*
X76349320Y-117952165D01*
X76347093Y-117799265D01*
X76457213Y-117604060D01*
X76497920Y-117550294D01*
X76632475Y-117355131D01*
X76640400Y-117252186D01*
X76515351Y-117214491D01*
X76418250Y-117211627D01*
X76223221Y-117186218D01*
X76118252Y-117129115D01*
X76119554Y-116994115D01*
X76200788Y-116771860D01*
X76336542Y-116507672D01*
X76501401Y-116246870D01*
X76669950Y-116034775D01*
X76790308Y-115930660D01*
X77002263Y-115833558D01*
X77311994Y-115728377D01*
X77637710Y-115641516D01*
X78358560Y-115550755D01*
X79034387Y-115620519D01*
X79520759Y-115779655D01*
X79791632Y-115876386D01*
X80033676Y-115930233D01*
X80208539Y-115937103D01*
X80277871Y-115892903D01*
X80267029Y-115859294D01*
X80159785Y-115787897D01*
X79951269Y-115706841D01*
X79859865Y-115679667D01*
X79429329Y-115533000D01*
X78967810Y-115328417D01*
X78533025Y-115095848D01*
X80626343Y-115095848D01*
X80630517Y-115137294D01*
X80661653Y-115332989D01*
X80693483Y-115431004D01*
X80698183Y-115433627D01*
X80720056Y-115359080D01*
X80730973Y-115175813D01*
X80731253Y-115137294D01*
X80714246Y-114941369D01*
X80672432Y-114843499D01*
X80663588Y-114840961D01*
X80627668Y-114914573D01*
X80626343Y-115095848D01*
X78533025Y-115095848D01*
X78528946Y-115093666D01*
X78166374Y-114856497D01*
X78000872Y-114717943D01*
X77647758Y-114271992D01*
X77423727Y-113763019D01*
X77340280Y-113228646D01*
X77397951Y-112745461D01*
X77465353Y-112616722D01*
X77609618Y-112562808D01*
X77774816Y-112554961D01*
X78061906Y-112499802D01*
X78226281Y-112329082D01*
X78275920Y-112052527D01*
X78282984Y-111947377D01*
X78325423Y-111896320D01*
X78435105Y-111899640D01*
X78643896Y-111957624D01*
X78948174Y-112058570D01*
X79254601Y-112193693D01*
X79564344Y-112381969D01*
X79839689Y-112593792D01*
X80042925Y-112799554D01*
X80136340Y-112969648D01*
X80138587Y-112993148D01*
X80171221Y-113112543D01*
X80253623Y-113322139D01*
X80299941Y-113427439D01*
X80416605Y-113746765D01*
X80506497Y-114100058D01*
X80521377Y-114185835D01*
X80573764Y-114433767D01*
X80638522Y-114605339D01*
X80669572Y-114643500D01*
X80721239Y-114618540D01*
X80706404Y-114441798D01*
X80703837Y-114428712D01*
X80696428Y-114166122D01*
X80744323Y-113797654D01*
X80836929Y-113373416D01*
X80963659Y-112943517D01*
X81085740Y-112621625D01*
X81242036Y-112333994D01*
X81444409Y-112144816D01*
X81620992Y-112046603D01*
X82053524Y-111859314D01*
X82364547Y-111778499D01*
X82564378Y-111804353D01*
G37*
G36*
X70114190Y-110786278D02*
G01*
X70224197Y-110967639D01*
X70235402Y-110996032D01*
X70331079Y-111156475D01*
X70479507Y-111187003D01*
X70534607Y-111178485D01*
X70789251Y-111190505D01*
X70972158Y-111343099D01*
X71088979Y-111643379D01*
X71133204Y-111931924D01*
X71144478Y-112342330D01*
X71101482Y-112688368D01*
X71081319Y-112760368D01*
X70945926Y-113015295D01*
X70705000Y-113327313D01*
X70394261Y-113660126D01*
X70049431Y-113977438D01*
X69706230Y-114242954D01*
X69491753Y-114375535D01*
X69254919Y-114514431D01*
X69093676Y-114631776D01*
X69047253Y-114690789D01*
X69111614Y-114729839D01*
X69274407Y-114693749D01*
X69490204Y-114596690D01*
X69639920Y-114505899D01*
X69878089Y-114386101D01*
X70226291Y-114259702D01*
X70626760Y-114142830D01*
X71021728Y-114051609D01*
X71353427Y-114002167D01*
X71460253Y-113997742D01*
X71859192Y-114052351D01*
X72279398Y-114191527D01*
X72674875Y-114391453D01*
X72999627Y-114628315D01*
X73207656Y-114878297D01*
X73223901Y-114910894D01*
X73265548Y-115050047D01*
X73222426Y-115169370D01*
X73070699Y-115322634D01*
X73023081Y-115363930D01*
X72869218Y-115518820D01*
X72809534Y-115628297D01*
X72824080Y-115654383D01*
X72964972Y-115733736D01*
X73074884Y-115808519D01*
X73159875Y-115897987D01*
X73156447Y-116000372D01*
X73049912Y-116139323D01*
X72825586Y-116338491D01*
X72666029Y-116466965D01*
X72409430Y-116637585D01*
X72146317Y-116728431D01*
X71831867Y-116745429D01*
X71421263Y-116694507D01*
X71225248Y-116657489D01*
X70642832Y-116490293D01*
X70115929Y-116242987D01*
X69691245Y-115939437D01*
X69559237Y-115806229D01*
X69333341Y-115583316D01*
X69119535Y-115430323D01*
X68954699Y-115370375D01*
X68894129Y-115389195D01*
X68922546Y-115467578D01*
X69054003Y-115609649D01*
X69173484Y-115713555D01*
X69773450Y-116269673D01*
X70225522Y-116840683D01*
X70525251Y-117417154D01*
X70668192Y-117989651D01*
X70649897Y-118548744D01*
X70602840Y-118745401D01*
X70499528Y-119025687D01*
X70377909Y-119264996D01*
X70332084Y-119331004D01*
X70217672Y-119449105D01*
X70099300Y-119475135D01*
X69905917Y-119420968D01*
X69870266Y-119408187D01*
X69655057Y-119344024D01*
X69517875Y-119358231D01*
X69388988Y-119452517D01*
X69260243Y-119607374D01*
X69216587Y-119722416D01*
X69193804Y-119815134D01*
X69113579Y-119811604D01*
X68958096Y-119702541D01*
X68709539Y-119478660D01*
X68661704Y-119433245D01*
X68416000Y-119172111D01*
X68202547Y-118898885D01*
X68085219Y-118705849D01*
X67960928Y-118295880D01*
X67915331Y-117787614D01*
X67950757Y-117233890D01*
X68006723Y-116924222D01*
X68069046Y-116605549D01*
X68082166Y-116428753D01*
X68048391Y-116400171D01*
X67970025Y-116526137D01*
X67910413Y-116659610D01*
X67761015Y-116942176D01*
X67538609Y-117275272D01*
X67277157Y-117616285D01*
X67010624Y-117922601D01*
X66772975Y-118151606D01*
X66653058Y-118237179D01*
X66426605Y-118310512D01*
X66105663Y-118355526D01*
X65763395Y-118367694D01*
X65472965Y-118342491D01*
X65374691Y-118316262D01*
X65221951Y-118237059D01*
X65176513Y-118119694D01*
X65198855Y-117940096D01*
X65219606Y-117736479D01*
X65165274Y-117635076D01*
X65076560Y-117595370D01*
X64901221Y-117570171D01*
X64821503Y-117587940D01*
X64707657Y-117574414D01*
X64609003Y-117502615D01*
X64529577Y-117308965D01*
X64560308Y-117019026D01*
X64693425Y-116658023D01*
X64921156Y-116251184D01*
X64960288Y-116194199D01*
X68126588Y-116194199D01*
X68126615Y-116195627D01*
X68157106Y-116216450D01*
X68228419Y-116105449D01*
X68245978Y-116068627D01*
X68326803Y-115853333D01*
X68359251Y-115689055D01*
X68359225Y-115687627D01*
X68328734Y-115666804D01*
X68257421Y-115777805D01*
X68239862Y-115814627D01*
X68159037Y-116029921D01*
X68126588Y-116194199D01*
X64960288Y-116194199D01*
X65054218Y-116057415D01*
X65241553Y-115839828D01*
X65466876Y-115676663D01*
X65787270Y-115529077D01*
X65886740Y-115490877D01*
X66456089Y-115289653D01*
X66930979Y-115153673D01*
X67367350Y-115070373D01*
X67821139Y-115027184D01*
X67984687Y-115019576D01*
X68148230Y-114995035D01*
X68157149Y-114934456D01*
X68143763Y-114919604D01*
X68026352Y-114876703D01*
X67788205Y-114876389D01*
X67407867Y-114918655D01*
X67402551Y-114919393D01*
X67044919Y-114961829D01*
X66802936Y-114967567D01*
X66626505Y-114934576D01*
X66506846Y-114883083D01*
X66256974Y-114790887D01*
X66034618Y-114756294D01*
X65704156Y-114675272D01*
X65350388Y-114438641D01*
X65129334Y-114205961D01*
X68301759Y-114205961D01*
X68310910Y-114350556D01*
X68337415Y-114363287D01*
X68340789Y-114355739D01*
X68357538Y-114187659D01*
X68343926Y-114101739D01*
X68316976Y-114067211D01*
X68302317Y-114179668D01*
X68301759Y-114205961D01*
X65129334Y-114205961D01*
X64986919Y-114056056D01*
X64911665Y-113959443D01*
X64650948Y-113578561D01*
X64517958Y-113290049D01*
X64508607Y-113079981D01*
X64612222Y-112939141D01*
X64760112Y-112864063D01*
X64834153Y-112863798D01*
X64953883Y-112876458D01*
X65011201Y-112769329D01*
X64985697Y-112603720D01*
X64976423Y-112382400D01*
X65120146Y-112200836D01*
X65403071Y-112069556D01*
X65773891Y-112002289D01*
X66085769Y-111987546D01*
X66318187Y-112025667D01*
X66557379Y-112134598D01*
X66641894Y-112182915D01*
X66859544Y-112334178D01*
X67125047Y-112553030D01*
X67408267Y-112809993D01*
X67679071Y-113075586D01*
X67907324Y-113320333D01*
X68062889Y-113514753D01*
X68115920Y-113624847D01*
X68164108Y-113754872D01*
X68185738Y-113773450D01*
X68224967Y-113721194D01*
X68255200Y-113541581D01*
X68267663Y-113333947D01*
X68308170Y-112846060D01*
X68397026Y-112359936D01*
X68520330Y-111942559D01*
X68589592Y-111782487D01*
X68715676Y-111607867D01*
X68925016Y-111387124D01*
X69107398Y-111223370D01*
X69480746Y-110932333D01*
X69760782Y-110764933D01*
X69965825Y-110717479D01*
X70114190Y-110786278D01*
G37*
G36*
X205887500Y-101844597D02*
G01*
X205989173Y-101929539D01*
X205994316Y-101936222D01*
X206093478Y-102121561D01*
X206119894Y-102238111D01*
X206174135Y-102339383D01*
X206352238Y-102366285D01*
X206385911Y-102365111D01*
X206653423Y-102427334D01*
X206848636Y-102638870D01*
X206967422Y-102994026D01*
X206995372Y-103205357D01*
X207003227Y-103472546D01*
X206960504Y-103693966D01*
X206847827Y-103941629D01*
X206751878Y-104110261D01*
X206586411Y-104355800D01*
X206364414Y-104638259D01*
X206114801Y-104926361D01*
X205866486Y-105188831D01*
X205648383Y-105394395D01*
X205489404Y-105511776D01*
X205441537Y-105527627D01*
X205362360Y-105578224D01*
X205360690Y-105591127D01*
X205437817Y-105623591D01*
X205638868Y-105645399D01*
X205889856Y-105651623D01*
X206600972Y-105704785D01*
X207197370Y-105877340D01*
X207690494Y-106175732D01*
X208091788Y-106606409D01*
X208347086Y-107035625D01*
X208485427Y-107315955D01*
X208194144Y-107487816D01*
X208007095Y-107620382D01*
X207954870Y-107731732D01*
X207976386Y-107800152D01*
X208021483Y-108026785D01*
X207907598Y-108214532D01*
X207642481Y-108354080D01*
X207478868Y-108398038D01*
X207062223Y-108470409D01*
X206741670Y-108477222D01*
X206455828Y-108415168D01*
X206249587Y-108331776D01*
X206051747Y-108211665D01*
X205798613Y-108017912D01*
X205523009Y-107781074D01*
X205257758Y-107531706D01*
X205035682Y-107300364D01*
X204889607Y-107117606D01*
X204849542Y-107028436D01*
X204796223Y-106901434D01*
X204667922Y-106717152D01*
X204629528Y-106670627D01*
X204412560Y-106416627D01*
X204468488Y-106663945D01*
X204562855Y-106917695D01*
X204672328Y-107099302D01*
X204775997Y-107280845D01*
X204893139Y-107558698D01*
X204976818Y-107804484D01*
X205073091Y-108092103D01*
X205157373Y-108249958D01*
X205253840Y-108313710D01*
X205327414Y-108321627D01*
X205581720Y-108387583D01*
X205888500Y-108563163D01*
X206209622Y-108814941D01*
X206506953Y-109109486D01*
X206742362Y-109413371D01*
X206872683Y-109676294D01*
X206932204Y-109948797D01*
X206985164Y-110338575D01*
X207027881Y-110793592D01*
X207056673Y-111261815D01*
X207067860Y-111691208D01*
X207057760Y-112029738D01*
X207046390Y-112131627D01*
X207015511Y-112417616D01*
X207033654Y-112550640D01*
X207099654Y-112526598D01*
X207141894Y-112467842D01*
X207182253Y-112323204D01*
X207211111Y-112066178D01*
X207221957Y-111767302D01*
X207235341Y-111417129D01*
X207284102Y-111169435D01*
X207384009Y-110958505D01*
X207434920Y-110879815D01*
X207564145Y-110671282D01*
X207639053Y-110514866D01*
X207646587Y-110480627D01*
X207690931Y-110362533D01*
X207802842Y-110166606D01*
X207864779Y-110071836D01*
X208045247Y-109862128D01*
X208300394Y-109675674D01*
X208672526Y-109482319D01*
X208727095Y-109457201D01*
X209137242Y-109274474D01*
X209423139Y-109161682D01*
X209612324Y-109113695D01*
X209732334Y-109125386D01*
X209810706Y-109191625D01*
X209845722Y-109248853D01*
X209913008Y-109472358D01*
X209916178Y-109616119D01*
X209924810Y-109751401D01*
X210035165Y-109784138D01*
X210106453Y-109778248D01*
X210347059Y-109825947D01*
X210530492Y-110001681D01*
X210618792Y-110265242D01*
X210621692Y-110323950D01*
X210604270Y-110786238D01*
X210538022Y-111130391D01*
X210408188Y-111404148D01*
X210214798Y-111640138D01*
X209920061Y-111907896D01*
X209552930Y-112189688D01*
X209159834Y-112454652D01*
X208787202Y-112671925D01*
X208481465Y-112810646D01*
X208428923Y-112827241D01*
X208112253Y-112916080D01*
X208747253Y-113067749D01*
X209415366Y-113269051D01*
X209944318Y-113531300D01*
X210359796Y-113876737D01*
X210687490Y-114327604D01*
X210953088Y-114906145D01*
X210990972Y-115010440D01*
X211055316Y-115283721D01*
X211001606Y-115457259D01*
X210814169Y-115566190D01*
X210732057Y-115590847D01*
X210541239Y-115686793D01*
X210443916Y-115877650D01*
X210430229Y-115936867D01*
X210364431Y-116151182D01*
X210250871Y-116280270D01*
X210054160Y-116341219D01*
X209738911Y-116351119D01*
X209584563Y-116345237D01*
X209144795Y-116287784D01*
X208775887Y-116147469D01*
X208445600Y-115902528D01*
X208121694Y-115531196D01*
X207894388Y-115204220D01*
X207699767Y-114889957D01*
X207541339Y-114604199D01*
X207444094Y-114393226D01*
X207427997Y-114340493D01*
X207361817Y-114112382D01*
X207302806Y-113974276D01*
X207234397Y-113784911D01*
X207223253Y-113699109D01*
X207177893Y-113585702D01*
X207138587Y-113570961D01*
X207069412Y-113641104D01*
X207059308Y-113817658D01*
X207104461Y-114049807D01*
X207190841Y-114267479D01*
X207263930Y-114477372D01*
X207310275Y-114787204D01*
X207333512Y-115225824D01*
X207336989Y-115427442D01*
X207329684Y-115946538D01*
X207285430Y-116343397D01*
X207189132Y-116663695D01*
X207025693Y-116953113D01*
X206780019Y-117257329D01*
X206704935Y-117340015D01*
X206354232Y-117681667D01*
X206072137Y-117870551D01*
X205856624Y-117907795D01*
X205765877Y-117864166D01*
X205649744Y-117717156D01*
X205537486Y-117498804D01*
X205530939Y-117482499D01*
X205421152Y-117203037D01*
X205178644Y-117435374D01*
X205038287Y-117558294D01*
X204931054Y-117598848D01*
X204831650Y-117539977D01*
X204714778Y-117364623D01*
X204555141Y-117055727D01*
X204524753Y-116994413D01*
X204401815Y-116727433D01*
X204335298Y-116505812D01*
X204327252Y-116286052D01*
X204379726Y-116024651D01*
X204494770Y-115678110D01*
X204600015Y-115397233D01*
X204848177Y-114935670D01*
X205249267Y-114441274D01*
X205792915Y-113926010D01*
X206075422Y-113695129D01*
X206258694Y-113526982D01*
X206360468Y-113384946D01*
X206368252Y-113334290D01*
X206288828Y-113322817D01*
X206108587Y-113426512D01*
X205921993Y-113570401D01*
X205286789Y-114022290D01*
X204646444Y-114340232D01*
X204017510Y-114522288D01*
X203416541Y-114566520D01*
X202860091Y-114470992D01*
X202364711Y-114233764D01*
X202098857Y-114017934D01*
X201801254Y-113728906D01*
X201972254Y-113511515D01*
X202121637Y-113227623D01*
X202107980Y-112971315D01*
X202087944Y-112946571D01*
X207634837Y-112946571D01*
X207747294Y-112961230D01*
X207773587Y-112961788D01*
X207918182Y-112952637D01*
X207930913Y-112926132D01*
X207923365Y-112922758D01*
X207755285Y-112906009D01*
X207669365Y-112919621D01*
X207634837Y-112946571D01*
X202087944Y-112946571D01*
X201932043Y-112754035D01*
X201921432Y-112746165D01*
X201699611Y-112584580D01*
X202213587Y-112198217D01*
X202688042Y-111887872D01*
X203127426Y-111713462D01*
X203580475Y-111663783D01*
X204095926Y-111727630D01*
X204180438Y-111746033D01*
X205023691Y-112020060D01*
X205850886Y-112456771D01*
X205971923Y-112535032D01*
X206173735Y-112652499D01*
X206314130Y-112704669D01*
X206344532Y-112699904D01*
X206303105Y-112637021D01*
X206146654Y-112520973D01*
X205927109Y-112387405D01*
X205325495Y-111986289D01*
X204771141Y-111480696D01*
X204230159Y-110839536D01*
X204208117Y-110810363D01*
X203999405Y-110537419D01*
X203830511Y-110324728D01*
X203725592Y-110202311D01*
X203704263Y-110184294D01*
X203647634Y-110251032D01*
X203553005Y-110413866D01*
X203541760Y-110435380D01*
X203444174Y-110586042D01*
X203341498Y-110631606D01*
X203208450Y-110562694D01*
X203019749Y-110369929D01*
X202863462Y-110183791D01*
X202669563Y-109923151D01*
X202554315Y-109686655D01*
X202507836Y-109425153D01*
X202520246Y-109089492D01*
X202568576Y-108716784D01*
X202708245Y-108111963D01*
X202947134Y-107596067D01*
X203315187Y-107107128D01*
X203381708Y-107034088D01*
X203591256Y-106777411D01*
X203721882Y-106553625D01*
X203750981Y-106441421D01*
X203740864Y-106334882D01*
X203694528Y-106337964D01*
X203585706Y-106462430D01*
X203522793Y-106543627D01*
X203169957Y-106960490D01*
X202773639Y-107358315D01*
X202373628Y-107701324D01*
X202009714Y-107953739D01*
X201875415Y-108024967D01*
X201318658Y-108203385D01*
X200761718Y-108230200D01*
X200237181Y-108105014D01*
X200108026Y-108046461D01*
X199883618Y-107918219D01*
X199772717Y-107789076D01*
X199755412Y-107607016D01*
X199811792Y-107320027D01*
X199818863Y-107291084D01*
X199833562Y-107123264D01*
X199747768Y-107009077D01*
X199611857Y-106929076D01*
X199436423Y-106821125D01*
X199350887Y-106734665D01*
X199349253Y-106726360D01*
X199404241Y-106638482D01*
X199550569Y-106463280D01*
X199760287Y-106233608D01*
X199836087Y-106154113D01*
X200235137Y-105788022D01*
X200466657Y-105645479D01*
X202820587Y-105645479D01*
X202892695Y-105697692D01*
X203068980Y-105763619D01*
X203095753Y-105771570D01*
X203357060Y-105840958D01*
X203476949Y-105854547D01*
X203473536Y-105813303D01*
X203451353Y-105790547D01*
X203419343Y-105773679D01*
X204720674Y-105773679D01*
X204816416Y-105808768D01*
X204968929Y-105800392D01*
X205087899Y-105758909D01*
X205106587Y-105729419D01*
X205033767Y-105705198D01*
X204889923Y-105696961D01*
X204746427Y-105721592D01*
X204720674Y-105773679D01*
X203419343Y-105773679D01*
X203333017Y-105728189D01*
X203148235Y-105670695D01*
X202961772Y-105632958D01*
X202838392Y-105629875D01*
X202820587Y-105645479D01*
X200466657Y-105645479D01*
X200576026Y-105578142D01*
X200658531Y-105548239D01*
X200920155Y-105503833D01*
X201289322Y-105482559D01*
X201705956Y-105483521D01*
X202109979Y-105505821D01*
X202441315Y-105548562D01*
X202558659Y-105576611D01*
X202701341Y-105599747D01*
X202707626Y-105550343D01*
X202590725Y-105464914D01*
X202429249Y-105405598D01*
X202201976Y-105309959D01*
X201897324Y-105131265D01*
X201562077Y-104901600D01*
X201243021Y-104653047D01*
X200986943Y-104417690D01*
X200983714Y-104414312D01*
X200805364Y-104187842D01*
X200707033Y-103937089D01*
X200662600Y-103658809D01*
X200649508Y-103349123D01*
X200671306Y-103072703D01*
X200699712Y-102956361D01*
X200778467Y-102803671D01*
X200894649Y-102757628D01*
X201078715Y-102780383D01*
X201269872Y-102806371D01*
X201356813Y-102759138D01*
X201389752Y-102597223D01*
X201396810Y-102517739D01*
X201467875Y-102227978D01*
X201622722Y-102084872D01*
X201866008Y-102085364D01*
X201992933Y-102126573D01*
X202231293Y-102212235D01*
X202426294Y-102269433D01*
X202432038Y-102270709D01*
X202744080Y-102404353D01*
X203058296Y-102645403D01*
X203315190Y-102943561D01*
X203398612Y-103087874D01*
X203516087Y-103344505D01*
X203629214Y-103610232D01*
X203717567Y-103834851D01*
X203760722Y-103968160D01*
X203762066Y-103981215D01*
X203782482Y-104066525D01*
X203836532Y-104262222D01*
X203877346Y-104404548D01*
X203964887Y-104753304D01*
X204038568Y-105124344D01*
X204053054Y-105216493D01*
X204103325Y-105465070D01*
X204161757Y-105553760D01*
X204200037Y-105536710D01*
X204244447Y-105395903D01*
X204196340Y-105138453D01*
X204193316Y-105128178D01*
X204093149Y-104605230D01*
X204098171Y-104105418D01*
X204155506Y-103834294D01*
X204239903Y-103551138D01*
X204327913Y-103233624D01*
X204342419Y-103178471D01*
X204426176Y-102953346D01*
X204571019Y-102745112D01*
X204810765Y-102510076D01*
X204955083Y-102386867D01*
X205312931Y-102099097D01*
X205572321Y-101919427D01*
X205756197Y-101837910D01*
X205887500Y-101844597D01*
G37*
G36*
X255636074Y-114187206D02*
G01*
X256021650Y-114336694D01*
X256175653Y-114449836D01*
X256356699Y-114618506D01*
X256083854Y-114846287D01*
X255811008Y-115074068D01*
X256118076Y-115131674D01*
X256338720Y-115208333D01*
X256396382Y-115322331D01*
X256292372Y-115469994D01*
X256027998Y-115647644D01*
X255912571Y-115708794D01*
X255652176Y-115828182D01*
X255413463Y-115898698D01*
X255134363Y-115932463D01*
X254752809Y-115941597D01*
X254720182Y-115941627D01*
X254384224Y-115936338D01*
X254117027Y-115922223D01*
X253960615Y-115901905D01*
X253938648Y-115892800D01*
X253837609Y-115864505D01*
X253608998Y-115830361D01*
X253294180Y-115796084D01*
X253141371Y-115782626D01*
X252392920Y-115721278D01*
X252900920Y-115215607D01*
X253289766Y-114838833D01*
X253600552Y-114568702D01*
X253866745Y-114384442D01*
X254121814Y-114265280D01*
X254399227Y-114190442D01*
X254608884Y-114155514D01*
X255153445Y-114124613D01*
X255636074Y-114187206D01*
G37*
G36*
X255578098Y-102046943D02*
G01*
X255693131Y-102235503D01*
X255737253Y-102474061D01*
X255776168Y-102624253D01*
X255880525Y-102623924D01*
X255991253Y-102521961D01*
X256150102Y-102410616D01*
X256306073Y-102414569D01*
X256365476Y-102468662D01*
X256410097Y-102585470D01*
X256478617Y-102811803D01*
X256537688Y-103028651D01*
X256603522Y-103302024D01*
X256619397Y-103492969D01*
X256577512Y-103673758D01*
X256470069Y-103916660D01*
X256433716Y-103992116D01*
X256084489Y-104540312D01*
X255611287Y-105029102D01*
X255058673Y-105415462D01*
X254850815Y-105520313D01*
X254540827Y-105673951D01*
X254327916Y-105805852D01*
X254229966Y-105902077D01*
X254264862Y-105948688D01*
X254298258Y-105950961D01*
X254417850Y-105916225D01*
X254640942Y-105825065D01*
X254919715Y-105697052D01*
X254925569Y-105694231D01*
X255225681Y-105567535D01*
X255575047Y-105447032D01*
X255931061Y-105344050D01*
X256251121Y-105269920D01*
X256492622Y-105235971D01*
X256605087Y-105247601D01*
X256629083Y-105340105D01*
X256647207Y-105563760D01*
X256659525Y-105883652D01*
X256666106Y-106264865D01*
X256667016Y-106672484D01*
X256662323Y-107071595D01*
X256652095Y-107427281D01*
X256636398Y-107704629D01*
X256615300Y-107868723D01*
X256599974Y-107898294D01*
X256491058Y-107869388D01*
X256273545Y-107793842D01*
X256012654Y-107695014D01*
X255571004Y-107494152D01*
X255155207Y-107238886D01*
X254712982Y-106895266D01*
X254509587Y-106718913D01*
X254421447Y-106648198D01*
X254443042Y-106687773D01*
X254565816Y-106826763D01*
X254738696Y-107010113D01*
X255122476Y-107454926D01*
X255450149Y-107921537D01*
X255702592Y-108376153D01*
X255860679Y-108784977D01*
X255906587Y-109073876D01*
X255869267Y-109345567D01*
X255773427Y-109645244D01*
X255643241Y-109917803D01*
X255502885Y-110108142D01*
X255431206Y-110157404D01*
X255263514Y-110157625D01*
X255104615Y-110100891D01*
X254889622Y-110039650D01*
X254756410Y-110117550D01*
X254721253Y-110273957D01*
X254660214Y-110409762D01*
X254502144Y-110448149D01*
X254284613Y-110394445D01*
X254045189Y-110253976D01*
X253939537Y-110163127D01*
X253557916Y-109737842D01*
X253330704Y-109341756D01*
X253260013Y-109083627D01*
X253246511Y-108805524D01*
X253263528Y-108416893D01*
X253305013Y-107972542D01*
X253364916Y-107527282D01*
X253437186Y-107135920D01*
X253501930Y-106892176D01*
X253570153Y-106649892D01*
X253587096Y-106503160D01*
X253555239Y-106474097D01*
X253477064Y-106584816D01*
X253469142Y-106599876D01*
X253404097Y-106767433D01*
X253323680Y-107030445D01*
X253273237Y-107220961D01*
X253157768Y-107557413D01*
X253011384Y-107796609D01*
X252964183Y-107842270D01*
X252779612Y-108036962D01*
X252646506Y-108237761D01*
X252388784Y-108558171D01*
X252001028Y-108796698D01*
X251615861Y-108916633D01*
X251206902Y-109000536D01*
X250933597Y-109051209D01*
X250765484Y-109068281D01*
X250672103Y-109051377D01*
X250622992Y-109000126D01*
X250587690Y-108914154D01*
X250583883Y-108903995D01*
X250553167Y-108668436D01*
X250585570Y-108554461D01*
X250614727Y-108444768D01*
X250517197Y-108408073D01*
X250451544Y-108406294D01*
X250245461Y-108342007D01*
X250152232Y-108242527D01*
X250088660Y-108044018D01*
X250066965Y-107809816D01*
X250088519Y-107610740D01*
X250138317Y-107524052D01*
X250207086Y-107415145D01*
X250260112Y-107238166D01*
X250353739Y-107041628D01*
X250570757Y-106834821D01*
X250757881Y-106703061D01*
X251133859Y-106480061D01*
X251530728Y-106283345D01*
X251902615Y-106132583D01*
X252203642Y-106047444D01*
X252314547Y-106035627D01*
X252489325Y-106002681D01*
X252541105Y-105965959D01*
X252864670Y-105965959D01*
X252926215Y-106024490D01*
X252943253Y-106035627D01*
X253098378Y-106110419D01*
X253172418Y-106097989D01*
X253154920Y-106035627D01*
X253034091Y-105961958D01*
X252959423Y-105952257D01*
X252864670Y-105965959D01*
X252541105Y-105965959D01*
X252562253Y-105950961D01*
X252541953Y-105879394D01*
X252476493Y-105866294D01*
X252314824Y-105820577D01*
X252059064Y-105699164D01*
X251752282Y-105525658D01*
X251437546Y-105323664D01*
X251275348Y-105208002D01*
X250984421Y-104896269D01*
X250746153Y-104443819D01*
X250572908Y-103874402D01*
X250567028Y-103847294D01*
X250518355Y-103523642D01*
X250551139Y-103327172D01*
X250679542Y-103229681D01*
X250890390Y-103203224D01*
X251074529Y-103161413D01*
X251148019Y-103021428D01*
X251149999Y-103008608D01*
X251251752Y-102800772D01*
X251468899Y-102692764D01*
X251778850Y-102686265D01*
X252159010Y-102782954D01*
X252452517Y-102911768D01*
X252763131Y-103153684D01*
X253046990Y-103533457D01*
X253288376Y-104019972D01*
X253471570Y-104582113D01*
X253574387Y-105132589D01*
X253619348Y-105424510D01*
X253661261Y-105553008D01*
X253697915Y-105523995D01*
X253727103Y-105343377D01*
X253746614Y-105017065D01*
X253753787Y-104652753D01*
X253783999Y-104006706D01*
X253869964Y-103494783D01*
X254020294Y-103088467D01*
X254243602Y-102759243D01*
X254363044Y-102635375D01*
X254662673Y-102380687D01*
X254969585Y-102167359D01*
X255240918Y-102022140D01*
X255426768Y-101971627D01*
X255578098Y-102046943D01*
G37*
G36*
X174127234Y-98627903D02*
G01*
X174250310Y-98778693D01*
X174289216Y-99046394D01*
X174315169Y-99274110D01*
X174369424Y-99429408D01*
X174442075Y-99495210D01*
X174545135Y-99454283D01*
X174668266Y-99347575D01*
X174849898Y-99217376D01*
X174997332Y-99214468D01*
X175121760Y-99349777D01*
X175234373Y-99634229D01*
X175326632Y-99990297D01*
X175396229Y-100306309D01*
X175428073Y-100538708D01*
X175411988Y-100733486D01*
X175337795Y-100936635D01*
X175195319Y-101194147D01*
X174984734Y-101535385D01*
X174492041Y-102185731D01*
X173907368Y-102696444D01*
X173219820Y-103076548D01*
X173034329Y-103150824D01*
X172647672Y-103316878D01*
X172420854Y-103468108D01*
X172345680Y-103610640D01*
X172353749Y-103659807D01*
X172437247Y-103665939D01*
X172632683Y-103606022D01*
X172901933Y-103492461D01*
X172975587Y-103457493D01*
X173789886Y-103112426D01*
X174525476Y-102908147D01*
X175194677Y-102842660D01*
X175809808Y-102913971D01*
X176002968Y-102967162D01*
X176430038Y-103153708D01*
X176837310Y-103421602D01*
X177175952Y-103732936D01*
X177396923Y-104049356D01*
X177475415Y-104233738D01*
X177469057Y-104352137D01*
X177359500Y-104474648D01*
X177264304Y-104555971D01*
X177052935Y-104805525D01*
X177010793Y-105055842D01*
X177137928Y-105306522D01*
X177166587Y-105338789D01*
X177287947Y-105482299D01*
X177335920Y-105564064D01*
X177264424Y-105628019D01*
X177079035Y-105733569D01*
X176823401Y-105860222D01*
X176541168Y-105987486D01*
X176275985Y-106094869D01*
X176071498Y-106161879D01*
X176053491Y-106166150D01*
X175597592Y-106220961D01*
X175134354Y-106174040D01*
X174629195Y-106017821D01*
X174047537Y-105744735D01*
X173991587Y-105714884D01*
X173734739Y-105556533D01*
X173427267Y-105339093D01*
X173129206Y-105107609D01*
X172900589Y-104907127D01*
X172860361Y-104866100D01*
X172680981Y-104686912D01*
X172495561Y-104521844D01*
X172342661Y-104402663D01*
X172260845Y-104361136D01*
X172255920Y-104368156D01*
X172312356Y-104447753D01*
X172464072Y-104616496D01*
X172684677Y-104845758D01*
X172835381Y-104996748D01*
X173231887Y-105410602D01*
X173535128Y-105788483D01*
X173785202Y-106189625D01*
X174022211Y-106673262D01*
X174116210Y-106888699D01*
X174279631Y-107337230D01*
X174336910Y-107710400D01*
X174285701Y-108066637D01*
X174123657Y-108464372D01*
X174047006Y-108611821D01*
X173859195Y-108926264D01*
X173699765Y-109095459D01*
X173541271Y-109134022D01*
X173356271Y-109056573D01*
X173292590Y-109013679D01*
X173110210Y-108909573D01*
X172973663Y-108917716D01*
X172847385Y-109054928D01*
X172722773Y-109283157D01*
X172561149Y-109451670D01*
X172334735Y-109477029D01*
X172095341Y-109368979D01*
X171833097Y-109143649D01*
X171537453Y-108828245D01*
X171258679Y-108479912D01*
X171082736Y-108217863D01*
X170989902Y-108047336D01*
X170934601Y-107885244D01*
X170910606Y-107685409D01*
X170911689Y-107401653D01*
X170927367Y-107065719D01*
X170970529Y-106507976D01*
X171035553Y-105976353D01*
X171115840Y-105513095D01*
X171204788Y-105160442D01*
X171240421Y-105061961D01*
X171354601Y-104755841D01*
X171430662Y-104491347D01*
X171457228Y-104312611D01*
X171445618Y-104265770D01*
X171368740Y-104285469D01*
X171265221Y-104464759D01*
X171138374Y-104796565D01*
X171020315Y-105173934D01*
X170841841Y-105660263D01*
X170622706Y-106018413D01*
X170547474Y-106105267D01*
X170318184Y-106364744D01*
X170096247Y-106638233D01*
X170036669Y-106717489D01*
X169851993Y-106921221D01*
X169609809Y-107086055D01*
X169279628Y-107225952D01*
X168830964Y-107354872D01*
X168459074Y-107439884D01*
X168040146Y-107518823D01*
X167758261Y-107536494D01*
X167588850Y-107482188D01*
X167507345Y-107345196D01*
X167489180Y-107114806D01*
X167492782Y-107018645D01*
X167498744Y-106780898D01*
X167466591Y-106666757D01*
X167370911Y-106630975D01*
X167273539Y-106628294D01*
X167050668Y-106556438D01*
X166903873Y-106366326D01*
X166844414Y-106096138D01*
X166883552Y-105784057D01*
X166964775Y-105581449D01*
X167055533Y-105367598D01*
X167093946Y-105200449D01*
X167135830Y-105036024D01*
X167270476Y-104862580D01*
X167521198Y-104654493D01*
X167716110Y-104516617D01*
X168117525Y-104282617D01*
X168611441Y-104053544D01*
X169132727Y-103855334D01*
X169616255Y-103713922D01*
X169842920Y-103669691D01*
X169934037Y-103653366D01*
X170477920Y-103653366D01*
X170541491Y-103728494D01*
X170744634Y-103789916D01*
X170939353Y-103822764D01*
X170971981Y-103796208D01*
X170939353Y-103759143D01*
X170796461Y-103670993D01*
X170629294Y-103619497D01*
X170504611Y-103619957D01*
X170477920Y-103653366D01*
X169934037Y-103653366D01*
X170078037Y-103627566D01*
X170158688Y-103588890D01*
X170099412Y-103546563D01*
X170096920Y-103545638D01*
X169877342Y-103450049D01*
X169758253Y-103388751D01*
X169581374Y-103291597D01*
X169333622Y-103157275D01*
X169226446Y-103099577D01*
X168950837Y-102932012D01*
X168698606Y-102747621D01*
X168634645Y-102692272D01*
X168469303Y-102552853D01*
X168355843Y-102481901D01*
X168344521Y-102479627D01*
X168251448Y-102405681D01*
X168125699Y-102210283D01*
X167986718Y-101933094D01*
X167853951Y-101613774D01*
X167746843Y-101291983D01*
X167727943Y-101222032D01*
X167658146Y-100885646D01*
X167618560Y-100565200D01*
X167615831Y-100375365D01*
X167640148Y-100188696D01*
X167703955Y-100094524D01*
X167854939Y-100055568D01*
X168043753Y-100040822D01*
X168288762Y-100015390D01*
X168407874Y-99964657D01*
X168444516Y-99864898D01*
X168445920Y-99821110D01*
X168518250Y-99573238D01*
X168715071Y-99414815D01*
X169006125Y-99366536D01*
X169097859Y-99375203D01*
X169510023Y-99444160D01*
X169804709Y-99521871D01*
X170033436Y-99627746D01*
X170247723Y-99781195D01*
X170306663Y-99830623D01*
X170625704Y-100187067D01*
X170918115Y-100668985D01*
X171165198Y-101232706D01*
X171348253Y-101834555D01*
X171448581Y-102430862D01*
X171455048Y-102512731D01*
X171480207Y-102811176D01*
X171509054Y-103036632D01*
X171535507Y-103141977D01*
X171536425Y-103143022D01*
X171615244Y-103153671D01*
X171664922Y-103006153D01*
X171683464Y-102709446D01*
X171680049Y-102496605D01*
X171681355Y-102170736D01*
X171702126Y-101789156D01*
X171737776Y-101390425D01*
X171783720Y-101013099D01*
X171835374Y-100695738D01*
X171888152Y-100476899D01*
X171929641Y-100397638D01*
X171991745Y-100284697D01*
X172001920Y-100200806D01*
X172069752Y-99986309D01*
X172253481Y-99717542D01*
X172523458Y-99426776D01*
X172850033Y-99146286D01*
X173172826Y-98926330D01*
X173596517Y-98702585D01*
X173911978Y-98602821D01*
X174127234Y-98627903D01*
G37*
G36*
X187144085Y-92055925D02*
G01*
X187403128Y-92243326D01*
X187628503Y-92441162D01*
X188130920Y-92901363D01*
X188130920Y-93859329D01*
X188104431Y-94514805D01*
X188014950Y-95057661D01*
X187847453Y-95537674D01*
X187586919Y-96004621D01*
X187404734Y-96265509D01*
X187206920Y-96547743D01*
X187098974Y-96749770D01*
X187059940Y-96919410D01*
X187062555Y-97046290D01*
X187109007Y-97066516D01*
X187213233Y-96977038D01*
X187345817Y-96813312D01*
X187477344Y-96610795D01*
X187562451Y-96443726D01*
X187679830Y-96244568D01*
X187865892Y-95998389D01*
X187982488Y-95864785D01*
X188173162Y-95650985D01*
X188318873Y-95472906D01*
X188368285Y-95401939D01*
X188513579Y-95247166D01*
X188771914Y-95059763D01*
X189097467Y-94865722D01*
X189444417Y-94691032D01*
X189766940Y-94561685D01*
X189928737Y-94516846D01*
X190418534Y-94462417D01*
X190885313Y-94521987D01*
X191379387Y-94696633D01*
X191602393Y-94806733D01*
X191698002Y-94900828D01*
X191699399Y-95016641D01*
X191690051Y-95049775D01*
X191598409Y-95410939D01*
X191597281Y-95652942D01*
X191696977Y-95805757D01*
X191907806Y-95899358D01*
X191989103Y-95919245D01*
X192164071Y-95972117D01*
X192237252Y-96022934D01*
X192237253Y-96023109D01*
X192191631Y-96132872D01*
X192073660Y-96335588D01*
X191911684Y-96588067D01*
X191734045Y-96847118D01*
X191569086Y-97069553D01*
X191481630Y-97174548D01*
X191086323Y-97490922D01*
X190566447Y-97718695D01*
X189944220Y-97853693D01*
X189241859Y-97891743D01*
X188481580Y-97828670D01*
X188227168Y-97785974D01*
X187891089Y-97727910D01*
X187622572Y-97691404D01*
X187461405Y-97681404D01*
X187434011Y-97687314D01*
X187470545Y-97733567D01*
X187591763Y-97771273D01*
X188292923Y-97927547D01*
X188863541Y-98086548D01*
X189341894Y-98264154D01*
X189766262Y-98476241D01*
X190174923Y-98738684D01*
X190485795Y-98971557D01*
X190736117Y-99179848D01*
X190885951Y-99352400D01*
X190974490Y-99549203D01*
X191038339Y-99817327D01*
X191118345Y-100321209D01*
X191123828Y-100680957D01*
X191051861Y-100905892D01*
X190899516Y-101005334D01*
X190669931Y-100990147D01*
X190452210Y-100987894D01*
X190340033Y-101117438D01*
X190332918Y-101379442D01*
X190343097Y-101442577D01*
X190359841Y-101637442D01*
X190288322Y-101748390D01*
X190123701Y-101831291D01*
X189841691Y-101893558D01*
X189492393Y-101861708D01*
X189050682Y-101731618D01*
X188723587Y-101601607D01*
X188448479Y-101464617D01*
X188210494Y-101293571D01*
X187993435Y-101066210D01*
X187781109Y-100760269D01*
X187557318Y-100353489D01*
X187305869Y-99823606D01*
X187114148Y-99389294D01*
X186980524Y-99027665D01*
X186868340Y-98630251D01*
X186801038Y-98282539D01*
X186794910Y-98225127D01*
X186746128Y-98089736D01*
X186647292Y-98108410D01*
X186630903Y-98123533D01*
X186613270Y-98173206D01*
X186621995Y-98281940D01*
X186662516Y-98476310D01*
X186740269Y-98782891D01*
X186845656Y-99173368D01*
X186924136Y-99588483D01*
X186909142Y-99976936D01*
X186895245Y-100062368D01*
X186837626Y-100413306D01*
X186785603Y-100777349D01*
X186772370Y-100883487D01*
X186714736Y-101152793D01*
X186595130Y-101410155D01*
X186393033Y-101684797D01*
X186087930Y-102005941D01*
X185785517Y-102289127D01*
X185494794Y-102541283D01*
X185289382Y-102680402D01*
X185138614Y-102716828D01*
X185011823Y-102660904D01*
X184926709Y-102578794D01*
X184816530Y-102404636D01*
X184786587Y-102287457D01*
X184743451Y-102141822D01*
X184650553Y-102088177D01*
X184575773Y-102139579D01*
X184438640Y-102218981D01*
X184226355Y-102206991D01*
X183999854Y-102112984D01*
X183897033Y-102035127D01*
X183739498Y-101815178D01*
X183645973Y-101551331D01*
X183645486Y-101548294D01*
X183597191Y-101256416D01*
X183550211Y-100991400D01*
X183566629Y-100738194D01*
X183675591Y-100392619D01*
X183857331Y-99989029D01*
X184092080Y-99561779D01*
X184360068Y-99145227D01*
X184641527Y-98773725D01*
X184916688Y-98481631D01*
X185061510Y-98364960D01*
X185221485Y-98233588D01*
X185290240Y-98138199D01*
X185256968Y-98107445D01*
X185141481Y-98152942D01*
X184998272Y-98184477D01*
X184726746Y-98207452D01*
X184367808Y-98219454D01*
X184019648Y-98219146D01*
X183587664Y-98208794D01*
X183282551Y-98189234D01*
X183061852Y-98152875D01*
X182883112Y-98092128D01*
X182803434Y-98050908D01*
X185562868Y-98050908D01*
X185586846Y-98063409D01*
X185661345Y-98041539D01*
X185831040Y-97999514D01*
X185894178Y-97992294D01*
X185969707Y-97927659D01*
X185971920Y-97907627D01*
X185921302Y-97828005D01*
X185778825Y-97878199D01*
X185670602Y-97956872D01*
X185562868Y-98050908D01*
X182803434Y-98050908D01*
X182703876Y-97999403D01*
X182665440Y-97977062D01*
X182418465Y-97804785D01*
X182125457Y-97561115D01*
X181829839Y-97286780D01*
X181575035Y-97022508D01*
X181404466Y-96809025D01*
X181383622Y-96774831D01*
X181349120Y-96588137D01*
X181469891Y-96410507D01*
X181663907Y-96276760D01*
X181839291Y-96148052D01*
X181875515Y-96026411D01*
X181860596Y-95980427D01*
X181806770Y-95750810D01*
X181816859Y-95513811D01*
X181884310Y-95357371D01*
X182042419Y-95260717D01*
X182308555Y-95152380D01*
X182624162Y-95051069D01*
X182930684Y-94975490D01*
X183169562Y-94944351D01*
X183177284Y-94944294D01*
X183564511Y-94981031D01*
X183942186Y-95103692D01*
X184362040Y-95330948D01*
X184506749Y-95424164D01*
X185100337Y-95878750D01*
X185613442Y-96392050D01*
X185887253Y-96745429D01*
X186030550Y-96934369D01*
X186143467Y-97045992D01*
X186171598Y-97058630D01*
X186220214Y-96999439D01*
X186190596Y-96845926D01*
X186100606Y-96643195D01*
X185968106Y-96436352D01*
X185887530Y-96341294D01*
X185742868Y-96147370D01*
X185565959Y-95849421D01*
X185387458Y-95500639D01*
X185326380Y-95367627D01*
X185167097Y-94989721D01*
X185070663Y-94694714D01*
X185021513Y-94415418D01*
X185004083Y-94084650D01*
X185002747Y-93970627D01*
X185051292Y-93355889D01*
X185217015Y-92829465D01*
X185516618Y-92343365D01*
X185608826Y-92229121D01*
X185831421Y-92032157D01*
X186035658Y-92001855D01*
X186233691Y-92138318D01*
X186310587Y-92234961D01*
X186458680Y-92402655D01*
X186589079Y-92486696D01*
X186605958Y-92488961D01*
X186702317Y-92415684D01*
X186775347Y-92239021D01*
X186776253Y-92234961D01*
X186846563Y-92055593D01*
X186963869Y-91994631D01*
X187144085Y-92055925D01*
G37*
G36*
X239199481Y-93129881D02*
G01*
X239334471Y-93260713D01*
X239396272Y-93335242D01*
X239544057Y-93496272D01*
X239683198Y-93568092D01*
X239870723Y-93562773D01*
X240152660Y-93495367D01*
X240244918Y-93548008D01*
X240329703Y-93729796D01*
X240400016Y-94000546D01*
X240448860Y-94320072D01*
X240469238Y-94648188D01*
X240454153Y-94944709D01*
X240428410Y-95079003D01*
X240253533Y-95497955D01*
X239958897Y-95947416D01*
X239577151Y-96384104D01*
X239178026Y-96736638D01*
X238804205Y-97028018D01*
X238555918Y-97230646D01*
X238434957Y-97342016D01*
X238443114Y-97359624D01*
X238582183Y-97280966D01*
X238853954Y-97103537D01*
X238973253Y-97022756D01*
X239709958Y-96606054D01*
X240483273Y-96343537D01*
X241035485Y-96247132D01*
X241397677Y-96232328D01*
X241683300Y-96303658D01*
X241971934Y-96484178D01*
X242040675Y-96538357D01*
X242339820Y-96801542D01*
X242497816Y-97002463D01*
X242522192Y-97159904D01*
X242420479Y-97292645D01*
X242359920Y-97334609D01*
X242211852Y-97481178D01*
X242231510Y-97634536D01*
X242402253Y-97788413D01*
X242554064Y-97920153D01*
X242613920Y-98032947D01*
X242535583Y-98236493D01*
X242314330Y-98465333D01*
X241970794Y-98700890D01*
X241726580Y-98831826D01*
X241403017Y-98980048D01*
X241165488Y-99053960D01*
X240955566Y-99067596D01*
X240811522Y-99051605D01*
X240440709Y-98975489D01*
X240016332Y-98859477D01*
X239586824Y-98719952D01*
X239200621Y-98573299D01*
X238906157Y-98435902D01*
X238803920Y-98372490D01*
X238650546Y-98281249D01*
X238442616Y-98179810D01*
X238252110Y-98101207D01*
X238159939Y-98076961D01*
X238125604Y-98110778D01*
X238223653Y-98202339D01*
X238433478Y-98336804D01*
X238734476Y-98499335D01*
X238773997Y-98519151D01*
X239084609Y-98695667D01*
X239325494Y-98874177D01*
X239443793Y-99007600D01*
X239573148Y-99203691D01*
X239758684Y-99439279D01*
X239825862Y-99516294D01*
X240005759Y-99739815D01*
X240140004Y-99948759D01*
X240168068Y-100008639D01*
X240203994Y-100186336D01*
X240227835Y-100467914D01*
X240239282Y-100803540D01*
X240238026Y-101143380D01*
X240223757Y-101437600D01*
X240196167Y-101636369D01*
X240178457Y-101682720D01*
X240051766Y-101777706D01*
X239873755Y-101830444D01*
X239724560Y-101822695D01*
X239688007Y-101794345D01*
X239570099Y-101718717D01*
X239434810Y-101783478D01*
X239353163Y-101908127D01*
X239197748Y-102080062D01*
X238951036Y-102122947D01*
X238630958Y-102037131D01*
X238353949Y-101888776D01*
X238022145Y-101624086D01*
X237805057Y-101307308D01*
X237777277Y-101247619D01*
X237657855Y-100914455D01*
X237548756Y-100499108D01*
X237460040Y-100055633D01*
X237401772Y-99638084D01*
X237384014Y-99300513D01*
X237392853Y-99182632D01*
X237438029Y-98881294D01*
X237297041Y-99092961D01*
X237113961Y-99326383D01*
X236853267Y-99608477D01*
X236556567Y-99899315D01*
X236265471Y-100158968D01*
X236021585Y-100347509D01*
X235934453Y-100400536D01*
X235643229Y-100500227D01*
X235257364Y-100567535D01*
X234849616Y-100595570D01*
X234492749Y-100577441D01*
X234358920Y-100549741D01*
X234196168Y-100483813D01*
X234125133Y-100376404D01*
X234111255Y-100168306D01*
X234111929Y-100126595D01*
X234101994Y-99897612D01*
X234045569Y-99788151D01*
X233944300Y-99753161D01*
X233783814Y-99657256D01*
X233691254Y-99504058D01*
X233681263Y-99249091D01*
X233783068Y-98936689D01*
X233914914Y-98706976D01*
X237451946Y-98706976D01*
X237494823Y-98719241D01*
X237578946Y-98632278D01*
X237675039Y-98470043D01*
X237700560Y-98378278D01*
X237657684Y-98366013D01*
X237573560Y-98452976D01*
X237477467Y-98615212D01*
X237451946Y-98706976D01*
X233914914Y-98706976D01*
X233971307Y-98608723D01*
X234220618Y-98307068D01*
X234505642Y-98073594D01*
X234585462Y-98027662D01*
X234878383Y-97919218D01*
X235283463Y-97825748D01*
X235743680Y-97755011D01*
X236202013Y-97714763D01*
X236601441Y-97712762D01*
X236771920Y-97730210D01*
X237033878Y-97765378D01*
X237219979Y-97776535D01*
X237277468Y-97767485D01*
X237264565Y-97698942D01*
X237137267Y-97628374D01*
X236948559Y-97579420D01*
X236835420Y-97570257D01*
X236650068Y-97568609D01*
X236561000Y-97566843D01*
X236442842Y-97535930D01*
X236212933Y-97459167D01*
X235916332Y-97353303D01*
X235598096Y-97235086D01*
X235303283Y-97121264D01*
X235076952Y-97028586D01*
X234964162Y-96973798D01*
X234962894Y-96972828D01*
X234734493Y-96776819D01*
X234506109Y-96559206D01*
X234341266Y-96380782D01*
X234331983Y-96369065D01*
X234224377Y-96179785D01*
X234103580Y-95895565D01*
X233992862Y-95581259D01*
X233915496Y-95301723D01*
X233893253Y-95146356D01*
X233962463Y-94924688D01*
X234143885Y-94806805D01*
X234361714Y-94810430D01*
X234588872Y-94835480D01*
X234680739Y-94759462D01*
X234640724Y-94578447D01*
X234612920Y-94520961D01*
X234544220Y-94356664D01*
X234561300Y-94251354D01*
X234688367Y-94185845D01*
X234949626Y-94140949D01*
X235115568Y-94122550D01*
X235482683Y-94101129D01*
X235764575Y-94139002D01*
X236016230Y-94256841D01*
X236292634Y-94475314D01*
X236454150Y-94625731D01*
X236870945Y-95105614D01*
X237205385Y-95652239D01*
X237428777Y-96213532D01*
X237494513Y-96513739D01*
X237545546Y-96790924D01*
X237605372Y-97014872D01*
X237632387Y-97082127D01*
X237729932Y-97218908D01*
X237789681Y-97205007D01*
X237800810Y-97056913D01*
X237771342Y-96870461D01*
X237638200Y-96147061D01*
X237572054Y-95514962D01*
X237575745Y-95002986D01*
X237581617Y-94945768D01*
X237721403Y-94354531D01*
X237984426Y-93849051D01*
X238355342Y-93450377D01*
X238818808Y-93179558D01*
X238887870Y-93153857D01*
X239073321Y-93102363D01*
X239199481Y-93129881D01*
G37*
G36*
X212150390Y-88528561D02*
G01*
X212340179Y-88721294D01*
X212516736Y-88896448D01*
X212655034Y-89002803D01*
X212694423Y-89017627D01*
X212773747Y-88945915D01*
X212866127Y-88768249D01*
X212886600Y-88715186D01*
X212989247Y-88508392D01*
X213098271Y-88454879D01*
X213123786Y-88461795D01*
X213335601Y-88589615D01*
X213613683Y-88825192D01*
X213924456Y-89139512D01*
X213983495Y-89204696D01*
X214128306Y-89379079D01*
X214214657Y-89536355D01*
X214259333Y-89730971D01*
X214279116Y-90017376D01*
X214284084Y-90179862D01*
X214283301Y-90562728D01*
X214264668Y-90938524D01*
X214232199Y-91227026D01*
X214231469Y-91231168D01*
X214152119Y-91557812D01*
X214030229Y-91928748D01*
X213887373Y-92288521D01*
X213745122Y-92581679D01*
X213649462Y-92727257D01*
X213332022Y-93127920D01*
X213135528Y-93439946D01*
X213065356Y-93654738D01*
X213065253Y-93661119D01*
X213094402Y-93814565D01*
X213179954Y-93811992D01*
X213319064Y-93656011D01*
X213508887Y-93349232D01*
X213611835Y-93159371D01*
X213812230Y-92858769D01*
X214107274Y-92515455D01*
X214460303Y-92163000D01*
X214834655Y-91834979D01*
X215193666Y-91564964D01*
X215500673Y-91386528D01*
X215583765Y-91353648D01*
X216170682Y-91199642D01*
X216680485Y-91159485D01*
X217158672Y-91230239D01*
X217222228Y-91247819D01*
X217586096Y-91363393D01*
X217808640Y-91471542D01*
X217914058Y-91600583D01*
X217926546Y-91778827D01*
X217876124Y-92012990D01*
X217816486Y-92260466D01*
X217814302Y-92405304D01*
X217878946Y-92507230D01*
X217965453Y-92582176D01*
X218161762Y-92699742D01*
X218323966Y-92742961D01*
X218455751Y-92799237D01*
X218471629Y-92935556D01*
X218367899Y-93100886D01*
X218246637Y-93257602D01*
X218121180Y-93466767D01*
X217879568Y-93813151D01*
X217545661Y-94147380D01*
X217187533Y-94402945D01*
X217133733Y-94431490D01*
X216798691Y-94552780D01*
X216357912Y-94648972D01*
X215874153Y-94711837D01*
X215410167Y-94733143D01*
X215038296Y-94706309D01*
X214736805Y-94670993D01*
X214554384Y-94678998D01*
X214503912Y-94721350D01*
X214598269Y-94789077D01*
X214813247Y-94863079D01*
X215179994Y-94998022D01*
X215594946Y-95201793D01*
X216020698Y-95450133D01*
X216419845Y-95718783D01*
X216754985Y-95983486D01*
X216988713Y-96219982D01*
X217053810Y-96316194D01*
X217124536Y-96525548D01*
X217186349Y-96839789D01*
X217231133Y-97194477D01*
X217250776Y-97525169D01*
X217237162Y-97767421D01*
X217236785Y-97769418D01*
X217190485Y-97910627D01*
X217088908Y-97975213D01*
X216879558Y-97992089D01*
X216832108Y-97992294D01*
X216556459Y-98023583D01*
X216419229Y-98135063D01*
X216398268Y-98353153D01*
X216419187Y-98484796D01*
X216409621Y-98731878D01*
X216269541Y-98883758D01*
X216008631Y-98940195D01*
X215636577Y-98900945D01*
X215163066Y-98765767D01*
X214597783Y-98534420D01*
X214589253Y-98530492D01*
X214250847Y-98331947D01*
X213972795Y-98062119D01*
X213724799Y-97685865D01*
X213541326Y-97314961D01*
X213433070Y-97085615D01*
X213342086Y-96909087D01*
X213332039Y-96891627D01*
X213235555Y-96682038D01*
X213114420Y-96349526D01*
X212982548Y-95936048D01*
X212853857Y-95483565D01*
X212812536Y-95325294D01*
X212725294Y-95017089D01*
X212659128Y-94866413D01*
X212609320Y-94863439D01*
X212599851Y-94882206D01*
X212571190Y-94974477D01*
X212566776Y-95085575D01*
X212592483Y-95248855D01*
X212654183Y-95497673D01*
X212757750Y-95865384D01*
X212796579Y-95999451D01*
X212883748Y-96319863D01*
X212919902Y-96534646D01*
X212908202Y-96698606D01*
X212851807Y-96866546D01*
X212847206Y-96877624D01*
X212768040Y-97157319D01*
X212727843Y-97475860D01*
X212726587Y-97531455D01*
X212707490Y-97838923D01*
X212635982Y-98101418D01*
X212490739Y-98360602D01*
X212250434Y-98658138D01*
X212026943Y-98898318D01*
X211620161Y-99294810D01*
X211293542Y-99549876D01*
X211039553Y-99666946D01*
X210850663Y-99649451D01*
X210719339Y-99500822D01*
X210716571Y-99495127D01*
X210623431Y-99280437D01*
X210576520Y-99152809D01*
X210508210Y-99050215D01*
X210377744Y-99081446D01*
X210362742Y-99089309D01*
X210122880Y-99170118D01*
X209903984Y-99118034D01*
X209714661Y-98982053D01*
X209552682Y-98775561D01*
X209431283Y-98458530D01*
X209342936Y-98007812D01*
X209310175Y-97738294D01*
X209344853Y-97472120D01*
X209480557Y-97116587D01*
X209698546Y-96702037D01*
X209980079Y-96258817D01*
X210306414Y-95817271D01*
X210658811Y-95407743D01*
X210896540Y-95169758D01*
X211079411Y-94988481D01*
X211135654Y-94900611D01*
X211071955Y-94895143D01*
X211061630Y-94898008D01*
X210882681Y-94924054D01*
X210583441Y-94942530D01*
X210212801Y-94953071D01*
X209819650Y-94955311D01*
X209452876Y-94948882D01*
X209161371Y-94933420D01*
X209011201Y-94913366D01*
X208583949Y-94742377D01*
X211482445Y-94742377D01*
X211494007Y-94767012D01*
X211603793Y-94809466D01*
X211771875Y-94779213D01*
X211914217Y-94695281D01*
X211936812Y-94666737D01*
X211918709Y-94614830D01*
X211787326Y-94633467D01*
X211604450Y-94676075D01*
X211515090Y-94689138D01*
X211482445Y-94742377D01*
X208583949Y-94742377D01*
X208540766Y-94725095D01*
X208123533Y-94437913D01*
X213361587Y-94437913D01*
X213645704Y-94546378D01*
X213860956Y-94614698D01*
X214067821Y-94659317D01*
X214226482Y-94675848D01*
X214297124Y-94659902D01*
X214250587Y-94613031D01*
X214091420Y-94557277D01*
X213843126Y-94504270D01*
X213742587Y-94488970D01*
X213361587Y-94437913D01*
X208123533Y-94437913D01*
X208048543Y-94386297D01*
X207625420Y-93987185D01*
X207340219Y-93659487D01*
X207185359Y-93409142D01*
X207156026Y-93211492D01*
X207247405Y-93041876D01*
X207413753Y-92903144D01*
X207594864Y-92777963D01*
X207705015Y-92701611D01*
X207715953Y-92693957D01*
X207698110Y-92617748D01*
X207634660Y-92501325D01*
X207569778Y-92282074D01*
X207608578Y-92094008D01*
X207687467Y-91951670D01*
X207834398Y-91838189D01*
X208089565Y-91726819D01*
X208240204Y-91673721D01*
X208800701Y-91538214D01*
X209305981Y-91541829D01*
X209799737Y-91686246D01*
X209913067Y-91738004D01*
X210158171Y-91877688D01*
X210459418Y-92079728D01*
X210782504Y-92317201D01*
X211093129Y-92563181D01*
X211356990Y-92790741D01*
X211539786Y-92972957D01*
X211603545Y-93064965D01*
X211689932Y-93225368D01*
X211829692Y-93424178D01*
X211982749Y-93610965D01*
X212109027Y-93735306D01*
X212155087Y-93758958D01*
X212217422Y-93700605D01*
X212157991Y-93525370D01*
X211976695Y-93233008D01*
X211906922Y-93134072D01*
X211752552Y-92891657D01*
X211579364Y-92576328D01*
X211403368Y-92223425D01*
X211240577Y-91868285D01*
X211107004Y-91546248D01*
X211018659Y-91292652D01*
X210991555Y-91142835D01*
X210996630Y-91125055D01*
X210998733Y-90999187D01*
X210962497Y-90903210D01*
X210912706Y-90660137D01*
X210942144Y-90316556D01*
X211037422Y-89913718D01*
X211185153Y-89492876D01*
X211371948Y-89095282D01*
X211584420Y-88762187D01*
X211700965Y-88627803D01*
X211869646Y-88479379D01*
X212003645Y-88443986D01*
X212150390Y-88528561D01*
G37*
G36*
X152510262Y-86983024D02*
G01*
X152625732Y-87090379D01*
X152717983Y-87260794D01*
X152839202Y-87484283D01*
X152949629Y-87561624D01*
X153097412Y-87505411D01*
X153242829Y-87398101D01*
X153427551Y-87280969D01*
X153582300Y-87275639D01*
X153678827Y-87312187D01*
X153818104Y-87400795D01*
X153924599Y-87543346D01*
X154016753Y-87776112D01*
X154113008Y-88135369D01*
X154126805Y-88193342D01*
X154217491Y-88799853D01*
X154187700Y-89323419D01*
X154038561Y-89745102D01*
X154033637Y-89753621D01*
X153697773Y-90261940D01*
X153269122Y-90812687D01*
X152794077Y-91351841D01*
X152319030Y-91825379D01*
X152064796Y-92046235D01*
X151878549Y-92215321D01*
X151831846Y-92305497D01*
X151869419Y-92319627D01*
X151993157Y-92266417D01*
X152204133Y-92124127D01*
X152465377Y-91918763D01*
X152587209Y-91814696D01*
X152935912Y-91529041D01*
X153220339Y-91347293D01*
X153484291Y-91243004D01*
X153568154Y-91222408D01*
X153851840Y-91144213D01*
X154093076Y-91049429D01*
X154160820Y-91012046D01*
X154510572Y-90880830D01*
X154963654Y-90869389D01*
X155506084Y-90975390D01*
X156123877Y-91196499D01*
X156592587Y-91417946D01*
X156751709Y-91580074D01*
X156787357Y-91800075D01*
X156699937Y-92020381D01*
X156587567Y-92129473D01*
X156405647Y-92256894D01*
X156636496Y-92440967D01*
X156792464Y-92596320D01*
X156829823Y-92757832D01*
X156808778Y-92891691D01*
X156716240Y-93145707D01*
X156571778Y-93379946D01*
X156412384Y-93543618D01*
X156300435Y-93589627D01*
X156171556Y-93653330D01*
X156073747Y-93761288D01*
X155875719Y-93913216D01*
X155537827Y-94009474D01*
X155080837Y-94047976D01*
X154525516Y-94026639D01*
X154031701Y-93966221D01*
X153627487Y-93892374D01*
X153251298Y-93804351D01*
X152957410Y-93715738D01*
X152846087Y-93669443D01*
X152653800Y-93594560D01*
X152535990Y-93587203D01*
X152523034Y-93637964D01*
X152638988Y-93733587D01*
X152740705Y-93848692D01*
X152863071Y-94055858D01*
X152903792Y-94139961D01*
X153024735Y-94381014D01*
X153138235Y-94569496D01*
X153165561Y-94605627D01*
X153293042Y-94828317D01*
X153412281Y-95157459D01*
X153505343Y-95530449D01*
X153554292Y-95884684D01*
X153557670Y-95974339D01*
X153522543Y-96335479D01*
X153425312Y-96755061D01*
X153285451Y-97172798D01*
X153122433Y-97528402D01*
X152993081Y-97722291D01*
X152797635Y-97949511D01*
X152479384Y-97767631D01*
X152276599Y-97658806D01*
X152160795Y-97633553D01*
X152073808Y-97688232D01*
X152027360Y-97739332D01*
X151784528Y-97917097D01*
X151517699Y-97928652D01*
X151332416Y-97842965D01*
X151060469Y-97613262D01*
X150787468Y-97302006D01*
X150558757Y-96967970D01*
X150419683Y-96669927D01*
X150415032Y-96653944D01*
X150344582Y-96169915D01*
X150362628Y-95594698D01*
X150461303Y-94976344D01*
X150632740Y-94362904D01*
X150869071Y-93802430D01*
X150887808Y-93766485D01*
X151022287Y-93497200D01*
X151110728Y-93290434D01*
X151136098Y-93186549D01*
X151134101Y-93182920D01*
X151038906Y-93189628D01*
X150902188Y-93318379D01*
X150751955Y-93536813D01*
X150642302Y-93751124D01*
X150475760Y-94049391D01*
X150223099Y-94412517D01*
X149921236Y-94795331D01*
X149607084Y-95152666D01*
X149317562Y-95439350D01*
X149156958Y-95568571D01*
X148879012Y-95718623D01*
X148523122Y-95854085D01*
X148148593Y-95958020D01*
X147814726Y-96013490D01*
X147610028Y-96010413D01*
X147380389Y-95982298D01*
X147110008Y-95966696D01*
X147104935Y-95966585D01*
X146852750Y-95929828D01*
X146652153Y-95849284D01*
X146643961Y-95843550D01*
X146550365Y-95757249D01*
X146527033Y-95650516D01*
X146569155Y-95465712D01*
X146603352Y-95356717D01*
X146689390Y-95071178D01*
X146705534Y-94912341D01*
X146636336Y-94846565D01*
X146466347Y-94840209D01*
X146369087Y-94846595D01*
X146180648Y-94854009D01*
X146066151Y-94825907D01*
X146021201Y-94735916D01*
X146041405Y-94557661D01*
X146122372Y-94264768D01*
X146220383Y-93953831D01*
X146330669Y-93623428D01*
X146426244Y-93408129D01*
X146541232Y-93260904D01*
X146709758Y-93134717D01*
X146895324Y-93023548D01*
X146917107Y-93013087D01*
X151976237Y-93013087D01*
X151990101Y-93101288D01*
X152068967Y-93202580D01*
X152194872Y-93293491D01*
X152258460Y-93295310D01*
X152244596Y-93207110D01*
X152165729Y-93105818D01*
X152039825Y-93014906D01*
X151976237Y-93013087D01*
X146917107Y-93013087D01*
X147693424Y-92640272D01*
X148484642Y-92424474D01*
X149275620Y-92374839D01*
X149843097Y-92440195D01*
X150165835Y-92483589D01*
X150440131Y-92489894D01*
X150637085Y-92463463D01*
X150727792Y-92408648D01*
X150683352Y-92329803D01*
X150663882Y-92316576D01*
X150506391Y-92268092D01*
X150257765Y-92239435D01*
X150150297Y-92236257D01*
X149733442Y-92197563D01*
X149232532Y-92095344D01*
X148712331Y-91946860D01*
X148237607Y-91769369D01*
X148030003Y-91671226D01*
X147453441Y-91288493D01*
X147254867Y-91072933D01*
X150927316Y-91072933D01*
X150955746Y-91261093D01*
X151020069Y-91515294D01*
X151087948Y-91699097D01*
X151138208Y-91741617D01*
X151151706Y-91711499D01*
X151144673Y-91547865D01*
X151088641Y-91304782D01*
X151056071Y-91203499D01*
X150979995Y-91022343D01*
X150936238Y-90986085D01*
X150927316Y-91072933D01*
X147254867Y-91072933D01*
X147021286Y-90819371D01*
X146736322Y-90268547D01*
X146601331Y-89640709D01*
X146592548Y-89250461D01*
X146620758Y-89090056D01*
X146723041Y-89026955D01*
X146882071Y-89017627D01*
X147181439Y-88972964D01*
X147364518Y-88824069D01*
X147453331Y-88548579D01*
X147465781Y-88424961D01*
X147496899Y-88181954D01*
X147556058Y-88078568D01*
X147617920Y-88073036D01*
X147773485Y-88097911D01*
X148025073Y-88128229D01*
X148168253Y-88142939D01*
X148719601Y-88227521D01*
X149154596Y-88378593D01*
X149521549Y-88623155D01*
X149868771Y-88988210D01*
X150012902Y-89173945D01*
X150249176Y-89499118D01*
X150409148Y-89746691D01*
X150522683Y-89970983D01*
X150619646Y-90226313D01*
X150662450Y-90355372D01*
X150745416Y-90582230D01*
X150817145Y-90730214D01*
X150838284Y-90755167D01*
X150859413Y-90693113D01*
X150868503Y-90497063D01*
X150864687Y-90201985D01*
X150856769Y-90010089D01*
X150848851Y-89225715D01*
X150909145Y-88570335D01*
X151035889Y-88051185D01*
X151227319Y-87675500D01*
X151480171Y-87451294D01*
X151660952Y-87343615D01*
X151879952Y-87196431D01*
X151896078Y-87184911D01*
X152126784Y-87052119D01*
X152344942Y-86975417D01*
X152358218Y-86973244D01*
X152510262Y-86983024D01*
G37*
G36*
X110109013Y-94745819D02*
G01*
X110486832Y-94893347D01*
X110875670Y-95104862D01*
X111221377Y-95352284D01*
X111399822Y-95521846D01*
X111603348Y-95791598D01*
X111660366Y-95984747D01*
X111570994Y-96098187D01*
X111376525Y-96129627D01*
X111157468Y-96160833D01*
X111093549Y-96246008D01*
X111190123Y-96372491D01*
X111254313Y-96418651D01*
X111429166Y-96579781D01*
X111440198Y-96716786D01*
X111289163Y-96815947D01*
X111200670Y-96838711D01*
X111000919Y-96872991D01*
X110884587Y-96882568D01*
X110883170Y-96882351D01*
X110773861Y-96861460D01*
X110563967Y-96820337D01*
X110479314Y-96803617D01*
X109973811Y-96640307D01*
X109411125Y-96345241D01*
X108819153Y-95933073D01*
X108813563Y-95928709D01*
X108524541Y-95719673D01*
X108242400Y-95543275D01*
X108030396Y-95438648D01*
X107810563Y-95338440D01*
X107752305Y-95246516D01*
X107849509Y-95147602D01*
X107901921Y-95117551D01*
X108088169Y-95046594D01*
X108390645Y-94960350D01*
X108758374Y-94870313D01*
X109140382Y-94787978D01*
X109485695Y-94724839D01*
X109743337Y-94692392D01*
X109796365Y-94690361D01*
X110109013Y-94745819D01*
G37*
G36*
X225335692Y-71049589D02*
G01*
X225847791Y-71316417D01*
X226250235Y-71670514D01*
X226551963Y-72127042D01*
X226761915Y-72701166D01*
X226889029Y-73408050D01*
X226918962Y-73735294D01*
X226946070Y-74075822D01*
X226973190Y-74346274D01*
X226996046Y-74506617D01*
X227004115Y-74532572D01*
X227018262Y-74471315D01*
X227029049Y-74277466D01*
X227034766Y-73987760D01*
X227035253Y-73864366D01*
X227071889Y-73293270D01*
X227173858Y-72728326D01*
X227329255Y-72205433D01*
X227526174Y-71760491D01*
X227752709Y-71429400D01*
X227881920Y-71311481D01*
X228114643Y-71185878D01*
X228410999Y-71080191D01*
X228708508Y-71011134D01*
X228944690Y-70995419D01*
X229011864Y-71009235D01*
X229121311Y-71129624D01*
X229151920Y-71279960D01*
X229208633Y-71482925D01*
X229362356Y-71555242D01*
X229566687Y-71496212D01*
X229763254Y-71449167D01*
X229911970Y-71510058D01*
X230011313Y-71602873D01*
X230063588Y-71753948D01*
X230081933Y-72010651D01*
X230082781Y-72125827D01*
X230036180Y-72736500D01*
X229895861Y-73213696D01*
X229673198Y-73551995D01*
X229401800Y-73805414D01*
X229033393Y-74101827D01*
X228619883Y-74403619D01*
X228213177Y-74673174D01*
X227865180Y-74872875D01*
X227819606Y-74895266D01*
X227591042Y-75015443D01*
X227450079Y-75111898D01*
X227425717Y-75155868D01*
X227500996Y-75178416D01*
X227643862Y-75139243D01*
X227880069Y-75028345D01*
X228202636Y-74853988D01*
X228431326Y-74735561D01*
X228636083Y-74660774D01*
X228869147Y-74618943D01*
X229182753Y-74599383D01*
X229477586Y-74593230D01*
X230304820Y-74581961D01*
X230807870Y-74919210D01*
X231202145Y-75196028D01*
X231457561Y-75406526D01*
X231586070Y-75561392D01*
X231607253Y-75634219D01*
X231545038Y-75736403D01*
X231391687Y-75878356D01*
X231355018Y-75906377D01*
X231192866Y-76052681D01*
X231168661Y-76162084D01*
X231192352Y-76200788D01*
X231271105Y-76235837D01*
X231403463Y-76184619D01*
X231617114Y-76033744D01*
X231739082Y-75936352D01*
X232004940Y-75737059D01*
X232257790Y-75597375D01*
X232536220Y-75507637D01*
X232538804Y-75507264D01*
X234666231Y-75507264D01*
X234672123Y-75515041D01*
X234793172Y-75574566D01*
X235010280Y-75640320D01*
X235252070Y-75693271D01*
X235417253Y-75713719D01*
X235492656Y-75704170D01*
X235418609Y-75646501D01*
X235405436Y-75638744D01*
X235262405Y-75581721D01*
X235064609Y-75531229D01*
X235041340Y-75527146D01*
X236782771Y-75527146D01*
X236827680Y-75545926D01*
X236915090Y-75549676D01*
X237085585Y-75519970D01*
X237152920Y-75470961D01*
X237158112Y-75399141D01*
X237025511Y-75421258D01*
X236898920Y-75470961D01*
X236782771Y-75527146D01*
X235041340Y-75527146D01*
X234864409Y-75496100D01*
X234714163Y-75485167D01*
X234666231Y-75507264D01*
X232538804Y-75507264D01*
X232878819Y-75458179D01*
X233324178Y-75439336D01*
X233723920Y-75439243D01*
X234118036Y-75439058D01*
X234356495Y-75428768D01*
X234452752Y-75406876D01*
X234420265Y-75371884D01*
X234401253Y-75363869D01*
X233901082Y-75141468D01*
X233416537Y-74880869D01*
X232978772Y-74602904D01*
X232618943Y-74328408D01*
X232368205Y-74078214D01*
X232282384Y-73946961D01*
X232211307Y-73720289D01*
X232161672Y-73416862D01*
X232136805Y-73091722D01*
X232140033Y-72799912D01*
X232174682Y-72596474D01*
X232198101Y-72552152D01*
X232373980Y-72472191D01*
X232586163Y-72482546D01*
X232877253Y-72529783D01*
X232877253Y-72139318D01*
X232887876Y-71895517D01*
X232936883Y-71768602D01*
X233049983Y-71706599D01*
X233097769Y-71693507D01*
X233381575Y-71681343D01*
X233750427Y-71745976D01*
X234147556Y-71871669D01*
X234516196Y-72042685D01*
X234647006Y-72122980D01*
X234900633Y-72329557D01*
X235112713Y-72594984D01*
X235324717Y-72971362D01*
X235328845Y-72979587D01*
X235599612Y-73571911D01*
X235826415Y-74169559D01*
X235990072Y-74718268D01*
X236055320Y-75034580D01*
X236109448Y-75266999D01*
X236173763Y-75332833D01*
X236196295Y-75318452D01*
X236223232Y-75181189D01*
X236184852Y-74890770D01*
X236107750Y-74551731D01*
X236018941Y-74159603D01*
X235984327Y-73880427D01*
X235999675Y-73668221D01*
X236019235Y-73590525D01*
X236084050Y-73322210D01*
X236139343Y-73006042D01*
X236148950Y-72933128D01*
X236223914Y-72573090D01*
X236344977Y-72271520D01*
X236491545Y-72073515D01*
X236561405Y-72029803D01*
X236684931Y-72056117D01*
X236886442Y-72170540D01*
X237086145Y-72319543D01*
X237347935Y-72523790D01*
X237691025Y-72774706D01*
X238054031Y-73027767D01*
X238168920Y-73104949D01*
X238463996Y-73301348D01*
X238702492Y-73460855D01*
X238851595Y-73561484D01*
X238884136Y-73584170D01*
X238880487Y-73679662D01*
X238780161Y-73865586D01*
X238606853Y-74113278D01*
X238384259Y-74394070D01*
X238136072Y-74679297D01*
X237885988Y-74940293D01*
X237657701Y-75148391D01*
X237495783Y-75263806D01*
X237464373Y-75304804D01*
X237561019Y-75326587D01*
X237799852Y-75330400D01*
X238134062Y-75320081D01*
X238536417Y-75314642D01*
X238922027Y-75328528D01*
X239226876Y-75358806D01*
X239307605Y-75373855D01*
X239481513Y-75412070D01*
X239615271Y-75421784D01*
X239742801Y-75387322D01*
X239898028Y-75293007D01*
X240114873Y-75123164D01*
X240427261Y-74862116D01*
X240442268Y-74849518D01*
X240665330Y-74670069D01*
X240817249Y-74584757D01*
X240953515Y-74575302D01*
X241129092Y-74623251D01*
X241323296Y-74702051D01*
X241424457Y-74771814D01*
X241428587Y-74783307D01*
X241367381Y-74860595D01*
X241203419Y-75016375D01*
X240966178Y-75223367D01*
X240832416Y-75334972D01*
X240236246Y-75825422D01*
X240575547Y-76193520D01*
X240772977Y-76435831D01*
X240921164Y-76668986D01*
X240972536Y-76791463D01*
X240995006Y-76943292D01*
X240949803Y-77057676D01*
X240807093Y-77177132D01*
X240619241Y-77294958D01*
X240521067Y-77396838D01*
X240558524Y-77543758D01*
X240564094Y-77554319D01*
X240610163Y-77760414D01*
X240555274Y-77926620D01*
X240404902Y-78076253D01*
X240137766Y-78214839D01*
X239806321Y-78325180D01*
X239463023Y-78390076D01*
X239160330Y-78392331D01*
X239142587Y-78389787D01*
X238846253Y-78343639D01*
X238829599Y-79036420D01*
X238759835Y-79688196D01*
X238580015Y-80220931D01*
X238282674Y-80650298D01*
X237914920Y-80957035D01*
X237662850Y-81125850D01*
X237454404Y-81270088D01*
X237361582Y-81338035D01*
X237169688Y-81457797D01*
X236869690Y-81612104D01*
X236512640Y-81777677D01*
X236149589Y-81931235D01*
X235831588Y-82049499D01*
X235734753Y-82079887D01*
X235503270Y-82159207D01*
X235357896Y-82232382D01*
X235332587Y-82262778D01*
X235402687Y-82324162D01*
X235613967Y-82298364D01*
X235967895Y-82185110D01*
X236169992Y-82107182D01*
X236473431Y-81995541D01*
X236734697Y-81916577D01*
X236896301Y-81887484D01*
X237440383Y-81895359D01*
X237845411Y-81906498D01*
X238141664Y-81924798D01*
X238359420Y-81954159D01*
X238528959Y-81998478D01*
X238680557Y-82061653D01*
X238822271Y-82135454D01*
X239046291Y-82266703D01*
X239193364Y-82370750D01*
X239227253Y-82411347D01*
X239289477Y-82488621D01*
X239449687Y-82628809D01*
X239598428Y-82744932D01*
X239831112Y-82941368D01*
X240015774Y-83136145D01*
X240077961Y-83225512D01*
X240140554Y-83397948D01*
X240083362Y-83538029D01*
X240032331Y-83598138D01*
X239861041Y-83727098D01*
X239722131Y-83768294D01*
X239595619Y-83828977D01*
X239570516Y-83957465D01*
X239650587Y-84064627D01*
X239722060Y-84194788D01*
X239719143Y-84397947D01*
X239645143Y-84596649D01*
X239626727Y-84623116D01*
X239407181Y-84807585D01*
X239056545Y-84979484D01*
X238613008Y-85121918D01*
X238380587Y-85174415D01*
X238148131Y-85159609D01*
X237815201Y-85059849D01*
X237415937Y-84892909D01*
X236984480Y-84676559D01*
X236554970Y-84428573D01*
X236161549Y-84166721D01*
X235838358Y-83908777D01*
X235712633Y-83785602D01*
X235578273Y-83661051D01*
X235505940Y-83633623D01*
X235501920Y-83646392D01*
X235554333Y-83785289D01*
X235578165Y-83814860D01*
X235654430Y-83982879D01*
X235710438Y-84277476D01*
X235745376Y-84657015D01*
X235758427Y-85079860D01*
X235748778Y-85504376D01*
X235715613Y-85888928D01*
X235658117Y-86191879D01*
X235626509Y-86284789D01*
X235426041Y-86659397D01*
X235151786Y-87035220D01*
X234848297Y-87358105D01*
X234570872Y-87567960D01*
X234251772Y-87747305D01*
X234021708Y-87445676D01*
X233874278Y-87264844D01*
X233778200Y-87202990D01*
X233687790Y-87240321D01*
X233640739Y-87280616D01*
X233420480Y-87392723D01*
X233198662Y-87341219D01*
X232985005Y-87131452D01*
X232813973Y-86825821D01*
X232635147Y-86340724D01*
X232566219Y-85897102D01*
X232611388Y-85457193D01*
X232774852Y-84983238D01*
X233060811Y-84437476D01*
X233083908Y-84398330D01*
X233255172Y-84141746D01*
X233477061Y-83853191D01*
X233721204Y-83564348D01*
X233959230Y-83306907D01*
X234162767Y-83112552D01*
X234221429Y-83071026D01*
X235218162Y-83071026D01*
X235263488Y-83218318D01*
X235356927Y-83371991D01*
X235407030Y-83370121D01*
X235388519Y-83220799D01*
X235376945Y-83182008D01*
X235301716Y-83041862D01*
X235244029Y-83006294D01*
X235218162Y-83071026D01*
X234221429Y-83071026D01*
X234303443Y-83012969D01*
X234330318Y-83006294D01*
X234391991Y-82936904D01*
X234401253Y-82869556D01*
X234385808Y-82785777D01*
X234310887Y-82795714D01*
X234168420Y-82879161D01*
X233945427Y-83044534D01*
X233720234Y-83247286D01*
X233707068Y-83260690D01*
X233532173Y-83404375D01*
X233253290Y-83594023D01*
X232917312Y-83798724D01*
X232737347Y-83899906D01*
X232359789Y-84097373D01*
X232068617Y-84222968D01*
X231807164Y-84295424D01*
X231518763Y-84333475D01*
X231399391Y-84342233D01*
X231041573Y-84348852D01*
X230700612Y-84328120D01*
X230474279Y-84289867D01*
X230145922Y-84199203D01*
X228470078Y-85528625D01*
X226794234Y-86858047D01*
X227464032Y-86953748D01*
X227997382Y-87061662D01*
X228369344Y-87210606D01*
X228583178Y-87402058D01*
X228620549Y-87477394D01*
X228709983Y-87649547D01*
X228827665Y-87822545D01*
X228964476Y-88077944D01*
X228940440Y-88285194D01*
X228754083Y-88453364D01*
X228722377Y-88470505D01*
X228553060Y-88569278D01*
X228514040Y-88655391D01*
X228582720Y-88788962D01*
X228595377Y-88808367D01*
X228708670Y-89065858D01*
X228671936Y-89274273D01*
X228479694Y-89441334D01*
X228126466Y-89574765D01*
X228034928Y-89598361D01*
X227639446Y-89681380D01*
X227318300Y-89705860D01*
X227029021Y-89660825D01*
X226729141Y-89535299D01*
X226376192Y-89318306D01*
X226044035Y-89083799D01*
X225810363Y-88918904D01*
X225633952Y-88803321D01*
X225557202Y-88763627D01*
X225511894Y-88836538D01*
X225514177Y-89025660D01*
X225558044Y-89286576D01*
X225637488Y-89574870D01*
X225684464Y-89704799D01*
X225802906Y-90141486D01*
X225782714Y-90537243D01*
X225677948Y-90837961D01*
X225442745Y-91450630D01*
X225337144Y-91973734D01*
X225332030Y-92162563D01*
X225333588Y-92403268D01*
X225292202Y-92528924D01*
X225172573Y-92593642D01*
X225026477Y-92630935D01*
X224815226Y-92697262D01*
X224718254Y-92801985D01*
X224681946Y-93005548D01*
X224680642Y-93020832D01*
X224654365Y-93335627D01*
X224248776Y-93335627D01*
X223690557Y-93270550D01*
X223214328Y-93082188D01*
X223057532Y-92977009D01*
X222775304Y-92694067D01*
X222489211Y-92295318D01*
X222230349Y-91830637D01*
X222029812Y-91349904D01*
X222014553Y-91304068D01*
X221913721Y-91024873D01*
X221825347Y-90835946D01*
X221765045Y-90769150D01*
X221755747Y-90775951D01*
X221748462Y-90889608D01*
X221772444Y-90914298D01*
X221854737Y-91045485D01*
X221926249Y-91306650D01*
X221981724Y-91658532D01*
X222015905Y-92061865D01*
X222023535Y-92477387D01*
X222013355Y-92713793D01*
X221967002Y-93163748D01*
X221887304Y-93488542D01*
X221751699Y-93732004D01*
X221537625Y-93937962D01*
X221298247Y-94102935D01*
X221049586Y-94257094D01*
X220900242Y-94330088D01*
X220807226Y-94332525D01*
X220727549Y-94275016D01*
X220702187Y-94250027D01*
X220612020Y-94103069D01*
X220600587Y-94043357D01*
X220546640Y-93910385D01*
X220385064Y-93907883D01*
X220221855Y-93976594D01*
X219948320Y-94058896D01*
X219743427Y-93996626D01*
X219625181Y-93795831D01*
X219620117Y-93774484D01*
X219555116Y-93515340D01*
X219492920Y-93301826D01*
X219439769Y-93045000D01*
X219415417Y-92752036D01*
X219415253Y-92730326D01*
X219402382Y-92517110D01*
X219343461Y-92424451D01*
X219208583Y-92404294D01*
X219026799Y-92370576D01*
X218940586Y-92293334D01*
X218979066Y-92208437D01*
X219028887Y-92182971D01*
X219138173Y-92066454D01*
X219166220Y-91950735D01*
X219226351Y-91809939D01*
X219410377Y-91633919D01*
X219734280Y-91407419D01*
X219737720Y-91405206D01*
X220053534Y-91188763D01*
X220374064Y-90946358D01*
X220672958Y-90700983D01*
X220923863Y-90475629D01*
X221100426Y-90293286D01*
X221176295Y-90176945D01*
X221172225Y-90153711D01*
X221089175Y-90180473D01*
X220920040Y-90301095D01*
X220699326Y-90490556D01*
X220668875Y-90518721D01*
X220294748Y-90818126D01*
X219916984Y-91035042D01*
X219796253Y-91083330D01*
X219489451Y-91188662D01*
X219199476Y-91287990D01*
X219096624Y-91323132D01*
X218919698Y-91364804D01*
X218725572Y-91359400D01*
X218462613Y-91301195D01*
X218204168Y-91224161D01*
X217788330Y-91084992D01*
X217517113Y-90967512D01*
X217369980Y-90856046D01*
X217326390Y-90734919D01*
X217365807Y-90588455D01*
X217367200Y-90585382D01*
X217471346Y-90428748D01*
X217565530Y-90372294D01*
X217584760Y-90320970D01*
X217499597Y-90195081D01*
X217478294Y-90171670D01*
X217447295Y-90118294D01*
X222590253Y-90118294D01*
X222626316Y-90175652D01*
X222799619Y-90202236D01*
X222844253Y-90202961D01*
X223039561Y-90183195D01*
X223103334Y-90130754D01*
X223098253Y-90118294D01*
X222981251Y-90052155D01*
X222844253Y-90033627D01*
X222666961Y-90065587D01*
X222590253Y-90118294D01*
X217447295Y-90118294D01*
X217343948Y-89940342D01*
X217368573Y-89694371D01*
X217554617Y-89425542D01*
X217573965Y-89407769D01*
X220815136Y-89407769D01*
X220897390Y-89526146D01*
X221031667Y-89639109D01*
X221100895Y-89642041D01*
X221070639Y-89545902D01*
X221025618Y-89485340D01*
X220934330Y-89409092D01*
X221701253Y-89409092D01*
X221714379Y-89500142D01*
X221780806Y-89476110D01*
X221871106Y-89398157D01*
X221982612Y-89273480D01*
X222001757Y-89205242D01*
X221891150Y-89190300D01*
X221766773Y-89271145D01*
X221701707Y-89398201D01*
X221701253Y-89409092D01*
X220934330Y-89409092D01*
X220896401Y-89377412D01*
X220831097Y-89356294D01*
X220815136Y-89407769D01*
X217573965Y-89407769D01*
X217755651Y-89240873D01*
X218131436Y-89010329D01*
X218572215Y-88892176D01*
X219102196Y-88882908D01*
X219669253Y-88963538D01*
X220000408Y-89031797D01*
X220283443Y-89095585D01*
X220462377Y-89142213D01*
X220473587Y-89145846D01*
X220532131Y-89138010D01*
X220454953Y-89029010D01*
X220325420Y-88897571D01*
X220118154Y-88656266D01*
X220014375Y-88443535D01*
X220007920Y-88391828D01*
X219975194Y-88179726D01*
X219895004Y-87922626D01*
X219880920Y-87887686D01*
X219767764Y-87514995D01*
X219750849Y-87197294D01*
X225003253Y-87197294D01*
X225045587Y-87239627D01*
X225087920Y-87197294D01*
X225045587Y-87154961D01*
X225003253Y-87197294D01*
X219750849Y-87197294D01*
X219750770Y-87195805D01*
X219824704Y-86958230D01*
X219984329Y-86830380D01*
X220080478Y-86816130D01*
X220256524Y-86796470D01*
X220549265Y-86743685D01*
X220911404Y-86666843D01*
X221150920Y-86610884D01*
X221549431Y-86518870D01*
X221817577Y-86470579D01*
X221987706Y-86462846D01*
X222092167Y-86492508D01*
X222124587Y-86515657D01*
X222288360Y-86601732D01*
X222531459Y-86674680D01*
X222586204Y-86685618D01*
X222869376Y-86764604D01*
X223188797Y-86892786D01*
X223305197Y-86950342D01*
X223594739Y-87089426D01*
X223789360Y-87152071D01*
X223871867Y-87135409D01*
X223856121Y-87102027D01*
X225195306Y-87102027D01*
X225197186Y-87144107D01*
X225294590Y-87154961D01*
X225435389Y-87108461D01*
X225464040Y-87078190D01*
X225436949Y-87034921D01*
X225342037Y-87045731D01*
X225195306Y-87102027D01*
X223856121Y-87102027D01*
X223825480Y-87037070D01*
X223681488Y-86924730D01*
X223466780Y-86814132D01*
X223455279Y-86809429D01*
X223228577Y-86697409D01*
X222988439Y-86548110D01*
X222781091Y-86394366D01*
X222652760Y-86269010D01*
X222632587Y-86225081D01*
X222704847Y-86162305D01*
X222889625Y-86070946D01*
X223034753Y-86012865D01*
X223327739Y-85892037D01*
X223683758Y-85728320D01*
X223971408Y-85584972D01*
X224271760Y-85438817D01*
X224459979Y-85388617D01*
X224552683Y-85450365D01*
X224566490Y-85640058D01*
X224518015Y-85973691D01*
X224496435Y-86090361D01*
X224442626Y-86477466D01*
X224455511Y-86723010D01*
X224479169Y-86784547D01*
X224533154Y-86845613D01*
X224573512Y-86784277D01*
X224611320Y-86579450D01*
X224619928Y-86516569D01*
X224692254Y-85999949D01*
X224760660Y-85619425D01*
X224839273Y-85342724D01*
X224942224Y-85137573D01*
X225083642Y-84971700D01*
X225277658Y-84812833D01*
X225406155Y-84720781D01*
X225716999Y-84489226D01*
X226076622Y-84201464D01*
X226410444Y-83917289D01*
X226429775Y-83900096D01*
X226690599Y-83683813D01*
X226917738Y-83524993D01*
X227073408Y-83449054D01*
X227103742Y-83446706D01*
X227214863Y-83542606D01*
X227295662Y-83744882D01*
X227298598Y-83758583D01*
X227396816Y-84028373D01*
X227565299Y-84153354D01*
X227826679Y-84152056D01*
X228067772Y-84107890D01*
X228007314Y-84628793D01*
X227946857Y-85149696D01*
X228443555Y-84758751D01*
X228844596Y-84442258D01*
X229129434Y-84211987D01*
X229314879Y-84049360D01*
X229417737Y-83935804D01*
X229454817Y-83852742D01*
X229442925Y-83781600D01*
X229398870Y-83703801D01*
X229398561Y-83703306D01*
X229339821Y-83577546D01*
X229363292Y-83464415D01*
X229487288Y-83309840D01*
X229556359Y-83237454D01*
X229752572Y-83011922D01*
X229812311Y-82864800D01*
X229734533Y-82772850D01*
X229532920Y-82715547D01*
X229337108Y-82654102D01*
X229253248Y-82550894D01*
X229284072Y-82386415D01*
X229432312Y-82141157D01*
X229653689Y-81853353D01*
X229879942Y-81585436D01*
X229897610Y-81568892D01*
X233426393Y-81568892D01*
X233453251Y-81663351D01*
X233594711Y-81778894D01*
X233802842Y-81889096D01*
X234029715Y-81967532D01*
X234189587Y-81989661D01*
X234443587Y-81989661D01*
X234153766Y-81812977D01*
X233800384Y-81619407D01*
X233556902Y-81535242D01*
X233430541Y-81562907D01*
X233426393Y-81568892D01*
X229897610Y-81568892D01*
X229954742Y-81515393D01*
X234860058Y-81515393D01*
X234879491Y-81596805D01*
X234910373Y-81566961D01*
X234963707Y-81402271D01*
X234991541Y-81158817D01*
X234992623Y-81108349D01*
X234985449Y-80884205D01*
X234963865Y-80823409D01*
X234931385Y-80920930D01*
X234891524Y-81171733D01*
X234879297Y-81270627D01*
X234860058Y-81515393D01*
X229954742Y-81515393D01*
X230056196Y-81420391D01*
X230231677Y-81323878D01*
X230455616Y-81261555D01*
X230521522Y-81247974D01*
X230941023Y-81196780D01*
X231448803Y-81182133D01*
X231967987Y-81203196D01*
X232421700Y-81259130D01*
X232473586Y-81269274D01*
X232690410Y-81299202D01*
X232801657Y-81261335D01*
X232848652Y-81180706D01*
X232849919Y-81032138D01*
X232786652Y-80986772D01*
X232621888Y-80883859D01*
X232397138Y-80682773D01*
X232149930Y-80423776D01*
X231917791Y-80147132D01*
X231738250Y-79893105D01*
X231692816Y-79813201D01*
X231599549Y-79562777D01*
X231518070Y-79219957D01*
X231454274Y-78832432D01*
X231414058Y-78447896D01*
X231403317Y-78114041D01*
X231425124Y-77905563D01*
X234401253Y-77905563D01*
X234445460Y-78018272D01*
X234539043Y-78170006D01*
X234614420Y-78268208D01*
X234673408Y-78286848D01*
X234740206Y-78204461D01*
X234753044Y-78177841D01*
X237890271Y-78177841D01*
X238011227Y-78317684D01*
X238161266Y-78349627D01*
X238339850Y-78321247D01*
X238418919Y-78271435D01*
X238389106Y-78177323D01*
X238254278Y-78043211D01*
X238211899Y-78011421D01*
X238039428Y-77900725D01*
X237951066Y-77891097D01*
X237905512Y-77962613D01*
X237890271Y-78177841D01*
X234753044Y-78177841D01*
X234839011Y-77999587D01*
X234909243Y-77841649D01*
X235083974Y-77498438D01*
X235293707Y-77157810D01*
X235442073Y-76957171D01*
X235667521Y-76662129D01*
X235767743Y-76462045D01*
X235753626Y-76377058D01*
X236518614Y-76377058D01*
X236564036Y-76547596D01*
X236717824Y-76817613D01*
X236814253Y-76958620D01*
X236972653Y-77197540D01*
X237080178Y-77390585D01*
X237110587Y-77478866D01*
X237171698Y-77543887D01*
X237237587Y-77533578D01*
X237350006Y-77432758D01*
X237364587Y-77377269D01*
X237305378Y-77234142D01*
X237249628Y-77174287D01*
X237139970Y-77050370D01*
X236986634Y-76839065D01*
X236894078Y-76698254D01*
X236747635Y-76485093D01*
X236630275Y-76346967D01*
X236585703Y-76317627D01*
X236518614Y-76377058D01*
X235753626Y-76377058D01*
X235748161Y-76344154D01*
X235713012Y-76319464D01*
X235624780Y-76361686D01*
X235485526Y-76513113D01*
X235372923Y-76670199D01*
X235163128Y-76962415D01*
X234906518Y-77281915D01*
X234759090Y-77449636D01*
X234571762Y-77662952D01*
X234442228Y-77829740D01*
X234401253Y-77905563D01*
X231425124Y-77905563D01*
X231427948Y-77878560D01*
X231447148Y-77826027D01*
X231519386Y-77556994D01*
X231452989Y-77332994D01*
X231276483Y-77172011D01*
X231018392Y-77092031D01*
X230707240Y-77111040D01*
X230456095Y-77201137D01*
X230291636Y-77265220D01*
X230118907Y-77279092D01*
X229877033Y-77243005D01*
X229702253Y-77204236D01*
X229310429Y-77088492D01*
X228881443Y-76922999D01*
X228466838Y-76731380D01*
X228118162Y-76537256D01*
X227903087Y-76379707D01*
X227763650Y-76286709D01*
X227705472Y-76307432D01*
X227761894Y-76422473D01*
X227784250Y-76448861D01*
X227858482Y-76602445D01*
X227937314Y-76875900D01*
X228011688Y-77220314D01*
X228072545Y-77586775D01*
X228110828Y-77926371D01*
X228117479Y-78190193D01*
X228114144Y-78230205D01*
X228033624Y-78546281D01*
X227875013Y-78905932D01*
X227669233Y-79255849D01*
X227447205Y-79542721D01*
X227260377Y-79702172D01*
X227101826Y-79775689D01*
X226981103Y-79751616D01*
X226830631Y-79626245D01*
X226667451Y-79498318D01*
X226552515Y-79489857D01*
X226492522Y-79528651D01*
X226318517Y-79597125D01*
X226136534Y-79604578D01*
X225982329Y-79554112D01*
X225844759Y-79420262D01*
X225689879Y-79167923D01*
X225659865Y-79111627D01*
X225521404Y-78822462D01*
X225454079Y-78582445D01*
X225440754Y-78308095D01*
X225451329Y-78095627D01*
X225559001Y-77542914D01*
X225797661Y-76964824D01*
X226145139Y-76408202D01*
X226391025Y-76110132D01*
X226562327Y-75911323D01*
X226673203Y-75760010D01*
X226674116Y-75757996D01*
X227397328Y-75757996D01*
X227404119Y-75851917D01*
X227456888Y-75934581D01*
X227572909Y-76051302D01*
X227599996Y-76026627D01*
X227539372Y-75887042D01*
X227450599Y-75769387D01*
X227397328Y-75757996D01*
X226674116Y-75757996D01*
X226696587Y-75708415D01*
X226651606Y-75638739D01*
X226523676Y-75703747D01*
X226323317Y-75896922D01*
X226240091Y-75991194D01*
X225927043Y-76307809D01*
X225540922Y-76626284D01*
X225129348Y-76913053D01*
X224739941Y-77134547D01*
X224457603Y-77247649D01*
X224098390Y-77304426D01*
X223691565Y-77300946D01*
X223282513Y-77245509D01*
X222916620Y-77146417D01*
X222639274Y-77011969D01*
X222516496Y-76892639D01*
X222479243Y-76755061D01*
X222550974Y-76584765D01*
X222614068Y-76493900D01*
X222761612Y-76264600D01*
X222782493Y-76130663D01*
X222673563Y-76071621D01*
X222547920Y-76063627D01*
X222370645Y-76033734D01*
X222301409Y-75932976D01*
X222341088Y-75744740D01*
X222490556Y-75452410D01*
X222588629Y-75290840D01*
X222742690Y-75053163D01*
X222872167Y-74903169D01*
X223027003Y-74807724D01*
X223257136Y-74733696D01*
X223527435Y-74668003D01*
X224306531Y-74557875D01*
X225041199Y-74601989D01*
X225717199Y-74799324D01*
X225785903Y-74829671D01*
X226162993Y-74984282D01*
X226409017Y-75043788D01*
X226520533Y-75007507D01*
X226527253Y-74976551D01*
X226457060Y-74893808D01*
X226292104Y-74799658D01*
X226100818Y-74727860D01*
X225984854Y-74708961D01*
X225823559Y-74663617D01*
X225566927Y-74543616D01*
X225257213Y-74373002D01*
X224936673Y-74175821D01*
X224647561Y-73976118D01*
X224516961Y-73873671D01*
X224155412Y-73480135D01*
X223891214Y-73006243D01*
X223750488Y-72505190D01*
X223734409Y-72280037D01*
X223745110Y-71912772D01*
X223788186Y-71681259D01*
X223883893Y-71552350D01*
X224052489Y-71492900D01*
X224226546Y-71474742D01*
X224469079Y-71449024D01*
X224598728Y-71386927D01*
X224671914Y-71249001D01*
X224704624Y-71140484D01*
X224791587Y-70831674D01*
X225335692Y-71049589D01*
G37*
G36*
X161577419Y-85155233D02*
G01*
X161832636Y-85336269D01*
X162065828Y-85355557D01*
X162299983Y-85214589D01*
X162312571Y-85202944D01*
X162497803Y-85028928D01*
X162783404Y-85520444D01*
X162935710Y-85801706D01*
X163021640Y-86034324D01*
X163059406Y-86290588D01*
X163067221Y-86642790D01*
X163067209Y-86646961D01*
X163048895Y-87020704D01*
X163002252Y-87359020D01*
X162942647Y-87578294D01*
X162739824Y-87984129D01*
X162460315Y-88435548D01*
X162150704Y-88862038D01*
X161911709Y-89138864D01*
X161741203Y-89327740D01*
X161639929Y-89464050D01*
X161626569Y-89507832D01*
X161696225Y-89465776D01*
X161857856Y-89324245D01*
X162086443Y-89106184D01*
X162323777Y-88868527D01*
X162704956Y-88499244D01*
X163039589Y-88227176D01*
X163380579Y-88012481D01*
X163628804Y-87885725D01*
X163955340Y-87742174D01*
X164249728Y-87634427D01*
X164459795Y-87581003D01*
X164494924Y-87578294D01*
X164787796Y-87625016D01*
X165135025Y-87744246D01*
X165457269Y-87904577D01*
X165628225Y-88026893D01*
X165751089Y-88154638D01*
X165762518Y-88265198D01*
X165676750Y-88431792D01*
X165589852Y-88616136D01*
X165605904Y-88741641D01*
X165647312Y-88800408D01*
X165813795Y-88912159D01*
X165916287Y-88932961D01*
X166034494Y-88978679D01*
X166074489Y-89141351D01*
X166075253Y-89184111D01*
X165999502Y-89449647D01*
X165784028Y-89756180D01*
X165446506Y-90082246D01*
X165148421Y-90309689D01*
X164937705Y-90444865D01*
X164746199Y-90525655D01*
X164515653Y-90567361D01*
X164187819Y-90585282D01*
X164090088Y-90587703D01*
X163394523Y-90560457D01*
X162649592Y-90459354D01*
X161951204Y-90297540D01*
X161932194Y-90291950D01*
X161731864Y-90243657D01*
X161614656Y-90236087D01*
X161607443Y-90239882D01*
X161638440Y-90303665D01*
X161816352Y-90391897D01*
X162121902Y-90496558D01*
X162434246Y-90583872D01*
X162887305Y-90744053D01*
X163255839Y-90957524D01*
X163300901Y-90993329D01*
X163661859Y-91295894D01*
X163916769Y-91518112D01*
X164088772Y-91689105D01*
X164201015Y-91837993D01*
X164276641Y-91993895D01*
X164338793Y-92185932D01*
X164387533Y-92360535D01*
X164471164Y-92705852D01*
X164530171Y-93032959D01*
X164551253Y-93260425D01*
X164533058Y-93473148D01*
X164455741Y-93574298D01*
X164337566Y-93610736D01*
X164161071Y-93616290D01*
X164078569Y-93578273D01*
X163979348Y-93503241D01*
X163898883Y-93571226D01*
X163873920Y-93711826D01*
X163802210Y-93947097D01*
X163605922Y-94099714D01*
X163313319Y-94159917D01*
X162952664Y-94117947D01*
X162815587Y-94077312D01*
X162494784Y-93954117D01*
X162276527Y-93822532D01*
X162098383Y-93635995D01*
X161956695Y-93436729D01*
X161676849Y-92990034D01*
X161458035Y-92562453D01*
X161260653Y-92073656D01*
X161197330Y-91896294D01*
X161103360Y-91646998D01*
X161033382Y-91498942D01*
X161000958Y-91480194D01*
X161000220Y-91488353D01*
X160947020Y-91686380D01*
X160814263Y-91973004D01*
X160627661Y-92304184D01*
X160412929Y-92635883D01*
X160195778Y-92924062D01*
X160097005Y-93035285D01*
X159690069Y-93360155D01*
X159174827Y-93589375D01*
X158636640Y-93716772D01*
X158322072Y-93739740D01*
X158130648Y-93668569D01*
X158035395Y-93487474D01*
X158015616Y-93353336D01*
X157969972Y-93125779D01*
X157867916Y-93022924D01*
X157820253Y-93009720D01*
X157606571Y-92941496D01*
X157490031Y-92811242D01*
X157453242Y-92583456D01*
X157470683Y-92296131D01*
X157584363Y-91783471D01*
X157817399Y-91368335D01*
X158186091Y-91029062D01*
X158339272Y-90941735D01*
X161079920Y-90941735D01*
X161091316Y-91102587D01*
X161125137Y-91096091D01*
X161180829Y-90922667D01*
X161198403Y-90852033D01*
X161218836Y-90685755D01*
X161167980Y-90666530D01*
X161101450Y-90784183D01*
X161079920Y-90941735D01*
X158339272Y-90941735D01*
X158603201Y-90791271D01*
X159102112Y-90564734D01*
X159494326Y-90412223D01*
X159818680Y-90321193D01*
X160114006Y-90279098D01*
X160204243Y-90274080D01*
X160462522Y-90247464D01*
X160609302Y-90198244D01*
X160622785Y-90137549D01*
X160550267Y-90097408D01*
X160388976Y-90079471D01*
X160233253Y-90091215D01*
X159897825Y-90118442D01*
X159465607Y-90120933D01*
X159006955Y-90101083D01*
X158592225Y-90061286D01*
X158392518Y-90028579D01*
X157846028Y-89833706D01*
X157351502Y-89498052D01*
X156947709Y-89049657D01*
X156866508Y-88924926D01*
X156674378Y-88551728D01*
X156613770Y-88277968D01*
X156684924Y-88096131D01*
X156888083Y-87998699D01*
X156896310Y-87996983D01*
X157170411Y-87925844D01*
X157290471Y-87843267D01*
X157271549Y-87728877D01*
X157179194Y-87614177D01*
X157066951Y-87453881D01*
X157076489Y-87323126D01*
X157220931Y-87208212D01*
X157513401Y-87095438D01*
X157738417Y-87030359D01*
X158291741Y-86880581D01*
X158841672Y-87151311D01*
X159476346Y-87554974D01*
X160027429Y-88090230D01*
X160466608Y-88728616D01*
X160529424Y-88847972D01*
X160727331Y-89216829D01*
X160877013Y-89437339D01*
X160987312Y-89520580D01*
X161049462Y-89499640D01*
X161041767Y-89404038D01*
X160969530Y-89220636D01*
X160858976Y-89004582D01*
X160736332Y-88811029D01*
X160699464Y-88763627D01*
X160621493Y-88615110D01*
X160520651Y-88348637D01*
X160411638Y-88011366D01*
X160309155Y-87650455D01*
X160227904Y-87313061D01*
X160197276Y-87152697D01*
X160195331Y-86821248D01*
X160266917Y-86416867D01*
X160393569Y-86008786D01*
X160556820Y-85666237D01*
X160617636Y-85576666D01*
X160829154Y-85341289D01*
X161065478Y-85133600D01*
X161085758Y-85118803D01*
X161345985Y-84933505D01*
X161577419Y-85155233D01*
G37*
G36*
X250987454Y-81933567D02*
G01*
X251209904Y-82019205D01*
X251479018Y-82178271D01*
X251631959Y-82292010D01*
X251899248Y-82557047D01*
X252090718Y-82866674D01*
X252216048Y-83250859D01*
X252284920Y-83739572D01*
X252307014Y-84362781D01*
X252307053Y-84381860D01*
X252307819Y-84751474D01*
X252308964Y-85048915D01*
X252310321Y-85239593D01*
X252311459Y-85292027D01*
X252369042Y-85237419D01*
X252520615Y-85090905D01*
X252738964Y-84878833D01*
X252861792Y-84759254D01*
X253306743Y-84361306D01*
X253706553Y-84091359D01*
X254100446Y-83930592D01*
X254527645Y-83860188D01*
X254750704Y-83852961D01*
X255159444Y-83876845D01*
X255501237Y-83942028D01*
X255748036Y-84038806D01*
X255871798Y-84157474D01*
X255873128Y-84241365D01*
X255782209Y-84520656D01*
X255777680Y-84692014D01*
X255862997Y-84795141D01*
X255924077Y-84826627D01*
X256087877Y-84975004D01*
X256134946Y-85203211D01*
X256078145Y-85482079D01*
X255930332Y-85782442D01*
X255704367Y-86075130D01*
X255413108Y-86330976D01*
X255204536Y-86458741D01*
X254987922Y-86558757D01*
X254773028Y-86622462D01*
X254510617Y-86658381D01*
X254151451Y-86675041D01*
X253934536Y-86678651D01*
X253522966Y-86675924D01*
X253133272Y-86660342D01*
X252823535Y-86634786D01*
X252710420Y-86617941D01*
X252460889Y-86587135D01*
X252353799Y-86618755D01*
X252350587Y-86632707D01*
X252428986Y-86707473D01*
X252639919Y-86782245D01*
X252946983Y-86845394D01*
X253070253Y-86862577D01*
X253285157Y-86921987D01*
X253595056Y-87046901D01*
X253951205Y-87213306D01*
X254304864Y-87397191D01*
X254607287Y-87574542D01*
X254805207Y-87717284D01*
X255127446Y-88101022D01*
X255374809Y-88592008D01*
X255521262Y-89135350D01*
X255537948Y-89262081D01*
X255561818Y-89543232D01*
X255551751Y-89701148D01*
X255497359Y-89780283D01*
X255407781Y-89819042D01*
X255190190Y-89843642D01*
X254973351Y-89821543D01*
X254794118Y-89801764D01*
X254728621Y-89866150D01*
X254762944Y-90041657D01*
X254802685Y-90152118D01*
X254842743Y-90298618D01*
X254811235Y-90391648D01*
X254682660Y-90442865D01*
X254431517Y-90463925D01*
X254114104Y-90466860D01*
X253790049Y-90460085D01*
X253578678Y-90430431D01*
X253423414Y-90360118D01*
X253267685Y-90231364D01*
X253219793Y-90185789D01*
X252683991Y-89575646D01*
X252305754Y-88921335D01*
X252075095Y-88203171D01*
X252010741Y-87803119D01*
X251953591Y-87446507D01*
X251878931Y-87193265D01*
X251795811Y-87066372D01*
X251724345Y-87075938D01*
X251717260Y-87173444D01*
X251741222Y-87377936D01*
X251761580Y-87493627D01*
X251814500Y-87917945D01*
X251835462Y-88428443D01*
X251824844Y-88952914D01*
X251783023Y-89419155D01*
X251750529Y-89607873D01*
X251577228Y-90070817D01*
X251281868Y-90507515D01*
X250906379Y-90864780D01*
X250624438Y-91036263D01*
X250300098Y-91171046D01*
X250079670Y-91206472D01*
X249926205Y-91137161D01*
X249802754Y-90957733D01*
X249780932Y-90913458D01*
X249667763Y-90715506D01*
X249552252Y-90640985D01*
X249405417Y-90647484D01*
X249180392Y-90698871D01*
X249039727Y-90745655D01*
X248955816Y-90751201D01*
X248899169Y-90658167D01*
X248853942Y-90435203D01*
X248842560Y-90355463D01*
X248794094Y-89772144D01*
X248817915Y-89286718D01*
X248904295Y-88947560D01*
X249074737Y-88653491D01*
X249343258Y-88310151D01*
X249668564Y-87964439D01*
X250009359Y-87663253D01*
X250087446Y-87603847D01*
X250318771Y-87419001D01*
X250432479Y-87297717D01*
X250425869Y-87252926D01*
X250296242Y-87297558D01*
X250132540Y-87387925D01*
X249798342Y-87541039D01*
X249378979Y-87665010D01*
X248920667Y-87753487D01*
X248469620Y-87800119D01*
X248072054Y-87798554D01*
X247774184Y-87742443D01*
X247721042Y-87719319D01*
X247537616Y-87593883D01*
X247319752Y-87402904D01*
X247137664Y-87218265D01*
X250588358Y-87218265D01*
X250645210Y-87222550D01*
X250829637Y-87130646D01*
X250948747Y-87061931D01*
X251135716Y-86945187D01*
X251241243Y-86866825D01*
X251249920Y-86854668D01*
X251186414Y-86847052D01*
X251034920Y-86898427D01*
X250853975Y-86982905D01*
X250702114Y-87074597D01*
X250651801Y-87119196D01*
X250588358Y-87218265D01*
X247137664Y-87218265D01*
X247106619Y-87186785D01*
X246937387Y-86985929D01*
X246851224Y-86840740D01*
X246847253Y-86818002D01*
X246911169Y-86717208D01*
X247058920Y-86596841D01*
X247209946Y-86475157D01*
X247270587Y-86382663D01*
X247212461Y-86280295D01*
X247071302Y-86134027D01*
X247058920Y-86123132D01*
X246891174Y-85939426D01*
X246847132Y-85771908D01*
X246936064Y-85605143D01*
X247167241Y-85423693D01*
X247549933Y-85212122D01*
X247629786Y-85172509D01*
X248183469Y-84972773D01*
X248716334Y-84934892D01*
X249254677Y-85058074D01*
X249404910Y-85119078D01*
X249898038Y-85340050D01*
X250271584Y-85516992D01*
X250562943Y-85669372D01*
X250809510Y-85816656D01*
X251029610Y-85964865D01*
X251238588Y-86098064D01*
X251373413Y-86157038D01*
X251404701Y-86134198D01*
X251318913Y-86030637D01*
X251197340Y-85927294D01*
X251932763Y-85927294D01*
X251977848Y-85930687D01*
X252087624Y-85825866D01*
X252101520Y-85809466D01*
X252205765Y-85656204D01*
X252226397Y-85563470D01*
X252224829Y-85561647D01*
X252150427Y-85583507D01*
X252045509Y-85695355D01*
X251958047Y-85837134D01*
X251932763Y-85927294D01*
X251197340Y-85927294D01*
X251128335Y-85868637D01*
X250871287Y-85680275D01*
X250824061Y-85648158D01*
X250547252Y-85441018D01*
X250322011Y-85234151D01*
X250192766Y-85068858D01*
X250186529Y-85055492D01*
X250066914Y-84838662D01*
X249895554Y-84597138D01*
X249860570Y-84554374D01*
X249689805Y-84306703D01*
X249565461Y-84048253D01*
X249552512Y-84008087D01*
X249520296Y-83769509D01*
X249516273Y-83426821D01*
X249536733Y-83042214D01*
X249577965Y-82677881D01*
X249636261Y-82396011D01*
X249651417Y-82350127D01*
X249782833Y-82201371D01*
X249984065Y-82159030D01*
X250185296Y-82233723D01*
X250219481Y-82263722D01*
X250312739Y-82306094D01*
X250427054Y-82229590D01*
X250518548Y-82123299D01*
X250676372Y-81960476D01*
X250833625Y-81914013D01*
X250987454Y-81933567D01*
G37*
G36*
X143766462Y-76552094D02*
G01*
X143962865Y-76751340D01*
X144130495Y-76948419D01*
X144268287Y-77038001D01*
X144371578Y-76976083D01*
X144400587Y-76837564D01*
X144457470Y-76639076D01*
X144597922Y-76546431D01*
X144742458Y-76573342D01*
X144872052Y-76677444D01*
X145062280Y-76869659D01*
X145241432Y-77072674D01*
X145447550Y-77340882D01*
X145561124Y-77565164D01*
X145613601Y-77816921D01*
X145624628Y-77942755D01*
X145596480Y-78736556D01*
X145405287Y-79496895D01*
X145056566Y-80206462D01*
X144779966Y-80593294D01*
X144603427Y-80837874D01*
X144476266Y-81063671D01*
X144415424Y-81233844D01*
X144437841Y-81311555D01*
X144449047Y-81312961D01*
X144543770Y-81254355D01*
X144698242Y-81070744D01*
X144922195Y-80750437D01*
X144942251Y-80720294D01*
X145195020Y-80394993D01*
X145536556Y-80030159D01*
X145914278Y-79679505D01*
X146144494Y-79492081D01*
X146610933Y-79232617D01*
X147151331Y-79086710D01*
X147714869Y-79059165D01*
X148250727Y-79154786D01*
X148525783Y-79267005D01*
X148739445Y-79387094D01*
X148829170Y-79482229D01*
X148825472Y-79596876D01*
X148800950Y-79668018D01*
X148717156Y-79992224D01*
X148760260Y-80226420D01*
X148938983Y-80401871D01*
X149018090Y-80446570D01*
X149317594Y-80600224D01*
X149081590Y-80928771D01*
X148748953Y-81338208D01*
X148395567Y-81681324D01*
X148058237Y-81924988D01*
X147882230Y-82008477D01*
X147638285Y-82060076D01*
X147260499Y-82095632D01*
X146783846Y-82112332D01*
X146580753Y-82113136D01*
X146192943Y-82113270D01*
X145875828Y-82116722D01*
X145662473Y-82122896D01*
X145585920Y-82131039D01*
X145659002Y-82164300D01*
X145842411Y-82221457D01*
X145928419Y-82245326D01*
X146213063Y-82356414D01*
X146566866Y-82543803D01*
X146947786Y-82779364D01*
X147313784Y-83034966D01*
X147622817Y-83282480D01*
X147832844Y-83493778D01*
X147868828Y-83543631D01*
X147935250Y-83729704D01*
X147988171Y-84022524D01*
X148021495Y-84359666D01*
X148029123Y-84678705D01*
X148004958Y-84917217D01*
X148003551Y-84922985D01*
X147945131Y-85059185D01*
X147826468Y-85109154D01*
X147636631Y-85105152D01*
X147428966Y-85100021D01*
X147334707Y-85157552D01*
X147299028Y-85321120D01*
X147293502Y-85376621D01*
X147232281Y-85673336D01*
X147103078Y-85829530D01*
X146880918Y-85868463D01*
X146775974Y-85858609D01*
X146176889Y-85739560D01*
X145707905Y-85551937D01*
X145336465Y-85274247D01*
X145030013Y-84884996D01*
X144869317Y-84599834D01*
X144536030Y-83857163D01*
X144296959Y-83133850D01*
X144179171Y-82561794D01*
X144131508Y-82327617D01*
X144071215Y-82182631D01*
X144039864Y-82159627D01*
X143998800Y-82202319D01*
X143993974Y-82343180D01*
X144027296Y-82601388D01*
X144100674Y-82996121D01*
X144144380Y-83209556D01*
X144187635Y-83643076D01*
X144152977Y-83929222D01*
X144089390Y-84223178D01*
X144034913Y-84547401D01*
X144028757Y-84592957D01*
X143964566Y-84913368D01*
X143846735Y-85187084D01*
X143649254Y-85454054D01*
X143346112Y-85754223D01*
X143173693Y-85906127D01*
X142839352Y-86178045D01*
X142593605Y-86333879D01*
X142411881Y-86383515D01*
X142269613Y-86336837D01*
X142216187Y-86291361D01*
X142125146Y-86123238D01*
X142114587Y-86051472D01*
X142076764Y-85885669D01*
X141948058Y-85849581D01*
X141804216Y-85890297D01*
X141593547Y-85919639D01*
X141393187Y-85821392D01*
X141250342Y-85702190D01*
X141159051Y-85569139D01*
X141102025Y-85376914D01*
X141061976Y-85080192D01*
X141045801Y-84910652D01*
X141028520Y-84589332D01*
X141058126Y-84351081D01*
X141150925Y-84112419D01*
X141232476Y-83955051D01*
X141418102Y-83657646D01*
X141671646Y-83311826D01*
X141958092Y-82959542D01*
X142242429Y-82642743D01*
X142489641Y-82403380D01*
X142597342Y-82319774D01*
X142689508Y-82252311D01*
X142698547Y-82213772D01*
X142600950Y-82198448D01*
X142373207Y-82200628D01*
X142140724Y-82208861D01*
X141657227Y-82201327D01*
X141161975Y-82151324D01*
X140904102Y-82104521D01*
X140760774Y-82067034D01*
X143045920Y-82067034D01*
X143107729Y-82110255D01*
X143244903Y-82089251D01*
X143385066Y-82022535D01*
X143442128Y-81965686D01*
X143433680Y-81913471D01*
X143349218Y-81933572D01*
X143183705Y-81982393D01*
X143123662Y-81990294D01*
X143047205Y-82053141D01*
X143045920Y-82067034D01*
X140760774Y-82067034D01*
X140577820Y-82019183D01*
X140339153Y-81914417D01*
X140216289Y-81823077D01*
X144696920Y-81823077D01*
X144950920Y-81945200D01*
X145135136Y-82016867D01*
X145311943Y-82061140D01*
X145440751Y-82073465D01*
X145480970Y-82049289D01*
X145416587Y-81997436D01*
X145248257Y-81933814D01*
X145011329Y-81877271D01*
X144993253Y-81874069D01*
X144696920Y-81823077D01*
X140216289Y-81823077D01*
X140120385Y-81751780D01*
X139888102Y-81527776D01*
X139645444Y-81266706D01*
X139433185Y-81012549D01*
X139297606Y-80820835D01*
X139216092Y-80671419D01*
X139199801Y-80567293D01*
X139268223Y-80465298D01*
X139440844Y-80322273D01*
X139565797Y-80226862D01*
X139701652Y-80091908D01*
X139705356Y-79966017D01*
X139680619Y-79914813D01*
X139630972Y-79687885D01*
X139745584Y-79485863D01*
X140020580Y-79313548D01*
X140228324Y-79236443D01*
X140799180Y-79128854D01*
X141327258Y-79182741D01*
X141826236Y-79399936D01*
X141924224Y-79463462D01*
X142194358Y-79663670D01*
X142483969Y-79902808D01*
X142762109Y-80152045D01*
X142997832Y-80382549D01*
X143160192Y-80565490D01*
X143218298Y-80669075D01*
X143268355Y-80796818D01*
X143384023Y-80960685D01*
X143522682Y-81112242D01*
X143641712Y-81203058D01*
X143690000Y-81205103D01*
X143678167Y-81109563D01*
X143591456Y-80913894D01*
X143448308Y-80659269D01*
X143438131Y-80642698D01*
X143032635Y-79875011D01*
X142778095Y-79134456D01*
X142679019Y-78434390D01*
X142678087Y-78391961D01*
X142685090Y-78034598D01*
X142730473Y-77766871D01*
X142832144Y-77510322D01*
X142915773Y-77350602D01*
X143112795Y-77029831D01*
X143318853Y-76756655D01*
X143505433Y-76564608D01*
X143644019Y-76487225D01*
X143650132Y-76486960D01*
X143766462Y-76552094D01*
G37*
G36*
X198652197Y-74679271D02*
G01*
X198779461Y-74745195D01*
X198833150Y-74888117D01*
X198841253Y-75057502D01*
X198858280Y-75278356D01*
X198921989Y-75373034D01*
X198993653Y-75386294D01*
X199181463Y-75439899D01*
X199247653Y-75487894D01*
X199316239Y-75634253D01*
X199346389Y-75849182D01*
X199335067Y-76056837D01*
X199279235Y-76181369D01*
X199275522Y-76183869D01*
X199206832Y-76292734D01*
X199153546Y-76470663D01*
X199001512Y-76809868D01*
X198697056Y-77112060D01*
X198254281Y-77370934D01*
X197687291Y-77580186D01*
X197010190Y-77733514D01*
X196237081Y-77824612D01*
X196105756Y-77832972D01*
X196003227Y-77877503D01*
X196006388Y-77928670D01*
X196114172Y-77974122D01*
X196336131Y-78000410D01*
X196540552Y-78003071D01*
X196965698Y-78018559D01*
X197436656Y-78077579D01*
X197890185Y-78168879D01*
X198263041Y-78281207D01*
X198375587Y-78329583D01*
X198892093Y-78665098D01*
X199306232Y-79102014D01*
X199592408Y-79609449D01*
X199686989Y-79911835D01*
X199706192Y-80174753D01*
X199606258Y-80324392D01*
X199371443Y-80380066D01*
X199304098Y-80381627D01*
X199071154Y-80400142D01*
X198986712Y-80475028D01*
X199032165Y-80635300D01*
X199081734Y-80728370D01*
X199155323Y-80890341D01*
X199145632Y-81004753D01*
X199030860Y-81088614D01*
X198789204Y-81158933D01*
X198445610Y-81224631D01*
X198155598Y-81268444D01*
X197938607Y-81270225D01*
X197743793Y-81214923D01*
X197520307Y-81087488D01*
X197217304Y-80872871D01*
X197190253Y-80853059D01*
X196622632Y-80350606D01*
X196202992Y-79778385D01*
X195926642Y-79145394D01*
X195824898Y-78866343D01*
X195719484Y-78634645D01*
X195670556Y-78552861D01*
X195556568Y-78434511D01*
X195501446Y-78454003D01*
X195508479Y-78589224D01*
X195580958Y-78818061D01*
X195617982Y-78906257D01*
X195884604Y-79644218D01*
X196023361Y-80350489D01*
X196034857Y-81006820D01*
X195919692Y-81594962D01*
X195678469Y-82096666D01*
X195505573Y-82315018D01*
X195271904Y-82531654D01*
X195022755Y-82709779D01*
X194808415Y-82816365D01*
X194717958Y-82832276D01*
X194626190Y-82768667D01*
X194484904Y-82617263D01*
X194450912Y-82575376D01*
X194248692Y-82399192D01*
X194033332Y-82382988D01*
X193784063Y-82526379D01*
X193741852Y-82562166D01*
X193625813Y-82643464D01*
X193566774Y-82592472D01*
X193545171Y-82530985D01*
X193477682Y-82347057D01*
X193378665Y-82107045D01*
X193364676Y-82074961D01*
X193281094Y-81814917D01*
X193213440Y-81483055D01*
X193190952Y-81304884D01*
X193178010Y-81020997D01*
X193209922Y-80782395D01*
X193301848Y-80518506D01*
X193411719Y-80277398D01*
X193593280Y-79939933D01*
X193802504Y-79613435D01*
X193970660Y-79396474D01*
X194145607Y-79186090D01*
X194244223Y-79036408D01*
X194259416Y-78967616D01*
X194184092Y-78999904D01*
X194078753Y-79088787D01*
X193745290Y-79333426D01*
X193286253Y-79578799D01*
X192743922Y-79803296D01*
X192548787Y-79870793D01*
X191971320Y-80060737D01*
X191405787Y-79776682D01*
X191041654Y-79563383D01*
X190842257Y-79370057D01*
X190804757Y-79192337D01*
X190920834Y-79030351D01*
X190986046Y-78939628D01*
X194364667Y-78939628D01*
X194376665Y-78942294D01*
X194446080Y-78886448D01*
X194591778Y-78743794D01*
X194697144Y-78634688D01*
X194858648Y-78461045D01*
X194906916Y-78393926D01*
X194847085Y-78418770D01*
X194752648Y-78477345D01*
X194605257Y-78595289D01*
X194467631Y-78741122D01*
X194375519Y-78870637D01*
X194364667Y-78939628D01*
X190986046Y-78939628D01*
X191040977Y-78863207D01*
X190992237Y-78702519D01*
X190797920Y-78561294D01*
X190602853Y-78411263D01*
X190561034Y-78232530D01*
X190673375Y-78011119D01*
X190846206Y-77821330D01*
X191000320Y-77682669D01*
X191149792Y-77588901D01*
X191339009Y-77524400D01*
X191612358Y-77473537D01*
X191968039Y-77426378D01*
X192360292Y-77374958D01*
X192722342Y-77322382D01*
X192998495Y-77276945D01*
X193083920Y-77260165D01*
X193419037Y-77242777D01*
X193803587Y-77305790D01*
X194129885Y-77381875D01*
X194319246Y-77406163D01*
X194364367Y-77379913D01*
X194257945Y-77304383D01*
X194231583Y-77291294D01*
X195454587Y-77291294D01*
X195496920Y-77333627D01*
X195539253Y-77291294D01*
X195496920Y-77248961D01*
X195454587Y-77291294D01*
X194231583Y-77291294D01*
X194142971Y-77247297D01*
X193941803Y-77135393D01*
X193903089Y-77062972D01*
X193931305Y-77046040D01*
X194070392Y-76998066D01*
X194318257Y-76912957D01*
X194623455Y-76808374D01*
X194650253Y-76799200D01*
X194972304Y-76674634D01*
X195384570Y-76494733D01*
X195828861Y-76285717D01*
X196167030Y-76115792D01*
X196570450Y-75900594D01*
X196926605Y-75695800D01*
X197276666Y-75475004D01*
X197661808Y-75211801D01*
X198123202Y-74879785D01*
X198323272Y-74732896D01*
X198513938Y-74670049D01*
X198652197Y-74679271D01*
G37*
G36*
X249296773Y-73351940D02*
G01*
X249317772Y-73362421D01*
X249473782Y-73507712D01*
X249558544Y-73655775D01*
X249656488Y-73828514D01*
X249758795Y-73833103D01*
X249871022Y-73669342D01*
X249882878Y-73643977D01*
X249973513Y-73501352D01*
X250079795Y-73474088D01*
X250222953Y-73571246D01*
X250424219Y-73801885D01*
X250508660Y-73911005D01*
X250700123Y-74200037D01*
X250801987Y-74472649D01*
X250820220Y-74777029D01*
X250760788Y-75161366D01*
X250696416Y-75427142D01*
X250545841Y-75890862D01*
X250339642Y-76291222D01*
X250044159Y-76685206D01*
X249787858Y-76965301D01*
X249585184Y-77191934D01*
X249445852Y-77379686D01*
X249397770Y-77490559D01*
X249398737Y-77495080D01*
X249468915Y-77501283D01*
X249607719Y-77416019D01*
X249771154Y-77274272D01*
X249915225Y-77111027D01*
X249953994Y-77053542D01*
X250072608Y-76927963D01*
X250293220Y-76747289D01*
X250572157Y-76542760D01*
X250865743Y-76345613D01*
X251130304Y-76187085D01*
X251249920Y-76126634D01*
X251733703Y-75979789D01*
X252236704Y-75949880D01*
X252713446Y-76032293D01*
X253118452Y-76222415D01*
X253252536Y-76329793D01*
X253369236Y-76454097D01*
X253393064Y-76564234D01*
X253331090Y-76732461D01*
X253298664Y-76801199D01*
X253213496Y-76998120D01*
X253212021Y-77112472D01*
X253301764Y-77212921D01*
X253347936Y-77250884D01*
X253523293Y-77377662D01*
X253642886Y-77443545D01*
X253654298Y-77517350D01*
X253560607Y-77664823D01*
X253391095Y-77856599D01*
X253175041Y-78063316D01*
X252941725Y-78255610D01*
X252720427Y-78404119D01*
X252646920Y-78442340D01*
X252276253Y-78551874D01*
X251810364Y-78598402D01*
X251311703Y-78580671D01*
X250842718Y-78497432D01*
X250780493Y-78479732D01*
X250498323Y-78404288D01*
X250360076Y-78388800D01*
X250370985Y-78431375D01*
X250536282Y-78530121D01*
X250579955Y-78552279D01*
X251016703Y-78822397D01*
X251468300Y-79191070D01*
X251863753Y-79597736D01*
X252049353Y-79833887D01*
X252144200Y-80031190D01*
X252177965Y-80269843D01*
X252181253Y-80455895D01*
X252151111Y-80854243D01*
X252056828Y-81103226D01*
X251892619Y-81212439D01*
X251726801Y-81209715D01*
X251527427Y-81207266D01*
X251422321Y-81315412D01*
X251385290Y-81558414D01*
X251313287Y-81738296D01*
X251128916Y-81816178D01*
X250853218Y-81794344D01*
X250507235Y-81675080D01*
X250112009Y-81460671D01*
X250036995Y-81411972D01*
X249771788Y-81184805D01*
X249553601Y-80877719D01*
X249374169Y-80470309D01*
X249225228Y-79942166D01*
X249098517Y-79272885D01*
X249056265Y-78990019D01*
X249020707Y-78688388D01*
X249005986Y-78453841D01*
X249015113Y-78335455D01*
X249016002Y-78333853D01*
X248993909Y-78270102D01*
X248959706Y-78264961D01*
X248910371Y-78320645D01*
X248891854Y-78500286D01*
X248902799Y-78822766D01*
X248911033Y-78942238D01*
X248928198Y-79381954D01*
X248901420Y-79697225D01*
X248843008Y-79894738D01*
X248740893Y-80147799D01*
X248624570Y-80457138D01*
X248584209Y-80569875D01*
X248480983Y-80806453D01*
X248336339Y-81000225D01*
X248109293Y-81198098D01*
X247906963Y-81344950D01*
X247548246Y-81585677D01*
X247294078Y-81728006D01*
X247118914Y-81781931D01*
X246997204Y-81757443D01*
X246949104Y-81719612D01*
X246867923Y-81558274D01*
X246847253Y-81416300D01*
X246826569Y-81278309D01*
X246730354Y-81246684D01*
X246603005Y-81268485D01*
X246357738Y-81253285D01*
X246172470Y-81107709D01*
X246053159Y-80861859D01*
X246005767Y-80545839D01*
X246036251Y-80189750D01*
X246150571Y-79823697D01*
X246271884Y-79595895D01*
X246438950Y-79371866D01*
X246671071Y-79109356D01*
X246936419Y-78838705D01*
X247203165Y-78590253D01*
X247439479Y-78394339D01*
X247613533Y-78281303D01*
X247667756Y-78265341D01*
X247797500Y-78211772D01*
X247814105Y-78191320D01*
X247772572Y-78158342D01*
X249679611Y-78158342D01*
X249683587Y-78162560D01*
X249833562Y-78253948D01*
X249937587Y-78289254D01*
X250154173Y-78332498D01*
X250214541Y-78320950D01*
X250149253Y-78272627D01*
X249972657Y-78190258D01*
X249802821Y-78136026D01*
X249688791Y-78121523D01*
X249679611Y-78158342D01*
X247772572Y-78158342D01*
X247762840Y-78150615D01*
X247583596Y-78119493D01*
X247366327Y-78106528D01*
X247188791Y-78087701D01*
X248117253Y-78087701D01*
X248184680Y-78131252D01*
X248286587Y-78120159D01*
X248423368Y-78071008D01*
X248455920Y-78043419D01*
X248384670Y-78017001D01*
X248286587Y-78010961D01*
X248148956Y-78043129D01*
X248117253Y-78087701D01*
X247188791Y-78087701D01*
X246935751Y-78060867D01*
X246486705Y-77954076D01*
X246075247Y-77804139D01*
X245757438Y-77629040D01*
X245678690Y-77565128D01*
X245503717Y-77373206D01*
X245308915Y-77116788D01*
X245124166Y-76841244D01*
X244979349Y-76591946D01*
X244904346Y-76414264D01*
X244899920Y-76382635D01*
X244970769Y-76264044D01*
X245142437Y-76153181D01*
X245153920Y-76148294D01*
X245335748Y-76039936D01*
X245402423Y-75877040D01*
X245407920Y-75762019D01*
X245419055Y-75575063D01*
X245477110Y-75459526D01*
X245619055Y-75385593D01*
X245881862Y-75323446D01*
X245973762Y-75305690D01*
X246402353Y-75262463D01*
X246777202Y-75320666D01*
X247136078Y-75494932D01*
X247516747Y-75799894D01*
X247693920Y-75972201D01*
X247995829Y-76307490D01*
X248258781Y-76653601D01*
X248439331Y-76952920D01*
X248449226Y-76973794D01*
X248571857Y-77213556D01*
X248677510Y-77374943D01*
X248730098Y-77418294D01*
X248767519Y-77352732D01*
X248735117Y-77188860D01*
X248646185Y-76975903D01*
X248578304Y-76856182D01*
X248478746Y-76633837D01*
X248374181Y-76298922D01*
X248277372Y-75907268D01*
X248201082Y-75514703D01*
X248158073Y-75177056D01*
X248154629Y-75002919D01*
X248260201Y-74512611D01*
X248494211Y-74024270D01*
X248826748Y-73599862D01*
X248836573Y-73590106D01*
X249039428Y-73406651D01*
X249178451Y-73334065D01*
X249296773Y-73351940D01*
G37*
G36*
X201025254Y-71867373D02*
G01*
X200999910Y-72166119D01*
X200960669Y-72442319D01*
X200793494Y-73106571D01*
X200511007Y-73654108D01*
X200102919Y-74101050D01*
X199733138Y-74365034D01*
X199425640Y-74531580D01*
X199217359Y-74589175D01*
X199079530Y-74539755D01*
X198996066Y-74414569D01*
X198955450Y-74299603D01*
X198965216Y-74193524D01*
X199044052Y-74062300D01*
X199210651Y-73871898D01*
X199405931Y-73668248D01*
X199870003Y-73154307D01*
X200333528Y-72577871D01*
X200737989Y-72012769D01*
X200827804Y-71874357D01*
X200940557Y-71727290D01*
X201005921Y-71723029D01*
X201025254Y-71867373D01*
G37*
G36*
X207380413Y-64022338D02*
G01*
X207392587Y-64042398D01*
X207338863Y-64129280D01*
X207189858Y-64319758D01*
X206963823Y-64591796D01*
X206679007Y-64923353D01*
X206408208Y-65231148D01*
X206051644Y-65634552D01*
X205792763Y-65936576D01*
X205615485Y-66161267D01*
X205503729Y-66332668D01*
X205441414Y-66474825D01*
X205412459Y-66611784D01*
X205402439Y-66735016D01*
X205298830Y-67237995D01*
X205061899Y-67713214D01*
X204720639Y-68127106D01*
X204304041Y-68446103D01*
X203841098Y-68636638D01*
X203742546Y-68656878D01*
X203362838Y-68795384D01*
X203090143Y-68991457D01*
X202789993Y-69266524D01*
X203249790Y-69418571D01*
X203862394Y-69662448D01*
X204337800Y-69955218D01*
X204706811Y-70324562D01*
X205000229Y-70798162D01*
X205143467Y-71120388D01*
X205298846Y-71561636D01*
X205354335Y-71879015D01*
X205304859Y-72088955D01*
X205145340Y-72207888D01*
X204870701Y-72252245D01*
X204793320Y-72253627D01*
X204548401Y-72270721D01*
X204447448Y-72342697D01*
X204473153Y-72500595D01*
X204556750Y-72677920D01*
X204634981Y-72852175D01*
X204622240Y-72942780D01*
X204535583Y-73000745D01*
X204381807Y-73044304D01*
X204113372Y-73088774D01*
X203784674Y-73125378D01*
X203739603Y-73129161D01*
X203387782Y-73150053D01*
X203165942Y-73141156D01*
X203036765Y-73098841D01*
X202988403Y-73056133D01*
X202853568Y-72950028D01*
X202785233Y-72930961D01*
X202672710Y-72871157D01*
X202482692Y-72712851D01*
X202245997Y-72487702D01*
X201993443Y-72227367D01*
X201755850Y-71963504D01*
X201564038Y-71727771D01*
X201455703Y-71565235D01*
X201358077Y-71369105D01*
X201316388Y-71213272D01*
X201334876Y-71047470D01*
X201417784Y-70821435D01*
X201541783Y-70545034D01*
X201958215Y-69555845D01*
X202271607Y-68613348D01*
X202498339Y-67655859D01*
X202654793Y-66621696D01*
X202700523Y-66181849D01*
X202733755Y-65864840D01*
X202773018Y-65675109D01*
X202837473Y-65571109D01*
X202946284Y-65511293D01*
X203021725Y-65485486D01*
X203273804Y-65435122D01*
X203625982Y-65401732D01*
X204009627Y-65387981D01*
X204356113Y-65396531D01*
X204577738Y-65425084D01*
X204812954Y-65505015D01*
X204909948Y-65619005D01*
X204899809Y-65804002D01*
X204899111Y-65807030D01*
X204896241Y-65887830D01*
X204955152Y-65872288D01*
X205089887Y-65749587D01*
X205314491Y-65508913D01*
X205378343Y-65437961D01*
X205789949Y-64979980D01*
X206107311Y-64632811D01*
X206348591Y-64380620D01*
X206531948Y-64207575D01*
X206675544Y-64097841D01*
X206797539Y-64035585D01*
X206916095Y-64004974D01*
X207037830Y-63991141D01*
X207255077Y-63989870D01*
X207380413Y-64022338D01*
G37*
G36*
X228769739Y-68224611D02*
G01*
X228958619Y-68301964D01*
X229198609Y-68419820D01*
X229442525Y-68555097D01*
X229633224Y-68677518D01*
X229940201Y-68972575D01*
X230194783Y-69358672D01*
X230379557Y-69790561D01*
X230477109Y-70222992D01*
X230470025Y-70610719D01*
X230431104Y-70750794D01*
X230301598Y-70945814D01*
X230142391Y-70985489D01*
X229980856Y-70873901D01*
X229863338Y-70666127D01*
X229534609Y-69876054D01*
X229240192Y-69241675D01*
X228975787Y-68753809D01*
X228942469Y-68699176D01*
X228798734Y-68458186D01*
X228704042Y-68281862D01*
X228679154Y-68210838D01*
X228769739Y-68224611D01*
G37*
G36*
X230532482Y-65138671D02*
G01*
X230866167Y-65207152D01*
X231118921Y-65310541D01*
X231254906Y-65445171D01*
X231268587Y-65508619D01*
X231220843Y-65657179D01*
X231144279Y-65781612D01*
X231023478Y-66004672D01*
X231034865Y-66160277D01*
X231173262Y-66226201D01*
X231247420Y-66224332D01*
X231431581Y-66249404D01*
X231501950Y-66379757D01*
X231458933Y-66622358D01*
X231302935Y-66984173D01*
X231292797Y-67004294D01*
X231144723Y-67270985D01*
X230998265Y-67442006D01*
X230795564Y-67569769D01*
X230548920Y-67678148D01*
X230163784Y-67806944D01*
X229739573Y-67883710D01*
X229269881Y-67918741D01*
X228498841Y-67951146D01*
X228023424Y-67339285D01*
X227548007Y-66727424D01*
X227715459Y-66492259D01*
X227943739Y-66225247D01*
X228262328Y-65918878D01*
X228616269Y-65620806D01*
X228950606Y-65378688D01*
X229105164Y-65287193D01*
X229404206Y-65179360D01*
X229765664Y-65121107D01*
X230153702Y-65108767D01*
X230532482Y-65138671D01*
G37*
G36*
X228166291Y-64298651D02*
G01*
X228176593Y-64564694D01*
X228129163Y-64904572D01*
X228036806Y-65282435D01*
X227912326Y-65662434D01*
X227768526Y-66008717D01*
X227618210Y-66285436D01*
X227474184Y-66456740D01*
X227381964Y-66494694D01*
X227301695Y-66439391D01*
X227132085Y-66293575D01*
X226904973Y-66085008D01*
X226823587Y-66007860D01*
X226506782Y-65712312D01*
X226161695Y-65401207D01*
X225862275Y-65141198D01*
X225858519Y-65138036D01*
X225621323Y-64934083D01*
X225490603Y-64794462D01*
X225443038Y-64674758D01*
X225455305Y-64530558D01*
X225480602Y-64418369D01*
X225559752Y-64083294D01*
X226836823Y-64059981D01*
X228113895Y-64036669D01*
X228166291Y-64298651D01*
G37*
G36*
X209989031Y-63984516D02*
G01*
X209977409Y-64034850D01*
X209932587Y-64040961D01*
X209862896Y-64009982D01*
X209876142Y-63984516D01*
X209976622Y-63974383D01*
X209989031Y-63984516D01*
G37*
%TD*%
%LPC*%
%LPD*%
M02*
