%TF.GenerationSoftware,KiCad,Pcbnew,7.0.10*%
%TF.CreationDate,2024-03-23T19:14:43-04:00*%
%TF.ProjectId,left panel no aux,6c656674-2070-4616-9e65-6c206e6f2061,rev?*%
%TF.SameCoordinates,Original*%
%TF.FileFunction,Profile,NP*%
%FSLAX46Y46*%
G04 Gerber Fmt 4.6, Leading zero omitted, Abs format (unit mm)*
G04 Created by KiCad (PCBNEW 7.0.10) date 2024-03-23 19:14:43*
%MOMM*%
%LPD*%
G01*
G04 APERTURE LIST*
%TA.AperFunction,Profile*%
%ADD10C,0.250000*%
%TD*%
%TA.AperFunction,Profile*%
%ADD11C,0.350000*%
%TD*%
G04 APERTURE END LIST*
D10*
X273452993Y-106425857D02*
G75*
G03*
X268454959Y-106425857I-2499017J0D01*
G01*
X268454959Y-106425857D02*
G75*
G03*
X273452993Y-106425857I2499017J0D01*
G01*
X280774414Y-104802657D02*
X134772021Y-31850569D01*
D11*
X119793837Y-96961319D02*
G75*
G03*
X95806417Y-96961319I-11993710J0D01*
G01*
X95806417Y-96961319D02*
G75*
G03*
X119793837Y-96961319I11993710J0D01*
G01*
D10*
X60906541Y-132629166D02*
G75*
G03*
X55908501Y-132629166I-2499020J0D01*
G01*
X55908501Y-132629166D02*
G75*
G03*
X60906541Y-132629166I2499020J0D01*
G01*
X41461266Y-124938766D02*
X57874666Y-151205693D01*
D11*
X135445255Y-72082624D02*
G75*
G03*
X111457841Y-72082624I-11993707J0D01*
G01*
X111457841Y-72082624D02*
G75*
G03*
X135445255Y-72082624I11993707J0D01*
G01*
X227251486Y-105834731D02*
G75*
G03*
X197264860Y-105834731I-14993313J0D01*
G01*
X197264860Y-105834731D02*
G75*
G03*
X227251486Y-105834731I14993313J0D01*
G01*
D10*
X137943780Y-41878713D02*
G75*
G03*
X132945738Y-41878713I-2499021J0D01*
G01*
X132945738Y-41878713D02*
G75*
G03*
X137943780Y-41878713I2499021J0D01*
G01*
X134772021Y-31850569D02*
X41461266Y-124938766D01*
X232478935Y-142043745D02*
G75*
G03*
X227480899Y-142043745I-2499018J0D01*
G01*
X227480899Y-142043745D02*
G75*
G03*
X232478935Y-142043745I2499018J0D01*
G01*
X234329236Y-151137063D02*
X280774414Y-104802657D01*
X57874666Y-151205693D02*
X234329236Y-151137063D01*
D11*
X124094958Y-128009703D02*
G75*
G03*
X94064916Y-128009703I-15015021J0D01*
G01*
X94064916Y-128009703D02*
G75*
G03*
X124094958Y-128009703I15015021J0D01*
G01*
X164393710Y-67873710D02*
G75*
G03*
X140406290Y-67873710I-11993710J0D01*
G01*
X140406290Y-67873710D02*
G75*
G03*
X164393710Y-67873710I11993710J0D01*
G01*
M02*
